<svg width="1920" height="1380" viewBox="0 0 1920 1380" fill="none" xmlns="http://www.w3.org/2000/svg">
<path d="M1260.47 1380C1296.12 1333.55 1330 1285.11 1363.27 1237.54C1373.45 1222.99 1383.97 1207.96 1394.28 1193.35C1476.44 1076.96 1554.93 991.306 1634.21 931.502C1731.94 857.783 1832.72 823.17 1934 828.425V828.088C1910.3 826.853 1886.54 827.725 1863.16 830.771C1836.08 834.295 1808.77 840.78 1781.97 850.042C1732.47 867.154 1682.64 894.486 1633.86 931.276C1554.54 991.106 1476.03 1076.79 1393.84 1193.21C1383.53 1207.81 1373.01 1222.85 1362.84 1237.4C1329.53 1285.02 1295.62 1333.51 1259.93 1380L1260.47 1380Z" fill="url(#paint0_linear_579_128)"/>
<path d="M4.63424 1380C2.82423 1379.21 1.01583 1378.41 -0.794183 1377.63C-5.23887 1375.73 -9.62836 1373.87 -14 1372.05V1372.51C-8.13814 1374.97 -2.2909 1377.47 3.55148 1380H4.63424Z" fill="url(#paint1_linear_579_128)"/>
<path d="M111.972 1380C86.0363 1367.98 59.9688 1356.46 33.8315 1345.77C17.4326 1339.07 1.53043 1332.89 -14 1327.2V1327.73C28.0654 1343.14 69.6812 1360.94 110.891 1380H111.972Z" fill="url(#paint2_linear_579_128)"/>
<path d="M1257.62 1380C1311.63 1316.94 1363.11 1247.95 1412.93 1181.15L1413.1 1180.92C1454.34 1125.31 1492.56 1078 1529.94 1036.3C1648.67 904.13 1763.39 831.839 1880.67 815.291C1897.89 812.862 1915.75 811.695 1934 811.74V811.354C1915.72 811.308 1897.82 812.477 1880.57 814.911C1847.79 819.536 1814.74 828.657 1782.33 842.021C1752.07 854.497 1721.43 871.06 1691.28 891.248C1637.77 927.074 1584.85 974.454 1529.47 1036.1C1492.08 1077.81 1453.86 1125.12 1412.61 1180.75L1412.44 1180.97C1362.57 1247.84 1311.04 1316.9 1256.98 1380H1257.62Z" fill="url(#paint3_linear_579_128)"/>
<path d="M1251.44 1380C1255.97 1375.29 1260.54 1370.49 1265.16 1365.57C1315.64 1311.81 1370.19 1247.34 1431.92 1168.49C1463.29 1128.44 1505.09 1075.93 1550.35 1025.05C1670.13 890.959 1778.62 819.531 1891.75 800.258C1905.36 797.94 1919.37 796.464 1934 795.764V795.326C1919.32 796.025 1905.27 797.504 1891.61 799.834C1859.83 805.245 1827.77 815.076 1796.3 829.045C1767.04 842.036 1737.33 859.049 1707.98 879.611C1656.83 915.446 1605.09 962.944 1549.82 1024.82C1504.55 1075.72 1462.74 1128.23 1431.37 1168.29C1369.64 1247.13 1315.1 1311.58 1264.64 1365.34C1260.06 1370.21 1255.42 1375.1 1250.71 1380L1251.44 1380Z" fill="url(#paint4_linear_579_128)"/>
<path d="M221.211 1380C142.932 1342.64 64.933 1308.69 -14 1284V1284.49C64.545 1309.07 142.176 1342.84 220.086 1380H221.211Z" fill="url(#paint5_linear_579_128)"/>
<path d="M1240.93 1380C1252.91 1369.1 1265.15 1357.56 1277.76 1345.24C1335.32 1288.98 1395.14 1223.56 1450.75 1156.07C1487.23 1111.78 1528.59 1061.58 1570.76 1013.8C1652.19 922.126 1763.52 813.294 1902.83 785.222C1912.76 783.221 1923.13 781.695 1934 780.588V780.094C1923.06 781.205 1912.64 782.74 1902.65 784.752C1842.78 796.815 1784.56 824.039 1724.66 867.981C1676 903.678 1625.46 951.294 1570.17 1013.55C1527.99 1061.33 1486.63 1111.54 1450.14 1155.83C1394.54 1223.31 1334.74 1288.71 1277.19 1344.96C1265.27 1356.6 1252.95 1368.34 1240.17 1380H1240.93Z" fill="url(#paint6_linear_579_128)"/>
<path d="M332.026 1380H333.275C325.634 1376.32 318.272 1372.79 311.069 1369.35C240.696 1335.77 157.101 1297.46 70.6601 1268C41.5699 1258.08 13.4149 1249.62 -14 1242.54V1242.95C88.5865 1269.53 193.683 1313.93 310.663 1369.75C317.6 1373.06 324.685 1376.46 332.026 1380Z" fill="url(#paint7_linear_579_128)"/>
<path d="M1224.63 1380C1245.62 1363.68 1267.37 1345.44 1290.35 1324.91C1354.6 1267.49 1416.57 1204.8 1469.57 1143.64C1485.74 1124.97 1502.47 1105.45 1518.64 1086.58C1542.26 1059.02 1566.68 1030.51 1591.17 1002.56C1677.43 904.866 1783.24 800.863 1913.91 770.188C1920.39 768.668 1927.05 767.353 1934 766.226V765.674C1926.97 766.808 1920.23 768.136 1913.68 769.675C1855.98 783.22 1799.6 811.574 1741.33 856.359C1694.68 892.213 1646.76 938.579 1590.51 1002.28C1566.02 1030.24 1541.59 1058.74 1517.97 1086.31C1501.8 1105.19 1485.07 1124.7 1468.9 1143.37C1415.93 1204.51 1353.97 1267.17 1289.74 1324.58C1269.01 1343.1 1247.09 1361.87 1223.78 1380L1224.63 1380Z" fill="url(#paint8_linear_579_128)"/>
<path d="M400.252 1358C415.209 1365.29 430.387 1372.66 445.712 1380H447.137C431.805 1372.66 416.339 1365.18 400.708 1357.55C375.629 1345.44 352.393 1334.45 329.668 1323.97C226.382 1276.35 109.021 1227.63 -14 1202.74V1203.3C108.842 1228.19 226.057 1276.86 329.229 1324.43C351.946 1334.9 375.181 1345.88 400.252 1358Z" fill="url(#paint9_linear_579_128)"/>
<path d="M1199.7 1380C1232.05 1359.48 1265.86 1334.75 1302.94 1304.58C1373.58 1247.09 1435.97 1188.77 1488.39 1131.22C1519.82 1096.7 1552.24 1059.46 1583.59 1023.44C1592.89 1012.74 1602.22 1002.02 1611.58 991.308C1701.53 888.338 1801.75 788.46 1925 755.15C1927.95 754.353 1930.95 753.607 1934 752.897V752.275C1930.84 753.007 1927.75 753.777 1924.71 754.599C1869.09 769.628 1814.52 799.099 1757.87 844.694C1713.13 880.703 1667.79 925.829 1610.86 991.009C1601.5 1001.72 1592.17 1012.44 1582.86 1023.14C1551.51 1059.15 1519.1 1096.39 1487.67 1130.9C1435.28 1188.43 1372.91 1246.73 1302.3 1304.19C1270.6 1329.99 1236.17 1356.23 1198.48 1380L1199.7 1380Z" fill="url(#paint10_linear_579_128)"/>
<path d="M419.165 1312.04L431.845 1318.12C475.552 1339.11 519.737 1360.32 564.114 1380H565.721C520.971 1360.18 476.412 1338.8 432.339 1317.63L419.659 1311.55C397.299 1300.82 373.279 1289.73 348.265 1278.6C258.954 1238.85 180.227 1209.92 107.591 1190.15C65.5368 1178.7 25.1873 1170.2 -14 1164.52V1165.02C92.9062 1180.45 208.955 1217.31 347.794 1279.1C372.798 1290.23 396.812 1301.31 419.165 1312.04Z" fill="url(#paint11_linear_579_128)"/>
<path d="M1159.24 1380C1207.67 1357.57 1257.54 1327.01 1315.53 1284.25C1391.76 1228.04 1454.45 1173.91 1507.21 1118.79C1546.53 1077.7 1585.53 1033.62 1631.99 980.064C1715.28 884.063 1814.11 778.607 1934 740.779V740.073C1881.15 756.675 1828.95 787.11 1774.51 833.085C1721.52 877.836 1672.33 932.332 1631.2 979.738C1584.75 1033.28 1545.75 1077.36 1506.44 1118.44C1453.72 1173.53 1391.05 1227.63 1314.86 1283.81C1268.5 1318 1216.45 1352.89 1157.25 1380H1159.24Z" fill="url(#paint12_linear_579_128)"/>
<path d="M438.076 1266.07C451.059 1272.23 464.31 1278.56 477.126 1284.68C547.936 1318.51 620.1 1352.99 692.111 1380H694.103C621.621 1352.92 548.956 1318.21 477.665 1284.15C464.846 1278.03 451.593 1271.69 438.611 1265.54C416.253 1254.93 392.113 1244.06 366.863 1233.22C279.742 1195.83 200.983 1169.01 126.077 1151.21C77.5722 1139.68 31.1636 1132.04 -14 1128.16V1128.78C100.982 1138.6 224.307 1172.8 366.362 1233.77C391.601 1244.61 415.729 1255.48 438.076 1266.07Z" fill="url(#paint13_linear_579_128)"/>
<path d="M1073.13 1380C1103.51 1373.73 1133.59 1364.71 1163.8 1352.85C1214.58 1332.92 1266.79 1304.66 1328.11 1263.93C1408.2 1210.71 1472.94 1159.18 1526.02 1106.37C1563.55 1069.03 1603.71 1025.33 1652.4 968.815C1740.24 866.877 1828 772.012 1934 730.022V729.224C1827.56 771.205 1739.59 866.29 1651.55 968.469C1602.87 1024.96 1562.73 1068.66 1525.21 1105.98C1472.16 1158.75 1407.46 1210.25 1327.43 1263.43C1252.86 1312.97 1170.57 1359.96 1069.73 1380L1073.13 1380Z" fill="url(#paint14_linear_579_128)"/>
<path d="M456.989 1220.11C477.976 1229.94 499.397 1240.19 520.116 1250.1C630.028 1302.67 743.467 1356.92 853.576 1380H857.164C746.176 1357.35 631.639 1302.59 520.694 1249.52C499.977 1239.61 478.552 1229.36 457.561 1219.53C435.115 1209.01 410.857 1198.35 385.454 1187.85C240.608 1127.96 109.115 1096.91 -14 1093.69V1094.39C108.932 1097.61 240.251 1128.63 384.931 1188.45C410.316 1198.94 434.559 1209.59 456.989 1220.11Z" fill="url(#paint15_linear_579_128)"/>
<path d="M1934 719.831C1892.8 739.727 1851.28 769.356 1807.78 809.902C1762.67 851.954 1721.3 899.46 1671.89 957.196C1625.83 1011.02 1583.99 1055.61 1543.98 1093.51C1490.06 1144.58 1423.33 1193.49 1340 1243.04C1209.5 1320.62 1109.29 1351.95 994.113 1351.17C953.396 1350.9 919.628 1347.76 887.838 1341.28C780.696 1319.46 669.381 1265.86 561.733 1214.03C533.784 1200.57 504.884 1186.66 476.51 1173.52C453.952 1163.07 429.573 1152.62 404.049 1142.47C321.225 1109.51 240.151 1086.24 163.085 1073.28C102.859 1063.16 43.5309 1059.08 -14 1061.07V1061.75C117.147 1056.99 254.363 1083.78 403.499 1143.12C429.003 1153.27 453.363 1163.71 475.904 1174.14C504.267 1187.28 533.166 1201.19 561.108 1214.65C668.828 1266.51 780.213 1320.14 887.517 1342C919.4 1348.49 953.263 1351.65 994.08 1351.92C1056.07 1352.34 1115.25 1342.78 1175.01 1322.7C1226.19 1305.51 1278.83 1280.37 1340.68 1243.6C1424.09 1194.02 1490.87 1145.06 1544.84 1093.95C1584.88 1056.03 1626.73 1011.42 1672.81 957.568C1752.24 864.751 1834.18 769.044 1934 720.724V719.831Z" fill="url(#paint16_linear_579_128)"/>
<path d="M1934 712.047C1849.14 761.077 1777.85 845.054 1702.9 933.372L1692.24 945.925C1648.01 997.983 1604.44 1043.44 1562.75 1081.04C1507.54 1130.84 1438.79 1177.16 1352.57 1222.65C1223.69 1290.64 1120.1 1317.49 1006.2 1312.42C965.394 1310.61 932.259 1306.47 901.919 1299.39C803.129 1276.34 700.39 1226.29 601.036 1177.89C566.455 1161.05 530.698 1143.63 495.46 1127.51C472.768 1117.13 448.265 1106.89 422.641 1097.09C271.385 1039.25 124.711 1016.87 -14 1030.36V1031.17C124.503 1017.68 270.986 1040.02 422.068 1097.79C447.669 1107.59 472.144 1117.81 494.814 1128.18C530.037 1144.29 565.79 1161.71 600.364 1178.55C699.783 1226.98 802.587 1277.06 901.531 1300.15C931.967 1307.25 965.195 1311.4 1006.1 1313.22C1067.83 1315.96 1126.75 1309.21 1186.27 1292.58C1237.98 1278.12 1291.04 1256.1 1353.26 1223.28C1439.56 1177.75 1508.38 1131.38 1563.65 1081.52C1605.37 1043.9 1648.97 998.405 1693.23 946.32L1703.88 933.767C1778.57 845.761 1849.61 762.064 1934 713.068L1934 712.047Z" fill="url(#paint17_linear_579_128)"/>
<path d="M1934 706.203C1863.47 754.428 1802.54 827.219 1738.69 903.535C1730.06 913.859 1721.37 924.25 1712.58 934.654C1669.18 986.088 1625.09 1031.15 1581.53 1068.58C1524.69 1117.41 1453.91 1161.13 1365.16 1202.26C1236.53 1261.85 1132.8 1283.21 1018.29 1273.67C976.844 1270.22 945.296 1265.23 915.997 1257.5C825.011 1233.47 730.361 1186.61 638.824 1141.29C598.142 1121.15 556.073 1100.33 514.412 1081.5C491.562 1071.17 466.941 1061.15 441.232 1051.71C285.892 994.692 132.847 977.892 -14.001 1001.64V1002.51C132.631 978.747 285.48 995.512 440.641 1052.47C466.319 1061.9 490.911 1071.9 513.728 1082.22C555.37 1101.03 597.427 1121.86 638.099 1141.99C729.696 1187.34 824.411 1234.23 915.54 1258.3C944.935 1266.06 976.569 1271.06 1018.12 1274.52C1079.65 1279.64 1138.35 1275.7 1197.57 1262.48C1249.94 1250.79 1303.4 1231.88 1365.82 1202.96C1454.68 1161.79 1525.55 1118 1582.47 1069.1C1626.07 1031.64 1670.2 986.546 1713.64 935.074C1722.41 924.667 1731.11 914.277 1739.75 903.951C1803.3 827.992 1863.95 755.526 1934 707.38V706.203Z" fill="url(#paint18_linear_579_128)"/>
<path d="M1934 702.516C1876.77 748.306 1825.88 810.352 1772.77 875.142C1759.83 890.926 1746.45 907.246 1732.93 923.384C1690.16 974.428 1645.54 1019.08 1600.3 1056.11C1541.57 1104.17 1468.78 1145.3 1377.74 1181.86C1249.73 1233.28 1145.84 1249.15 1030.39 1234.92C1002.45 1231.48 965.797 1226.18 930.082 1215.61C846.432 1190.85 763.302 1148.85 675.288 1104.38C628.977 1080.98 581.087 1056.79 533.358 1035.49C510.346 1025.22 485.604 1015.41 459.821 1006.34C300.937 950.424 141.992 939.765 -12.5966 974.657C-13.0658 974.762 -13.5333 974.876 -14 974.983V975.93C-13.4083 975.793 -12.8166 975.648 -12.2233 975.515C142.027 940.7 300.642 951.343 459.214 1007.14C484.96 1016.21 509.665 1026 532.642 1036.25C580.341 1057.54 628.213 1081.73 674.51 1105.12C762.582 1149.61 845.768 1191.64 929.55 1216.44C965.384 1227.04 1002.13 1232.36 1030.13 1235.81C1145.92 1250.07 1250.07 1234.17 1378.37 1182.64C1469.54 1146.03 1542.45 1104.83 1601.28 1056.68C1646.57 1019.61 1691.24 974.917 1734.04 923.825C1747.57 907.684 1760.95 891.361 1773.89 875.577C1826.67 811.192 1877.24 749.515 1934 703.867L1934 702.516Z" fill="url(#paint19_linear_579_128)"/>
<path d="M1934 701.329C1889.09 742.945 1847.97 794.424 1805.25 847.921C1788.47 868.931 1771.12 890.659 1753.28 912.113C1711.02 962.915 1665.87 1007.17 1619.08 1043.64C1558.25 1091.05 1483.43 1129.6 1390.34 1161.47C1263.26 1204.98 1159.23 1215.36 1042.48 1196.18C1012.81 1191.3 977.916 1184.82 944.166 1173.72C867.445 1148.47 791.238 1109.03 710.558 1067.27C659.05 1040.61 605.788 1013.04 552.307 989.479C529.124 979.263 504.26 969.668 478.41 960.961C322.152 908.327 163.71 902.773 7.48222 944.451C0.305459 946.367 -6.85669 948.417 -14.001 950.588V951.607C-6.7252 949.401 0.589542 947.305 7.94649 945.342C163.805 903.76 321.883 909.306 477.789 961.821C503.596 970.516 528.415 980.093 551.555 990.288C604.994 1013.84 658.234 1041.39 709.723 1068.04C790.458 1109.83 866.716 1149.3 943.555 1174.58C977.419 1185.72 1012.39 1192.22 1042.14 1197.11C1159.22 1216.34 1263.53 1205.94 1390.92 1162.32C1484.18 1130.39 1559.14 1091.78 1620.09 1044.26C1666.94 1007.74 1712.15 963.437 1754.46 912.579C1772.31 891.112 1789.66 869.385 1806.44 848.37C1848.79 795.336 1889.57 744.289 1934 702.905L1934 701.329Z" fill="url(#paint20_linear_579_128)"/>
<path d="M1934 702.982C1900.5 738.587 1868.89 779.447 1836.24 821.662C1816.18 847.602 1795.43 874.428 1773.62 900.843C1731.79 951.489 1686.12 995.336 1637.86 1031.17C1575.61 1077.38 1496.58 1114.36 1402.95 1141.07C1277.08 1176.99 1172.9 1181.88 1054.58 1157.43C1023.44 1151 990.217 1143.44 958.255 1131.83C888.112 1106.34 818.495 1069.3 744.788 1030.08C688.467 1000.11 630.228 969.123 571.255 943.47C547.891 933.304 522.908 923.921 496.996 915.58C342.976 866.003 185.038 865.554 27.559 914.252C13.5739 918.575 -0.28608 923.363 -14 928.574V929.711C-0.10102 924.416 13.9457 919.552 28.1223 915.171C185.198 866.596 342.737 867.043 496.365 916.495C522.223 924.819 547.154 934.184 570.471 944.326C629.385 969.957 687.598 1000.93 743.894 1030.88C817.648 1070.13 887.314 1107.2 957.562 1132.73C989.631 1144.38 1022.93 1151.95 1054.14 1158.4C1115.5 1171.08 1173.59 1175.68 1231.74 1172.47C1285.93 1169.48 1342.11 1159.51 1403.47 1142C1497.3 1115.23 1576.51 1078.17 1638.9 1031.85C1687.24 995.956 1732.99 952.046 1774.87 901.331C1796.7 874.904 1817.45 848.071 1837.51 822.124C1869.75 780.435 1900.98 740.064 1934 704.796V702.982H1934Z" fill="url(#paint21_linear_579_128)"/>
<path d="M1934 707.836C1911.01 735.53 1888.7 765.485 1865.82 796.213C1843.01 826.849 1819.42 858.53 1793.96 889.574C1752.52 940.124 1706.32 983.568 1656.64 1018.7C1591.99 1064.4 1510.88 1098.72 1415.56 1120.68C1292.78 1148.97 1185.19 1148.36 1066.69 1118.69C1037.73 1111.44 1004.17 1102.65 972.343 1089.95C908.477 1064.46 845.145 1029.7 778.097 992.903C717.306 959.541 654.451 925.044 590.206 897.461C566.64 887.342 541.533 878.173 515.584 870.205C363.429 823.481 205.988 828.141 47.6323 884.051C26.9778 891.342 6.38582 899.762 -14 909.152V910.384C6.47348 900.925 27.27 892.417 48.2954 884.993C206.221 829.233 363.224 824.585 514.944 871.174C540.833 879.123 565.877 888.272 589.383 898.363C653.558 925.917 716.383 960.396 777.138 993.739C844.23 1030.56 907.604 1065.34 971.565 1090.87C1003.5 1103.61 1037.13 1112.43 1066.15 1119.69C1184.99 1149.44 1292.89 1150.05 1416.01 1121.69C1511.56 1099.67 1592.89 1065.26 1657.71 1019.43C1707.48 984.235 1753.77 940.715 1795.28 890.08C1820.75 859.017 1844.35 827.328 1867.16 796.682C1889.6 766.551 1911.49 737.159 1934 709.927V707.836Z" fill="url(#paint22_linear_579_128)"/>
<path d="M1934 716.188C1920.7 734.072 1907.49 752.598 1894.06 771.439C1869.01 806.583 1843.1 842.924 1814.31 878.303C1773.21 928.809 1726.48 971.845 1675.42 1006.22C1608.25 1051.45 1525.06 1083.1 1428.17 1100.29C1306.97 1121.8 1199.22 1115.53 1078.8 1079.95C1048.62 1071.04 1016.64 1061.24 986.434 1048.06C928.571 1022.82 871.254 990.279 810.569 955.823C745.632 918.953 678.485 880.827 609.151 851.448C585.411 841.39 560.183 832.431 534.164 824.824C383.528 780.78 226.588 790.548 67.704 853.855C40.3086 864.77 12.9457 877.673 -14 892.29V893.521C12.8954 878.961 40.4466 865.981 68.4718 854.814C226.896 791.689 383.361 781.943 533.519 825.848C559.467 833.436 584.625 842.367 608.298 852.399C677.543 881.739 744.647 919.841 809.545 956.687C870.269 991.166 927.623 1023.73 985.568 1049C1015.87 1062.22 1047.92 1072.05 1078.14 1080.98C1198.91 1116.65 1306.97 1122.93 1428.53 1101.36C1525.7 1084.12 1609.13 1052.38 1676.51 1007.01C1727.69 972.558 1774.51 929.432 1815.69 878.832C1844.51 843.428 1870.42 807.072 1895.49 771.914C1908.44 753.747 1921.18 735.87 1934 718.581L1934 716.188Z" fill="url(#paint23_linear_579_128)"/>
<path d="M1934 728.138C1929.69 734.458 1925.37 740.821 1921.02 747.232C1894.22 786.744 1866.51 827.597 1834.66 867.032C1793.87 917.524 1746.61 960.156 1694.2 993.749C1625.37 1037.87 1537.74 1067.65 1440.8 1079.9C1321.23 1095 1213.31 1083.07 1090.91 1041.22C1058.49 1030.13 1029.31 1019.85 1000.52 1006.18C948.429 981.441 896.875 951.072 842.294 918.916C773.499 878.389 702.364 836.485 628.1 805.438C604.146 795.425 578.794 786.681 552.751 779.444C403.301 737.926 246.858 752.801 87.7716 823.66C53.2076 839.055 19.1436 857.348 -14 878.099V879.644C19.4196 858.654 53.779 840.163 88.6499 824.632C247.25 753.992 403.179 739.152 552.103 780.526C578.065 787.738 603.339 796.454 627.217 806.435C701.371 837.435 772.455 879.311 841.198 919.808C895.812 951.984 947.4 982.372 999.565 1007.14C1028.44 1020.85 1057.67 1031.16 1090.14 1042.26C1212.89 1084.23 1321.11 1096.19 1441.06 1081.04C1538.32 1068.76 1626.25 1038.86 1695.32 994.597C1747.86 960.917 1795.23 918.185 1836.1 867.586C1867.99 828.113 1895.72 787.238 1922.53 747.709C1926.37 742.045 1930.19 736.423 1934 730.826L1934 728.138Z" fill="url(#paint24_linear_579_128)"/>
<path d="M1934 743.37C1909.82 780.859 1884.44 819.04 1855 855.762C1814.5 906.272 1766.72 948.502 1712.99 981.276C1622.62 1036.39 1521.96 1054.24 1453.43 1059.51C1335.46 1068.58 1227.39 1050.99 1103.02 1002.48C1075.48 991.744 1044.28 979.574 1014.62 964.297C968.074 940.322 922.061 912.123 873.346 882.266C800.963 837.904 726.114 792.032 647.043 759.427C622.895 749.467 597.42 740.937 571.329 734.066C493.198 713.491 411.839 709.349 329.514 721.758C256.443 732.774 181.864 756.899 107.842 793.468C66.6618 813.812 25.7635 838.613 -14 867.051V868.771C26.072 840.02 67.3063 814.963 108.828 794.451C267.299 716.162 422.691 696.227 570.681 735.203C596.682 742.047 622.068 750.549 646.133 760.473C725.068 793.023 799.855 838.859 872.179 883.184C920.922 913.058 966.961 941.274 1013.56 965.278C1043.31 980.599 1074.56 992.79 1102.14 1003.54C1226.84 1052.18 1335.23 1069.81 1453.58 1060.72C1522.36 1055.43 1623.4 1037.51 1714.12 982.179C1768.01 949.311 1815.92 906.971 1856.52 856.338C1885.35 820.371 1910.28 783.028 1934 746.306L1934 743.37Z" fill="url(#paint25_linear_579_128)"/>
<path d="M1934 761.036C1916.09 789.219 1896.96 817.327 1875.34 844.494C1835.13 895.035 1786.82 936.858 1731.77 968.801C1637.9 1023.27 1535.46 1037.11 1466.06 1039.13C1349.59 1042.51 1241.36 1019.26 1115.13 963.749C1086.6 951.208 1057.11 938.237 1028.71 922.421C987.532 899.477 946.86 873.478 903.801 845.953C828.071 797.543 749.761 747.484 665.991 713.415C641.644 703.517 616.048 695.197 589.912 688.687C511.869 669.254 430.457 667.216 347.932 682.633C275.31 696.199 201.285 723.332 127.912 763.277C80.0105 789.356 32.3462 821.525 -14 858.732V860.641C32.6919 823.037 80.7312 790.55 129.011 764.265C287.072 678.215 441.925 653.186 589.265 689.878C615.3 696.363 640.796 704.649 665.05 714.512C748.658 748.512 826.895 798.525 902.555 846.891C945.637 874.431 986.329 900.442 1027.56 923.413C1056.03 939.272 1085.57 952.262 1114.13 964.823C1240.69 1020.48 1349.24 1043.78 1466.09 1040.39C1535.78 1038.37 1638.64 1024.47 1732.92 969.767C1788.15 937.719 1836.6 895.77 1876.93 845.088C1897.91 818.721 1916.55 791.477 1934 764.143V761.036Z" fill="url(#paint26_linear_579_128)"/>
<path d="M1934 779.708C1922.12 797.843 1909.47 815.763 1895.69 833.223C1855.74 883.819 1806.91 925.237 1750.56 956.329C1653.09 1010.11 1548.92 1019.96 1478.69 1018.74C1363.54 1016.75 1255.15 987.848 1127.24 925.019L1126.52 924.663C1098.83 911.067 1070.21 897.007 1042.81 880.541C1006.8 858.903 971.279 835.159 933.673 810.021C854.837 757.33 773.318 702.841 684.936 667.405C660.381 657.56 634.66 649.452 608.49 643.309C530.492 624.996 449.018 625.059 366.329 643.501C294.062 659.616 220.598 689.756 147.978 733.088C93.89 765.361 39.5375 805.923 -14 853.705V855.814C39.932 807.532 94.6984 766.593 149.189 734.08C306.571 640.172 460.888 610.051 607.849 644.556C633.906 650.673 659.516 658.747 683.967 668.548C772.154 703.907 853.591 758.341 932.347 810.981C969.972 836.13 1005.51 859.885 1041.56 881.546C1069.02 898.05 1097.68 912.128 1125.4 925.741L1126.13 926.099C1254.36 989.085 1363.06 1018.06 1478.61 1020.06C1549.15 1021.28 1653.79 1011.39 1751.72 957.351C1808.27 926.147 1857.26 884.591 1897.34 833.837C1910.49 817.182 1922.6 800.116 1934 782.846L1934 779.708Z" fill="url(#paint27_linear_579_128)"/>
<path d="M1934 797.734C1928.23 805.9 1922.28 813.989 1916.03 821.956C1876.34 872.615 1826.99 913.627 1769.35 943.852C1690.43 985.24 1591.69 1004.6 1491.33 998.363C1377.24 991.274 1268.69 956.709 1139.35 886.29L1138.78 885.979C1111.69 871.23 1083.68 855.981 1056.91 838.664C1025.9 818.616 995.357 797.214 963.017 774.557C881.3 717.312 796.801 658.116 703.883 621.392C679.106 611.602 653.262 603.709 627.067 597.927C549.075 580.716 467.533 582.88 384.704 604.361C312.71 623.032 239.814 656.184 168.045 702.9C108.308 741.786 47.9302 791.164 -14 851.867V854.207C48.4042 792.867 109.219 743.044 169.372 703.889C276.942 633.87 443.558 558.876 626.437 599.233C652.503 604.984 678.225 612.843 702.882 622.586C795.577 659.219 879.983 718.348 961.608 775.534C993.962 798.2 1024.52 819.608 1055.55 839.676C1082.38 857.03 1110.43 872.299 1137.55 887.064L1138.13 887.378C1267.77 957.964 1376.63 992.614 1491.11 999.727C1591.97 1005.99 1691.19 986.536 1770.51 944.938C1828.38 914.589 1877.92 873.428 1917.75 822.589C1923.37 815.416 1928.77 808.149 1934 800.817V797.734Z" fill="url(#paint28_linear_579_128)"/>
<path d="M1934 813.653C1894.94 862.995 1845.9 902.608 1788.15 931.376C1706.3 972.145 1605.38 988.698 1503.97 977.987C1390.64 966.015 1281.92 925.792 1151.47 847.564C1126.2 832.416 1097.57 815.246 1071.01 796.788C1044.85 778.624 1019.12 759.683 991.869 739.63C907.487 677.53 820.229 613.316 722.828 575.384C697.846 565.652 671.876 557.971 645.642 552.549C461.681 514.529 295.296 596.912 188.113 672.716C116.131 723.623 48.659 786.634 -14 852.931V855.488C49.0714 788.603 117.029 724.99 189.55 673.701C296.336 598.18 462.036 516.092 645.023 553.911C671.116 559.304 696.947 566.946 721.8 576.626C818.942 614.456 906.091 678.593 990.373 740.62C1017.63 760.679 1043.38 779.627 1069.55 797.805C1096.17 816.297 1124.83 833.485 1150.12 848.65C1280.87 927.056 1389.89 967.378 1503.62 979.391C1605.56 990.156 1707.02 973.514 1789.31 932.524C1846.45 904.064 1895.07 865.044 1934 816.544L1934 813.653Z" fill="url(#paint29_linear_579_128)"/>
<path d="M1934 826.321C1898.68 864.599 1856.08 895.668 1806.94 918.902C1722.14 959.001 1619.03 972.751 1516.61 957.614C1403.68 940.925 1294.8 895.044 1163.58 808.843C1135.4 790.328 1110.04 773.492 1085.1 754.917C1063.65 738.938 1041.58 721.839 1020.24 705.302C933.401 638.019 843.611 568.445 741.773 529.371C716.566 519.7 690.474 512.232 664.22 507.169C479.819 471.622 314.443 561.16 208.182 642.533C128.998 703.168 55.9892 778.404 -14 856.917V859.686C56.4803 780.51 129.987 704.573 209.731 643.509C315.584 562.447 480.253 473.241 663.61 508.587C689.712 513.618 715.654 521.046 740.717 530.664C842.255 569.622 931.928 639.104 1018.65 706.297C1040 722.839 1062.07 739.945 1083.54 755.933C1108.52 774.539 1133.9 791.392 1162.11 809.923C1293.63 896.312 1402.81 942.307 1516.13 959.054C1619.12 974.273 1722.81 960.445 1808.1 920.111C1856.67 897.146 1898.87 866.567 1934 828.984V826.321Z" fill="url(#paint30_linear_579_128)"/>
<path d="M1934 835.493C1902.94 864.266 1866.73 888.039 1825.74 906.425C1737.93 945.803 1632.64 956.749 1529.25 937.241C1416.36 915.942 1307.32 864.4 1175.69 770.118C1152.29 753.358 1125.16 733.744 1099.2 713.044C1082.48 699.711 1065.3 685.682 1048.69 672.113C959.4 599.164 867.068 523.734 760.711 483.36C735.067 473.709 708.85 466.452 682.787 461.788C604.619 447.795 522.839 456.258 439.724 486.936C368.08 513.382 296.928 555.576 228.249 612.351C140.988 684.486 62.1165 774.562 -14 862.862V865.79C62.6522 776.853 142.048 685.947 229.907 613.315C334.705 526.687 498.24 430.335 682.201 463.264C708.091 467.897 734.147 475.11 759.635 484.701C865.644 524.944 957.849 600.271 1047.02 673.115C1063.63 686.688 1080.81 700.722 1097.54 714.06C1123.53 734.786 1150.69 754.418 1174.11 771.19C1306.02 865.674 1415.36 917.339 1528.63 938.711C1632.63 958.333 1738.56 947.319 1826.89 907.698C1867.35 889.552 1903.16 866.189 1934 837.986V835.493Z" fill="url(#paint31_linear_579_128)"/>
<path d="M1934 841.402C1907.47 862.302 1877.6 879.893 1844.54 893.949C1755.02 931.997 1644.71 940.352 1541.89 916.874C1428.67 891.018 1319.47 833.814 1187.8 731.398C1157.2 707.593 1134.22 689.018 1113.29 671.174C1100.96 660.653 1088.31 649.72 1076.07 639.145C984.787 560.259 890.396 478.685 779.656 437.348C753.687 427.716 727.345 420.671 701.362 416.411C623.14 403.374 541.281 413.907 458.062 447.717C386.429 476.819 315.863 522.054 248.318 582.168C172.175 649.939 103.453 731.226 36.997 809.839C20.2393 829.662 3.23818 849.752 -14 869.79V872.817C3.90374 852.032 21.5526 831.18 38.9401 810.614C105.357 732.049 174.039 650.808 250.089 583.121C335.017 507.533 506.501 385.564 700.794 417.944C726.594 422.174 752.759 429.17 778.555 438.739C888.9 479.928 983.147 561.381 1074.29 640.15C1086.53 650.725 1099.19 661.661 1111.53 672.187C1132.48 690.049 1155.48 708.64 1186.1 732.461C1318.04 835.09 1427.53 892.427 1541.14 918.371C1644.59 941.993 1755.59 933.58 1845.68 895.286C1878.25 881.443 1907.74 864.201 1934 843.762L1934 841.402Z" fill="url(#paint32_linear_579_128)"/>
<path d="M1934 844.375C1912.43 858.755 1888.86 871.166 1863.33 881.471C1770.64 918.66 1658.09 924.139 1554.53 896.505C1408.52 857.544 1288.32 767.11 1199.91 692.676C1174.13 670.974 1149.73 649.652 1127.39 629.304C1119.26 621.895 1111.09 614.412 1102.88 606.892C1009.86 521.672 913.663 433.552 798.6 391.336C772.565 381.815 746.097 374.983 719.933 371.032C523.119 341.03 352.549 471.53 268.39 551.99C203.747 613.79 145.411 685.066 88.9956 753.996C55.7092 794.666 21.65 836.264 -14 876.328V879.394C22.3935 838.622 57.102 796.214 91.0167 754.776C147.402 685.887 205.704 614.651 270.268 552.926C354.083 472.796 523.88 342.82 719.39 372.619C745.35 376.542 771.624 383.323 797.477 392.779C912.097 434.832 1008.13 522.811 1101.01 607.895C1109.22 615.415 1117.39 622.9 1125.52 630.309C1147.89 650.673 1172.3 672.01 1198.1 693.729C1286.69 768.311 1407.15 858.931 1553.65 898.024C1657.87 925.834 1771.16 920.312 1864.47 882.874C1889.54 872.756 1912.72 860.631 1934 846.611V844.375Z" fill="url(#paint33_linear_579_128)"/>
<path d="M1934 845.07C1821.6 908.165 1677.49 909.699 1567.17 876.139C1402.69 826.101 1265.38 707.812 1141.49 587.436L1129.16 575.441C1013.88 463.251 894.668 347.243 738.501 325.65C659.924 314.785 577.866 329.545 494.607 369.516C423.779 403.52 352.495 456.184 288.461 521.81C232.463 579.197 182.053 643.395 133.3 705.479C86.8155 764.674 38.9596 825.579 -14 880.937V883.944C39.8167 827.971 88.3122 766.233 135.408 706.258C184.133 644.209 234.514 580.05 290.443 522.729C354.307 457.278 425.368 404.775 495.944 370.89C578.637 331.19 660.07 316.523 737.98 327.295C893.237 348.763 1012.17 464.506 1127.19 576.437L1139.52 588.432C1263.6 708.997 1401.17 827.482 1566.16 877.678C1650.6 903.366 1743.09 906.9 1826.59 887.626C1865.74 878.588 1901.75 864.898 1934 846.976V845.07Z" fill="url(#paint34_linear_579_128)"/>
<path d="M1934 806.72C1819.85 874.37 1668.75 876.42 1554.89 842.266C1474.6 818.221 1394.36 777.188 1309.55 716.821C1240.66 667.978 1176.59 611.525 1128.46 567.799L1115.36 555.87C1061.93 507.215 1006.69 456.903 947.063 415.456C871.422 362.453 799.539 332.371 727.302 323.491C635.524 312.146 539.264 334.762 441.2 390.706C384.92 422.658 330.138 464.313 278.379 514.508C222.008 569.06 170.941 629.722 121.559 688.385C78.3807 739.672 34.0474 792.295 -14 841.019V843.948C34.8575 794.616 79.8384 741.227 123.629 689.209C172.984 630.578 224.022 569.954 280.323 515.466C331.956 465.394 386.586 423.852 442.698 391.994C540.182 336.38 635.777 313.886 726.83 325.143C798.57 333.962 870.044 363.894 945.336 416.652C1004.85 458.026 1060.05 508.294 1113.43 556.907L1126.54 568.835C1174.7 612.599 1238.84 669.104 1307.81 718.008C1392.83 778.527 1473.32 819.679 1553.89 843.809C1637.59 868.913 1729.13 873.046 1811.66 855.445C1856.86 845.808 1897.97 830.089 1934 808.902V806.72Z" fill="url(#paint35_linear_579_128)"/>
<path d="M1934 769.053C1819.37 841.599 1663.91 844.252 1542.6 808.394C1463.27 785.006 1383.04 745.645 1297.32 688.055C1228.73 642.338 1166.89 591.681 1115.44 548.159L1105.41 539.66C1050.88 493.441 994.492 445.651 934.103 406.231C857.172 356.011 787.901 329.034 716.101 321.334C625.973 311.542 530.46 334.036 432.215 388.196C375.551 419.434 320.403 459.475 268.301 507.205C211.695 558.846 160.094 615.894 110.196 671.065C70.3257 715.145 29.5005 760.265 -14 802.702V805.545C30.2683 762.518 71.7429 716.696 112.227 671.935C162.098 616.797 213.666 559.783 270.205 508.202C322.183 460.586 377.184 420.65 433.686 389.501C531.37 335.65 626.246 313.275 715.682 322.991C786.987 330.638 855.862 357.482 932.436 407.469C992.71 446.813 1049.05 494.564 1103.53 540.741L1113.56 549.24C1165.06 592.801 1226.96 643.504 1295.63 689.278C1381.55 747.004 1462.02 786.473 1541.62 809.94C1624.57 834.46 1715.18 839.191 1796.74 823.258C1848.15 813.216 1894.41 795.464 1934 770.881L1934 769.053Z" fill="url(#paint36_linear_579_128)"/>
<path d="M1934 730.893C1818.19 807.951 1655.42 810.948 1530.32 774.521C1451.93 751.785 1374.01 715.17 1285.08 659.288C1214.43 614.889 1150.34 566.079 1102.4 528.516L1094.18 522.06C1039 478.728 981.94 433.922 921.147 397.008C844.32 350.362 775.607 325.63 704.905 319.178C616.251 310.901 521.486 333.278 423.237 385.686C366.371 416.018 310.852 454.447 258.222 499.904C201.553 548.545 149.58 601.899 99.3135 653.495C62.696 691.083 25.3009 729.466 -14 766.053V768.813C26.033 731.664 64.071 692.631 101.3 654.415C151.535 602.846 203.478 549.527 260.084 500.939C312.59 455.587 367.967 417.256 424.675 387.008C522.383 334.886 616.543 312.624 704.536 320.839C774.758 327.247 843.079 351.857 919.542 398.282C980.222 435.128 1037.23 479.895 1092.36 523.19L1100.59 529.645C1148.56 567.239 1212.71 616.093 1283.45 660.545C1372.57 716.554 1450.71 753.263 1529.35 776.071C1611.56 800.007 1701.22 805.331 1781.83 791.057C1839.62 780.824 1891.1 761.081 1934 733.011V730.893Z" fill="url(#paint37_linear_579_128)"/>
<path d="M1934 692.859C1830.17 764.683 1670.51 784.364 1518.04 740.647C1441.32 718.769 1363.41 683.773 1272.84 630.52C1201.52 588.582 1137.33 543.479 1089.37 508.873L1083.65 504.735C1027.6 464.194 969.645 422.271 908.187 387.784C831.451 344.725 763.295 322.241 693.703 317.019C606.556 310.246 512.537 332.505 414.254 383.175C357.777 412.293 301.888 449.108 248.143 492.599C192.184 537.883 140.395 587.067 90.3138 634.629C56.4251 666.811 21.8935 699.593 -14 731.181V733.863C22.5948 701.745 57.7513 668.358 92.2447 635.6C142.299 588.065 194.059 538.911 249.956 493.678C303.58 450.286 359.332 413.557 415.66 384.515C513.425 334.111 606.867 311.963 693.386 318.687C762.513 323.873 830.279 346.247 906.648 389.1C967.994 423.522 1025.9 465.406 1081.89 505.913L1087.62 510.053C1135.61 544.686 1199.86 589.827 1271.26 631.813C1362.02 685.178 1440.13 720.257 1517.08 742.201C1598.54 765.557 1687.27 771.469 1766.92 758.848C1831.27 748.65 1888.06 726.973 1934 695.367V692.859Z" fill="url(#paint38_linear_579_128)"/>
<path d="M1934 655.646C1830.16 731.728 1666.36 752.095 1505.76 706.778C1429.98 685.53 1354.37 653.141 1260.6 601.753C1204.42 570.964 1147.59 536.26 1076.33 489.231L1074.09 487.75C1016.87 449.88 957.709 410.717 895.223 378.56C818.798 339.23 751.202 318.989 682.498 314.862C596.636 309.704 503.364 331.845 405.276 380.666C348.766 408.79 292.511 443.995 238.072 485.299C182.723 527.291 131.161 572.482 81.2953 616.183C49.146 644.359 17.8563 671.769 -14 698.111V700.694C18.5089 673.872 50.3928 645.936 83.1695 617.209C133.007 573.53 184.542 528.365 239.828 486.418C294.152 445.201 350.279 410.078 406.65 382.023C504.248 333.444 596.967 311.411 682.238 316.535C750.486 320.632 817.7 340.772 893.76 379.917C956.132 412.014 1015.24 451.141 1072.41 488.976L1074.65 490.458C1145.96 537.526 1202.85 572.26 1259.09 603.079C1353.04 654.568 1428.82 687.029 1504.81 708.333C1585.52 731.108 1673.32 737.605 1752.03 726.625C1823.15 716.701 1885.33 693.172 1934 658.033L1934 655.646Z" fill="url(#paint39_linear_579_128)"/>
<path d="M1934 618.698C1831.08 697.692 1659.88 719.092 1493.48 672.904C1399.5 647.015 1313.12 605.908 1248.36 572.987C1191.62 544.136 1134.54 512.246 1063.29 469.586C1008.43 436.626 946.251 399.266 882.254 369.337C805.922 333.637 738.888 315.642 671.296 312.706C586.957 309.042 494.435 331.064 396.298 378.154C339.767 405.28 283.144 438.871 227.999 477.995C173.665 516.545 122.708 557.616 73.4287 597.337C43.914 621.125 15.095 644.345 -14 666.771V669.251C15.7135 646.39 45.1121 622.698 75.2379 598.417C124.49 558.717 175.419 517.667 229.7 479.155C284.734 440.111 341.236 406.59 397.634 379.529C495.306 332.66 587.31 310.74 671.091 314.38C738.245 317.298 804.905 335.204 880.879 370.735C944.759 400.611 1006.88 437.934 1061.69 470.867C1132.99 513.558 1190.12 545.473 1246.91 574.349C1311.78 607.327 1398.32 648.509 1492.54 674.466C1658.95 720.655 1830.2 699.581 1934 621.154V618.698Z" fill="url(#paint40_linear_579_128)"/>
<path d="M1934 582.453C1931.81 584.157 1929.56 585.881 1927.22 587.654C1824.95 664.899 1649.88 685.064 1481.19 639.033C1391.93 614.884 1310.65 579.191 1236.12 544.22C1178.75 517.304 1121.42 488.226 1050.24 449.942C987.361 415.979 930.347 385.777 869.282 360.112C793.009 328.057 726.537 312.307 660.092 310.55C576.161 308.329 486.936 329.622 387.319 375.642C330.775 401.765 273.785 433.744 217.929 470.69C165.132 505.614 115.284 542.421 67.0774 578.019C39.7047 598.23 12.9043 618.018 -14 637.201V639.568C13.4895 619.997 40.8541 599.8 68.8111 579.155C116.998 543.576 166.821 506.783 219.568 471.892C275.32 435.017 332.197 403.1 388.619 377.035C487.793 331.218 576.544 310.019 659.945 312.226C725.975 313.973 792.087 329.646 868.001 361.554C928.959 387.174 985.917 417.344 1048.73 451.275C1119.96 489.585 1177.33 518.679 1234.74 545.618C1309.39 580.642 1390.8 616.391 1480.28 640.596C1560.63 662.523 1644.32 669.974 1722.3 662.143C1804.95 653.842 1876.42 628.473 1928.97 588.778C1930.69 587.477 1932.36 586.203 1934 584.94V582.453Z" fill="url(#paint41_linear_579_128)"/>
<path d="M1934 547.84C1927.44 552.747 1920.06 557.966 1911.4 563.836C1807.07 634.534 1637.52 650.368 1468.92 605.158C1380.74 581.743 1299.51 548.003 1223.87 515.451C1166.5 490.764 1107.18 463.704 1037.18 430.295C980.405 403.057 919.675 374.49 856.301 350.887C779.002 322.1 715.034 308.995 648.888 308.394C566.61 307.646 478.113 328.823 378.343 373.134C321.801 398.244 264.442 428.61 207.861 463.386C157.333 494.444 109.289 526.803 62.8259 558.096C36.8947 575.561 11.4498 592.686 -14 609.348V611.622C12.0042 594.619 37.9889 577.131 64.48 559.288C110.924 528.009 158.948 495.664 209.434 464.633C265.918 429.915 323.173 399.604 379.606 374.543C478.959 330.416 567.014 309.328 648.802 310.07C714.547 310.669 778.18 323.714 855.126 352.371C918.395 375.931 979.063 404.472 1035.78 431.685C1105.82 465.107 1165.17 492.181 1222.57 516.883C1298.31 549.475 1379.64 583.263 1468.01 606.728C1547.6 628.066 1630.4 636.074 1707.48 629.887C1789.01 623.34 1860.1 600.91 1913.06 565.024C1920.99 559.65 1927.85 554.818 1934 550.271L1934 547.84Z" fill="url(#paint42_linear_579_128)"/>
<path d="M1934 515.097C1921.79 524.04 1908.32 532.357 1895.59 540.013C1790.82 603.011 1622.63 614.995 1456.63 571.286C1369.72 548.644 1289.35 517.146 1211.62 486.685C1152.9 463.67 1093.32 439.51 1024.12 410.651C967.654 386.954 906.669 362.195 843.316 341.665C765.986 316.604 702.567 305.678 637.684 306.238C557.141 306.936 469.373 327.997 369.365 370.624C312.853 394.711 255.129 423.464 197.8 456.082C150.552 482.964 105.287 510.639 61.5126 537.403C36.0311 552.982 10.9912 568.29 -14 583.199V585.378C11.5139 570.174 37.0652 554.555 63.0775 538.651C106.839 511.897 152.086 484.232 199.298 457.371C256.542 424.801 314.173 396.096 370.59 372.048C470.21 329.588 557.568 308.61 637.658 307.915C702.168 307.358 765.266 318.236 842.26 343.186C905.513 363.685 966.43 388.418 1022.84 412.092C1092.06 440.962 1151.66 465.13 1210.4 488.15C1288.21 518.641 1368.66 550.173 1455.74 572.857C1622.56 616.782 1791.69 604.68 1897.14 541.273C1909.33 533.943 1922.18 526.001 1934 517.479V515.097Z" fill="url(#paint43_linear_579_128)"/>
<path d="M1934 484.463C1929.07 487.785 1924.06 491.059 1918.93 494.285C1907.12 501.708 1894.22 508.598 1879.78 516.193C1774.66 571.523 1607.81 579.654 1444.35 537.414C1368.3 517.985 1296.17 492.332 1226.42 467.521C1217.36 464.302 1208.34 461.095 1199.37 457.92C1129.11 433.06 1067.51 411.172 1011.05 391.006C962.543 373.55 898.171 351.117 830.324 332.442C778.202 318.093 707.928 301.903 626.474 304.084C547.772 306.193 460.733 327.136 360.39 368.113C303.974 391.15 245.883 418.289 187.737 448.778C145.256 471.052 104.212 493.717 64.5198 515.635C38.0246 530.264 11.9717 544.644 -14 558.652V560.752C12.4603 546.495 38.9953 531.846 65.9914 516.94C105.672 495.029 146.705 472.372 189.16 450.111C247.23 419.661 305.238 392.558 361.573 369.554C461.56 328.724 548.222 307.859 626.515 305.759C707.523 303.59 777.489 319.715 829.396 334.004C897.145 352.652 961.45 375.06 1009.91 392.5C1066.38 412.669 1127.98 434.559 1198.24 459.418C1207.22 462.594 1216.23 465.799 1225.28 469.02C1295.1 493.85 1367.29 519.528 1443.47 538.987C1607.69 581.426 1775.42 573.2 1881.21 517.523C1895.69 509.902 1908.64 502.987 1920.52 495.517C1925.1 492.637 1929.58 489.71 1934 486.752V484.463Z" fill="url(#paint44_linear_579_128)"/>
<path d="M1934 456.454C1924.23 462.302 1914.21 467.999 1903.82 473.507C1892.66 479.417 1880.8 484.775 1868.25 490.447L1863.99 492.373C1758.61 540.074 1593.11 544.353 1432.07 503.541C1366.79 487.2 1304.04 466.877 1243.35 447.221C1224.84 441.228 1205.71 435.03 1187.12 429.156C1115.76 406.597 1051.46 387.282 997.971 371.363C930.876 351.205 873.475 335.908 817.33 323.22C765.07 311.411 694.876 298.322 615.271 301.931C537.476 305.457 453.632 325.69 351.412 365.603C295.152 387.571 236.697 413.099 177.677 441.475C142.243 458.511 107.656 475.673 74.2087 492.269C44.4303 507.044 15.1616 521.564 -14 535.662V537.685C15.6161 523.38 45.3361 508.634 75.5804 493.628C109.018 477.035 143.596 459.878 179.018 442.848C237.974 414.502 296.363 389.004 352.555 367.062C454.444 327.278 537.956 307.115 615.371 303.605C694.572 300.014 764.481 313.054 816.54 324.816C872.613 337.488 929.947 352.769 996.978 372.905C1050.46 388.822 1114.74 408.133 1186.08 430.685C1204.66 436.559 1223.79 442.753 1242.29 448.745C1303.03 468.416 1365.83 488.754 1431.2 505.121C1592.94 546.108 1759.26 541.76 1865.27 493.772L1869.52 491.848C1882.12 486.158 1894.02 480.784 1905.25 474.834C1915.14 469.593 1924.68 464.182 1934 458.639L1934 456.454Z" fill="url(#paint45_linear_579_128)"/>
<path d="M1934 431.257C1919.38 438.728 1904.38 445.912 1888.72 452.731C1878.91 457.002 1868.62 460.866 1857.74 464.958C1854.58 466.141 1851.4 467.336 1848.2 468.554C1741.1 509.282 1580.95 509.697 1419.79 469.668C1365.26 456.299 1312.17 440.572 1260.83 425.363C1231.18 416.578 1203.18 408.284 1174.86 400.39C1100.66 379.706 1034.35 363.516 984.886 351.721C923.765 336.977 864.705 324.639 804.33 314C748.601 304.183 681.226 294.815 604.061 299.778C528.464 304.637 445.333 324.756 342.439 363.093C286.525 383.924 227.707 407.839 167.619 434.172C142.893 445.009 118.437 455.869 94.7869 466.37C58.0208 482.696 21.9422 498.703 -14 514.133V516.083C22.3627 500.485 58.8536 484.296 96.0523 467.779C119.698 457.278 144.15 446.422 168.872 435.586C228.909 409.274 287.675 385.379 343.539 364.567C446.131 326.344 528.968 306.287 604.23 301.447C681.033 296.508 748.158 305.844 803.691 315.629C863.998 326.253 922.996 338.579 984.055 353.309C1033.5 365.098 1099.77 381.281 1173.92 401.947C1202.22 409.836 1230.21 418.129 1259.85 426.909C1311.22 442.128 1364.34 457.865 1418.94 471.251C1495.48 490.264 1574.92 500.497 1648.64 500.844C1725.95 501.208 1795.34 490.549 1849.32 470.022C1852.52 468.806 1855.69 467.612 1858.84 466.429C1869.77 462.326 1880.09 458.447 1889.96 454.147C1905.19 447.519 1919.77 440.548 1934 433.309V431.257Z" fill="url(#paint46_linear_579_128)"/>
<path d="M1934 408.855C1914.48 417.021 1894.55 424.74 1873.64 431.958C1864.96 434.952 1855.96 437.643 1846.45 440.493C1841.84 441.873 1837.16 443.274 1832.43 444.737C1725.86 477.678 1567.01 474.335 1407.51 435.797C1364.31 425.36 1321.72 413.765 1280.53 402.551C1239.79 391.461 1201.31 380.984 1162.6 371.628C1087.33 353.433 1021.09 340.938 971.795 332.086C916.479 321.998 859.131 313.323 791.321 304.787C735.233 297.726 667.792 291.352 592.857 297.624C518.741 303.827 438.74 323.246 333.463 360.583C277.607 380.393 220.07 402.075 157.568 426.87L134.99 435.833C84.5331 455.868 35.174 475.452 -14 493.996V495.886C35.562 477.211 85.2977 457.478 136.149 437.285L158.724 428.323C221.193 403.543 278.698 381.872 334.52 362.075C439.527 324.833 519.271 305.469 593.089 299.29C667.709 293.045 734.93 299.398 790.844 306.438C858.59 314.965 915.879 323.633 971.139 333.71C1020.4 342.555 1086.58 355.037 1161.76 373.212C1200.43 382.559 1238.89 393.029 1279.61 404.116C1320.82 415.335 1363.43 426.936 1406.67 437.38C1566.74 476.058 1726.25 479.378 1833.36 446.268C1838.09 444.806 1842.76 443.409 1847.36 442.032C1856.9 439.173 1865.93 436.473 1874.67 433.456C1895.22 426.365 1914.81 418.789 1934 410.789L1934 408.855Z" fill="url(#paint47_linear_579_128)"/>
<path d="M1934 389.17C1908.28 397.549 1883.92 404.634 1858.56 411.191C1850.83 413.191 1842.9 414.963 1834.51 416.838C1828.67 418.143 1822.71 419.476 1816.66 420.923C1710.51 446.313 1552.96 439.212 1395.22 401.924C1363.31 394.381 1331.53 386.34 1300.78 378.563C1248.74 365.4 1199.58 352.963 1150.33 342.865C1074.2 327.252 1007.93 318.41 958.699 312.453C901.907 305.42 845.514 300.621 778.312 295.575C718.808 291.107 653.795 288.001 581.646 295.473C490.97 304.861 400.767 332.385 324.49 358.073C270.763 376.167 214.527 395.706 147.514 419.57C93.6725 438.744 40.1154 457.535 -14 475.256V477.094C40.4791 459.269 94.3819 440.356 148.574 421.061C215.572 397.203 271.791 377.667 325.502 359.579C401.611 333.949 491.599 306.487 581.948 297.132C653.83 289.69 718.656 292.786 778.002 297.242C845.154 302.283 901.5 307.081 958.231 314.104C1007.4 320.056 1073.59 328.885 1149.61 344.476C1198.78 354.561 1247.91 366.986 1299.91 380.143C1330.67 387.921 1362.47 395.966 1394.4 403.515C1552.62 440.915 1710.75 448.015 1817.4 422.509C1823.43 421.064 1829.38 419.736 1835.2 418.434C1843.62 416.552 1851.57 414.776 1859.36 412.763C1884.45 406.27 1908.59 399.265 1934 391.006V389.17H1934Z" fill="url(#paint48_linear_579_128)"/>
<path d="M1934 371.894C1904.49 378.862 1874.91 384.908 1843.5 390.433C1836.58 391.649 1829.54 392.696 1822.09 393.805C1815.23 394.828 1808.12 395.885 1800.9 397.115C1695.58 415.057 1539.33 404.192 1382.94 368.052C1362.51 363.33 1341.97 358.446 1322.11 353.722C1258.37 338.566 1198.18 324.25 1138.07 314.106C1078.08 303.978 1018.72 297.416 945.601 292.826C891.961 289.311 839.67 288.097 784.31 286.811L765.301 286.368C708.99 285.03 642.849 284.353 570.439 293.321C484.63 303.949 397.208 329.516 315.517 355.563L267.919 370.749C222.385 385.283 179.375 399.01 137.468 412.269C82.952 429.518 32.9841 444.517 -14 457.681V459.477C33.2642 446.243 83.5428 431.157 138.423 413.794C180.334 400.533 223.346 386.806 268.884 372.27L316.481 357.086C398.021 331.086 485.269 305.568 570.807 294.974C642.987 286.033 708.976 286.709 765.163 288.045L784.177 288.488C839.5 289.772 891.753 290.985 945.325 294.497C1018.33 299.08 1077.58 305.629 1137.45 315.736C1197.45 325.862 1257.6 340.167 1321.28 355.311C1341.15 360.035 1361.69 364.921 1382.13 369.645C1538.94 405.879 1695.68 416.757 1801.42 398.744C1808.61 397.52 1815.7 396.466 1822.55 395.446C1830.02 394.333 1837.07 393.282 1844.04 392.056C1875.26 386.567 1904.67 380.565 1934 373.654L1934 371.894Z" fill="url(#paint49_linear_579_128)"/>
<path d="M1934 356.892C1901.78 361.791 1867.64 365.905 1828.44 369.681C1822.23 370.282 1815.97 370.756 1809.33 371.259C1801.52 371.852 1793.43 372.464 1785.14 373.314C1679.8 384.121 1528.72 369.856 1370.66 334.179C1361.96 332.216 1353.28 330.247 1344.63 328.283C1268.8 311.076 1197.17 294.823 1125.8 285.347C1065.27 277.307 1005.64 273.561 932.498 273.204C887.384 272.863 843.803 274.271 797.664 275.761C782.708 276.244 767.608 276.732 752.281 277.164C689.325 278.937 627.187 281.34 559.227 291.17C475.67 303.259 388.583 328.37 306.547 353.053C244.069 371.853 183.801 389.321 127.419 404.97C78.6315 418.512 31.7179 430.571 -14 441.3V443.056C31.9874 432.276 79.1826 420.152 128.269 406.527C184.672 390.87 244.961 373.397 307.461 354.592C389.382 329.942 476.333 304.87 559.668 292.812C627.444 283.009 689.475 280.609 752.327 278.84C767.658 278.409 782.761 277.921 797.722 277.437C843.825 275.948 887.374 274.542 932.421 274.88C1005.42 275.239 1064.91 278.973 1125.3 286.993C1196.52 296.453 1268.07 312.689 1343.84 329.88C1352.49 331.843 1361.17 333.812 1369.87 335.777C1528.27 371.53 1679.75 385.817 1785.45 374.974C1793.68 374.128 1801.75 373.516 1809.54 372.926C1816.19 372.421 1822.47 371.946 1828.72 371.343C1867.79 367.578 1901.86 363.477 1934 358.6L1934 356.892Z" fill="url(#paint50_linear_579_128)"/>
<path d="M1934 343.907C1895.99 346.74 1857.48 348.054 1813.38 348.942C1807.79 349.056 1802.08 349.082 1796.26 349.109C1787.59 349.148 1778.63 349.19 1769.39 349.52C1665.89 353.226 1516.09 335.29 1358.37 300.306C1277.79 282.679 1194.47 264.453 1113.54 256.589C1052.48 250.657 992.596 249.731 919.395 253.587C879.005 255.613 840.209 259.096 799.135 262.78C779.681 264.525 759.563 266.33 739.266 267.965L732.27 268.53C674.325 273.186 614.409 278.003 548.018 289.021C468.046 302.295 384.799 325.857 304.294 348.643L297.575 350.544C237.072 367.663 176.442 383.521 117.374 397.674C73.0204 408.301 29.4274 417.732 -14 426.069V427.803C29.6725 419.429 73.5082 409.948 118.113 399.26C177.225 385.096 237.896 369.228 298.441 352.096L305.159 350.194C385.579 327.432 468.737 303.895 548.529 290.651C614.775 279.658 674.62 274.846 732.495 270.194L739.491 269.633C759.804 267.994 779.93 266.189 799.392 264.444C840.432 260.762 879.194 257.284 919.521 255.261C992.546 251.412 1052.26 252.335 1113.15 258.252C1193.89 266.095 1277.12 284.301 1357.6 301.907C1515.57 336.947 1665.69 354.912 1769.46 351.195C1778.65 350.866 1787.58 350.825 1796.22 350.786C1802.06 350.759 1807.78 350.733 1813.4 350.619C1857.48 349.729 1895.99 348.419 1934 345.593L1934 343.907Z" fill="url(#paint51_linear_579_128)"/>
<path d="M1934 332.671C1885.62 332.83 1839.98 330.424 1798.32 328.214C1793.28 327.948 1788.17 327.617 1782.96 327.279C1773.53 326.669 1763.76 326.037 1753.64 325.734C1653.82 322.741 1509.09 301.681 1346.09 266.434C1271.16 250.451 1184.27 232.967 1101.27 227.835C1039.71 224.028 979.572 225.922 906.294 233.977C868.77 238.014 832.882 243.326 794.884 248.95C772.609 252.248 749.574 255.657 726.251 258.771C716.812 260.033 707.24 261.288 697.535 262.56C646.654 269.228 594.044 276.125 536.812 286.874C469.744 299.468 399.653 318.28 331.869 336.473C317.457 340.342 303.03 344.214 288.604 348.036C228.744 363.898 167.755 378.144 107.33 390.379C67.1212 398.521 26.8479 405.639 -14 411.81V413.518C27.0606 407.322 67.5417 400.172 107.956 391.988C168.443 379.74 229.495 365.481 289.419 349.601C303.847 345.779 318.275 341.907 332.692 338.037C400.416 319.86 470.445 301.062 537.391 288.491C594.529 277.762 647.094 270.871 697.93 264.208C707.637 262.935 717.213 261.68 726.655 260.419C750 257.3 773.048 253.889 795.335 250.59C833.296 244.971 869.156 239.665 906.616 235.634C979.695 227.601 1039.64 225.711 1101.01 229.507C1183.77 234.624 1270.52 252.079 1345.33 268.037C1508.52 303.326 1653.47 324.41 1753.48 327.409C1763.55 327.711 1773.28 328.341 1782.69 328.95C1787.9 329.287 1793.03 329.619 1798.08 329.887C1839.81 332.099 1885.52 334.509 1934 334.35V332.671H1934Z" fill="url(#paint52_linear_579_128)"/>
<path d="M1934 323.11C1885.12 320.08 1838.48 314.319 1789.82 308.305L1783.25 307.493C1778.74 306.936 1774.19 306.336 1769.57 305.727C1759.38 304.384 1748.85 302.996 1737.88 301.954C1616.28 290.415 1449.03 256.826 1333.8 232.561C1260.29 217.283 1173.71 201.358 1089 199.084C1026.93 197.418 966.54 202.133 893.198 214.372C857.449 220.259 823.38 227.304 787.31 234.762C763.284 239.729 738.439 244.866 713.238 249.582C694.686 253.056 675.885 256.417 655.978 259.977C614.377 267.416 571.355 275.109 525.6 284.725C472.559 295.87 417.088 310.247 363.445 324.147C336.012 331.257 307.646 338.608 279.636 345.528C220.048 360.247 158.696 372.882 97.2866 383.085C60.5879 389.183 23.722 394.333 -14.001 398.589V400.283C23.8949 396.013 60.9305 390.844 97.7964 384.718C159.291 374.5 220.727 361.846 280.394 347.106C308.427 340.183 336.802 332.828 364.241 325.719C417.85 311.825 473.283 297.461 526.251 286.331C571.954 276.724 614.95 269.035 656.528 261.601C676.442 258.041 695.25 254.677 713.814 251.202C739.045 246.479 763.907 241.339 787.948 236.37C823.983 228.919 858.021 221.881 893.705 216.004C966.827 203.802 1027.01 199.098 1088.85 200.759C1173.3 203.027 1259.69 218.922 1333.07 234.17C1448.36 258.448 1615.73 292.062 1737.5 303.616C1748.41 304.652 1758.91 306.035 1769.06 307.375C1773.69 307.985 1778.26 308.587 1782.77 309.144L1789.35 309.958C1838.15 315.988 1884.93 321.767 1934 324.798V323.11Z" fill="url(#paint53_linear_579_128)"/>
<path d="M1934 314.932C1882.11 308.61 1833.08 299.223 1781.81 289.392L1768.16 286.777C1764.18 286.017 1760.17 285.226 1756.11 284.429C1745.19 282.278 1733.9 280.056 1722.12 278.182C1638.7 264.923 1536.99 243.632 1429.31 221.092C1393.92 213.682 1357.33 206.023 1321.52 198.689C1221.88 178.533 1146.39 169.789 1076.73 170.331C1014.17 170.823 953.528 178.361 880.103 194.772C845.482 202.441 811.054 211.59 777.764 220.435C752.618 227.117 726.619 234.025 700.228 240.396C668.947 247.949 636.321 255.188 601.779 262.853C573.61 269.102 544.485 275.562 514.389 282.577C477.03 291.285 439.823 300.829 400.434 310.932C358.072 321.798 314.268 333.033 270.665 343.019C211.191 356.641 149.478 367.666 87.2447 375.793C52.9599 380.271 19.1751 383.668 -14.001 386.204V387.889C19.3001 385.346 53.2156 381.939 87.6376 377.443C149.977 369.301 211.795 358.254 271.371 344.609C315.015 334.616 358.84 323.375 401.222 312.503C440.592 302.407 477.78 292.867 515.112 284.166C545.187 277.156 574.303 270.696 602.461 264.449C637.021 256.782 669.661 249.54 700.973 241.979C727.398 235.6 753.417 228.687 778.578 222.001C811.839 213.163 846.234 204.024 880.789 196.369C953.977 180.01 1014.4 172.498 1076.71 172.01C1146.11 171.467 1221.39 180.192 1320.8 200.3C1356.59 207.63 1393.18 215.291 1428.57 222.7C1536.29 245.249 1638.03 266.546 1721.53 279.817C1733.26 281.681 1744.52 283.898 1755.41 286.043C1759.47 286.844 1763.49 287.634 1767.48 288.397L1781.12 291.009C1832.6 300.882 1881.83 310.308 1934 316.643L1934 314.932Z" fill="url(#paint54_linear_579_128)"/>
<path d="M1934 308.04C1877.39 298.022 1824.5 284.437 1769.04 270.172L1753.07 266.067C1749.68 265.197 1746.26 264.311 1742.83 263.418C1731.11 260.372 1718.99 257.221 1706.35 254.414C1667.2 245.72 1624.1 235.579 1578.48 224.843C1495.12 205.23 1400.65 183.001 1309.24 164.817C1213.4 145.965 1135.62 138.583 1064.47 141.585C1001.42 144.244 940.527 154.604 867.018 175.174C833.066 184.618 799.388 195.556 766.823 206.135C741.005 214.519 714.309 223.19 687.226 231.213C635.881 246.424 580.065 260.729 520.969 275.872L503.183 280.431C483.923 285.373 464.035 290.594 444.802 295.643C385.3 311.263 323.774 327.412 261.7 340.511C202.248 353.054 140.177 362.474 77.2062 368.505C46.5081 371.446 16.0998 373.464 -14 374.735V376.414C16.1875 375.139 46.6883 373.118 77.4813 370.168C140.579 364.124 202.777 354.686 262.35 342.117C324.501 329 386.067 312.839 445.606 297.21C464.835 292.162 484.719 286.941 503.97 282.002L521.757 277.443C580.88 262.293 636.728 247.983 688.126 232.756C715.248 224.719 741.964 216.043 767.799 207.651C800.335 197.082 833.979 186.154 867.871 176.729C941.125 156.231 1001.79 145.907 1064.56 143.259C1135.44 140.268 1212.96 147.631 1308.53 166.43C1399.88 184.603 1494.33 206.828 1577.66 226.434C1623.29 237.172 1666.4 247.314 1705.57 256.013C1718.16 258.808 1730.25 261.952 1741.94 264.989C1745.38 265.885 1748.8 266.772 1752.19 267.644L1768.16 271.746C1823.9 286.082 1877.04 299.731 1934 309.779L1934 308.04Z" fill="url(#paint55_linear_579_128)"/>
<path d="M1934 302.295C1870.87 287.86 1810.93 268.701 1752.77 250.095L1729.97 242.799C1717.3 238.734 1704.21 234.529 1690.57 230.65L1678.07 227.093C1568.1 195.801 1431.24 156.859 1296.96 130.944C1203.12 113.016 1125.35 107.26 1052.2 112.839C988.676 117.682 927.53 130.863 853.939 155.58C820.323 166.821 787.06 179.593 754.892 191.945C728.714 201.996 701.646 212.39 674.225 222.034C624.623 239.48 568.413 256.828 491.974 278.284C423.151 297.604 337.501 321.647 252.728 338.003C193.24 349.481 130.806 357.292 67.1634 361.217C39.9239 362.898 12.8451 363.789 -14 364.054V365.731C12.8954 365.466 40.0262 364.573 67.3209 362.89C131.113 358.953 193.693 351.124 253.324 339.62C338.231 323.237 423.951 299.174 492.829 279.838C569.338 258.364 625.605 240.997 675.272 223.529C702.732 213.869 729.823 203.467 756.018 193.409C788.156 181.069 821.39 168.308 854.943 157.086C928.275 132.459 989.176 119.326 1052.41 114.506C1125.24 108.952 1202.73 114.689 1296.27 132.563C1430.41 158.448 1567.2 197.371 1677.11 228.647L1689.62 232.205C1703.2 236.069 1716.28 240.266 1728.92 244.325L1751.72 251.621C1810.19 270.326 1870.46 289.587 1934 304.071V302.295Z" fill="url(#paint56_linear_579_128)"/>
<path d="M1934 297.621C1863.83 278.245 1797.52 253.042 1733.27 228.616L1717.89 222.771C1704.02 217.495 1689.67 212.038 1674.78 206.891C1566.67 169.503 1424.63 123.231 1284.67 97.0725C1193.78 80.2218 1113.72 75.9763 1039.93 84.094C975.946 91.132 914.552 107.137 840.865 135.985C807.343 149.074 774.247 163.743 742.235 177.929C715.93 189.588 688.726 201.644 661.232 212.858C607.586 234.735 548.555 255.433 480.766 276.138C416.914 295.643 332.27 320.016 243.763 335.498C184.23 345.908 121.435 352.111 57.1182 353.934C33.2926 354.608 9.58216 354.649 -14 354.168V355.847C9.59515 356.326 33.3202 356.285 57.1637 355.61C121.644 353.782 184.605 347.562 244.3 337.123C332.988 321.61 417.751 297.203 481.691 277.672C549.569 256.941 608.685 236.211 662.415 214.299C689.95 203.069 717.172 191.005 743.498 179.338C775.479 165.163 808.548 150.509 842.011 137.443C915.43 108.699 976.569 92.7555 1040.26 85.7516C1113.71 77.6697 1193.44 81.9038 1284 98.6944C1423.76 124.814 1565.66 171.042 1673.67 208.395C1688.51 213.53 1702.84 218.977 1716.7 224.248L1732.08 230.091C1796.68 254.649 1863.35 279.991 1934 299.434V297.621Z" fill="url(#paint57_linear_579_128)"/>
<path d="M1934 293.86C1855.59 268.73 1781.88 236.451 1710.56 205.193L1707.72 203.948C1692.08 197.095 1675.91 190.008 1658.99 183.131C1563.77 144.431 1420.1 89.8948 1272.39 63.2007C1182.93 47.1278 1102.88 44.561 1027.67 55.351C963.214 64.597 901.574 83.4218 827.802 116.394C794.183 131.392 761.051 148.04 729.011 164.137C702.754 177.328 675.605 190.971 648.242 203.68C593.222 229.241 533.102 252.897 469.559 273.995C383.202 302.462 306.41 321.759 234.795 332.989C174.81 342.396 113.406 346.865 47.0763 346.65C26.5996 346.538 6.24946 345.95 -14 344.959V346.643C6.22511 347.63 26.5525 348.213 47.0065 348.327C113.524 348.543 175.107 344.062 235.273 334.626C307.069 323.368 384.028 304.03 470.552 275.505C534.205 254.375 594.429 230.676 649.55 205.07C676.947 192.341 704.117 178.692 730.391 165.491C762.405 149.407 795.508 132.774 829.072 117.8C902.576 84.9479 963.959 66.1962 1028.1 56.9924C1102.95 46.2543 1182.64 48.8163 1271.74 64.8243C1419.16 91.468 1562.64 145.934 1657.73 184.584C1674.63 191.45 1690.78 198.528 1706.4 205.373L1709.24 206.617C1780.94 238.044 1855.06 270.504 1934 295.726V293.86Z" fill="url(#paint58_linear_579_128)"/>
<path d="M1934 291.01C1932.74 290.555 1931.49 290.11 1930.24 289.651C1848.8 259.862 1771.35 222.321 1692.58 183.243C1676.87 175.491 1660.11 167.261 1643.18 159.371C1495.34 90.4484 1373.61 49.128 1260.11 29.3274C1172.15 14.0338 1092.11 13.1457 1015.4 26.6096C950.265 38.187 888.378 59.8368 814.744 96.8013C780.858 113.8 747.531 132.519 715.299 150.625C689.246 165.257 662.311 180.387 635.261 194.505C578.365 224.2 518.842 250.223 458.35 271.854C378.365 300.346 300.134 320.072 225.829 330.482C165.855 338.72 102.332 341.709 37.0285 339.366C19.9884 338.736 2.98234 337.738 -14.001 336.442V338.134C2.92227 339.422 19.8682 340.415 36.8499 341.043C102.351 343.393 166.074 340.392 226.251 332.127C300.776 321.686 379.224 301.907 459.408 273.341C520.029 251.668 579.67 225.591 636.678 195.838C663.765 181.702 690.717 166.561 716.786 151.92C748.992 133.829 782.294 115.123 816.124 98.1553C889.496 61.3207 951.123 39.757 1015.95 28.2348C1092.25 14.8407 1171.91 15.7304 1259.47 30.9558C1372.7 50.7077 1494.2 91.9567 1641.81 160.772C1658.71 168.649 1675.46 176.874 1691.16 184.616C1769.99 223.726 1847.51 261.304 1929.08 291.139C1930.72 291.742 1932.36 292.325 1934 292.917L1934 291.01Z" fill="url(#paint59_linear_579_128)"/>
<path d="M1273.31 0H1264.29C1410.32 27.7072 1550.39 94.9229 1675.92 163.861C1761.79 211.018 1847.27 255.831 1934 290.732V288.772C1847.81 253.993 1762.82 209.424 1677.44 162.535C1554.08 94.7914 1416.7 28.7137 1273.31 0Z" fill="url(#paint60_linear_579_128)"/>
<path d="M993.459 0C881.34 25.5592 789.787 82.4006 701.176 137.432C675.462 153.398 648.876 169.907 622.287 185.329C486.852 263.874 350.448 311.869 216.864 327.977C139.709 337.282 62.1571 336.15 -14 328.484V330.187C62.2496 337.839 139.916 338.954 217.223 329.63C351.237 313.468 488.032 265.348 623.805 186.607C650.426 171.167 677.029 154.648 702.754 138.672C793.081 82.5792 886.471 24.6046 1001.41 0H993.459Z" fill="url(#paint61_linear_579_128)"/>
<defs>
<linearGradient id="paint0_linear_579_128" x1="1596.97" y1="827.547" x2="1596.97" y2="1380" gradientUnits="userSpaceOnUse">
<stop offset="0.1" stop-color="#121212" stop-opacity="0.05"/>
<stop offset="1" stop-color="#121212" stop-opacity="0.1"/>
</linearGradient>
<linearGradient id="paint1_linear_579_128" x1="-4.68288" y1="1372.05" x2="-4.68288" y2="1380" gradientUnits="userSpaceOnUse">
<stop offset="0.1" stop-color="#121212" stop-opacity="0.05"/>
<stop offset="1" stop-color="#121212" stop-opacity="0.1"/>
</linearGradient>
<linearGradient id="paint2_linear_579_128" x1="48.9861" y1="1327.2" x2="48.9861" y2="1380" gradientUnits="userSpaceOnUse">
<stop offset="0.1" stop-color="#121212" stop-opacity="0.05"/>
<stop offset="1" stop-color="#121212" stop-opacity="0.1"/>
</linearGradient>
<linearGradient id="paint3_linear_579_128" x1="1595.49" y1="811.353" x2="1595.49" y2="1380" gradientUnits="userSpaceOnUse">
<stop offset="0.1" stop-color="#121212" stop-opacity="0.05"/>
<stop offset="1" stop-color="#121212" stop-opacity="0.1"/>
</linearGradient>
<linearGradient id="paint4_linear_579_128" x1="1592.36" y1="795.326" x2="1592.36" y2="1380" gradientUnits="userSpaceOnUse">
<stop offset="0.1" stop-color="#121212" stop-opacity="0.05"/>
<stop offset="1" stop-color="#121212" stop-opacity="0.1"/>
</linearGradient>
<linearGradient id="paint5_linear_579_128" x1="103.606" y1="1284" x2="103.606" y2="1380" gradientUnits="userSpaceOnUse">
<stop offset="0.1" stop-color="#121212" stop-opacity="0.05"/>
<stop offset="1" stop-color="#121212" stop-opacity="0.1"/>
</linearGradient>
<linearGradient id="paint6_linear_579_128" x1="1587.09" y1="780.094" x2="1587.09" y2="1380" gradientUnits="userSpaceOnUse">
<stop offset="0.1" stop-color="#121212" stop-opacity="0.05"/>
<stop offset="1" stop-color="#121212" stop-opacity="0.1"/>
</linearGradient>
<linearGradient id="paint7_linear_579_128" x1="159.637" y1="1242.54" x2="159.637" y2="1380" gradientUnits="userSpaceOnUse">
<stop offset="0.1" stop-color="#121212" stop-opacity="0.05"/>
<stop offset="1" stop-color="#121212" stop-opacity="0.1"/>
</linearGradient>
<linearGradient id="paint8_linear_579_128" x1="1578.89" y1="765.674" x2="1578.89" y2="1380" gradientUnits="userSpaceOnUse">
<stop offset="0.1" stop-color="#121212" stop-opacity="0.05"/>
<stop offset="1" stop-color="#121212" stop-opacity="0.1"/>
</linearGradient>
<linearGradient id="paint9_linear_579_128" x1="216.569" y1="1202.74" x2="216.569" y2="1380" gradientUnits="userSpaceOnUse">
<stop offset="0.1" stop-color="#121212" stop-opacity="0.05"/>
<stop offset="1" stop-color="#121212" stop-opacity="0.1"/>
</linearGradient>
<linearGradient id="paint10_linear_579_128" x1="1566.24" y1="752.275" x2="1566.24" y2="1380" gradientUnits="userSpaceOnUse">
<stop offset="0.1" stop-color="#121212" stop-opacity="0.05"/>
<stop offset="1" stop-color="#121212" stop-opacity="0.1"/>
</linearGradient>
<linearGradient id="paint11_linear_579_128" x1="275.861" y1="1164.52" x2="275.861" y2="1380" gradientUnits="userSpaceOnUse">
<stop offset="0.1" stop-color="#121212" stop-opacity="0.05"/>
<stop offset="1" stop-color="#121212" stop-opacity="0.1"/>
</linearGradient>
<linearGradient id="paint12_linear_579_128" x1="1545.63" y1="740.073" x2="1545.63" y2="1380" gradientUnits="userSpaceOnUse">
<stop offset="0.1" stop-color="#121212" stop-opacity="0.05"/>
<stop offset="1" stop-color="#121212" stop-opacity="0.1"/>
</linearGradient>
<linearGradient id="paint13_linear_579_128" x1="340.051" y1="1128.16" x2="340.051" y2="1380" gradientUnits="userSpaceOnUse">
<stop offset="0.1" stop-color="#121212" stop-opacity="0.05"/>
<stop offset="1" stop-color="#121212" stop-opacity="0.1"/>
</linearGradient>
<linearGradient id="paint14_linear_579_128" x1="1501.86" y1="729.224" x2="1501.86" y2="1380" gradientUnits="userSpaceOnUse">
<stop offset="0.1" stop-color="#121212" stop-opacity="0.05"/>
<stop offset="1" stop-color="#121212" stop-opacity="0.1"/>
</linearGradient>
<linearGradient id="paint15_linear_579_128" x1="421.582" y1="1093.69" x2="421.582" y2="1380" gradientUnits="userSpaceOnUse">
<stop offset="0.1" stop-color="#121212" stop-opacity="0.05"/>
<stop offset="1" stop-color="#121212" stop-opacity="0.1"/>
</linearGradient>
<linearGradient id="paint16_linear_579_128" x1="960" y1="719.831" x2="960" y2="1351.94" gradientUnits="userSpaceOnUse">
<stop offset="0.1" stop-color="#121212" stop-opacity="0.05"/>
<stop offset="1" stop-color="#121212" stop-opacity="0.1"/>
</linearGradient>
<linearGradient id="paint17_linear_579_128" x1="960" y1="712.047" x2="960" y2="1313.81" gradientUnits="userSpaceOnUse">
<stop offset="0.1" stop-color="#121212" stop-opacity="0.05"/>
<stop offset="1" stop-color="#121212" stop-opacity="0.1"/>
</linearGradient>
<linearGradient id="paint18_linear_579_128" x1="959.999" y1="706.203" x2="959.999" y2="1276.68" gradientUnits="userSpaceOnUse">
<stop offset="0.1" stop-color="#121212" stop-opacity="0.05"/>
<stop offset="1" stop-color="#121212" stop-opacity="0.1"/>
</linearGradient>
<linearGradient id="paint19_linear_579_128" x1="960" y1="702.516" x2="960" y2="1240.8" gradientUnits="userSpaceOnUse">
<stop offset="0.1" stop-color="#121212" stop-opacity="0.05"/>
<stop offset="1" stop-color="#121212" stop-opacity="0.1"/>
</linearGradient>
<linearGradient id="paint20_linear_579_128" x1="959.999" y1="701.329" x2="959.999" y2="1206.35" gradientUnits="userSpaceOnUse">
<stop offset="0.1" stop-color="#121212" stop-opacity="0.05"/>
<stop offset="1" stop-color="#121212" stop-opacity="0.1"/>
</linearGradient>
<linearGradient id="paint21_linear_579_128" x1="960.001" y1="702.982" x2="960.001" y2="1173.46" gradientUnits="userSpaceOnUse">
<stop offset="0.1" stop-color="#121212" stop-opacity="0.05"/>
<stop offset="1" stop-color="#121212" stop-opacity="0.1"/>
</linearGradient>
<linearGradient id="paint22_linear_579_128" x1="960" y1="707.836" x2="960" y2="1142.49" gradientUnits="userSpaceOnUse">
<stop offset="0.1" stop-color="#121212" stop-opacity="0.05"/>
<stop offset="1" stop-color="#121212" stop-opacity="0.1"/>
</linearGradient>
<linearGradient id="paint23_linear_579_128" x1="960" y1="716.188" x2="960" y2="1113.8" gradientUnits="userSpaceOnUse">
<stop offset="0.1" stop-color="#121212" stop-opacity="0.05"/>
<stop offset="1" stop-color="#121212" stop-opacity="0.1"/>
</linearGradient>
<linearGradient id="paint24_linear_579_128" x1="960" y1="728.138" x2="960" y2="1087.33" gradientUnits="userSpaceOnUse">
<stop offset="0.1" stop-color="#121212" stop-opacity="0.05"/>
<stop offset="1" stop-color="#121212" stop-opacity="0.1"/>
</linearGradient>
<linearGradient id="paint25_linear_579_128" x1="960" y1="714.774" x2="960" y2="1063.02" gradientUnits="userSpaceOnUse">
<stop offset="0.1" stop-color="#121212" stop-opacity="0.05"/>
<stop offset="1" stop-color="#121212" stop-opacity="0.1"/>
</linearGradient>
<linearGradient id="paint26_linear_579_128" x1="960" y1="672.415" x2="960" y2="1040.71" gradientUnits="userSpaceOnUse">
<stop offset="0.1" stop-color="#121212" stop-opacity="0.05"/>
<stop offset="1" stop-color="#121212" stop-opacity="0.1"/>
</linearGradient>
<linearGradient id="paint27_linear_579_128" x1="960" y1="629.621" x2="960" y2="1020.15" gradientUnits="userSpaceOnUse">
<stop offset="0.1" stop-color="#121212" stop-opacity="0.05"/>
<stop offset="1" stop-color="#121212" stop-opacity="0.1"/>
</linearGradient>
<linearGradient id="paint28_linear_579_128" x1="960" y1="586.456" x2="960" y2="1000.88" gradientUnits="userSpaceOnUse">
<stop offset="0.1" stop-color="#121212" stop-opacity="0.05"/>
<stop offset="1" stop-color="#121212" stop-opacity="0.1"/>
</linearGradient>
<linearGradient id="paint29_linear_579_128" x1="960" y1="542.969" x2="960" y2="982.586" gradientUnits="userSpaceOnUse">
<stop offset="0.1" stop-color="#121212" stop-opacity="0.05"/>
<stop offset="1" stop-color="#121212" stop-opacity="0.1"/>
</linearGradient>
<linearGradient id="paint30_linear_579_128" x1="960" y1="499.159" x2="960" y2="965.081" gradientUnits="userSpaceOnUse">
<stop offset="0.1" stop-color="#121212" stop-opacity="0.05"/>
<stop offset="1" stop-color="#121212" stop-opacity="0.1"/>
</linearGradient>
<linearGradient id="paint31_linear_579_128" x1="960" y1="455.241" x2="960" y2="948.204" gradientUnits="userSpaceOnUse">
<stop offset="0.1" stop-color="#121212" stop-opacity="0.05"/>
<stop offset="1" stop-color="#121212" stop-opacity="0.1"/>
</linearGradient>
<linearGradient id="paint32_linear_579_128" x1="960" y1="410.997" x2="960" y2="931.545" gradientUnits="userSpaceOnUse">
<stop offset="0.1" stop-color="#121212" stop-opacity="0.05"/>
<stop offset="1" stop-color="#121212" stop-opacity="0.1"/>
</linearGradient>
<linearGradient id="paint33_linear_579_128" x1="960" y1="366.636" x2="960" y2="915.53" gradientUnits="userSpaceOnUse">
<stop offset="0.1" stop-color="#121212" stop-opacity="0.05"/>
<stop offset="1" stop-color="#121212" stop-opacity="0.1"/>
</linearGradient>
<linearGradient id="paint34_linear_579_128" x1="960" y1="322.191" x2="960" y2="899.892" gradientUnits="userSpaceOnUse">
<stop offset="0.1" stop-color="#121212" stop-opacity="0.05"/>
<stop offset="1" stop-color="#121212" stop-opacity="0.1"/>
</linearGradient>
<linearGradient id="paint35_linear_579_128" x1="960" y1="320.646" x2="960" y2="866.187" gradientUnits="userSpaceOnUse">
<stop offset="0.1" stop-color="#121212" stop-opacity="0.05"/>
<stop offset="1" stop-color="#121212" stop-opacity="0.1"/>
</linearGradient>
<linearGradient id="paint36_linear_579_128" x1="960" y1="319.104" x2="960" y2="832.523" gradientUnits="userSpaceOnUse">
<stop offset="0.1" stop-color="#121212" stop-opacity="0.05"/>
<stop offset="1" stop-color="#121212" stop-opacity="0.1"/>
</linearGradient>
<linearGradient id="paint37_linear_579_128" x1="960" y1="317.5" x2="960" y2="798.903" gradientUnits="userSpaceOnUse">
<stop offset="0.1" stop-color="#121212" stop-opacity="0.05"/>
<stop offset="1" stop-color="#121212" stop-opacity="0.1"/>
</linearGradient>
<linearGradient id="paint38_linear_579_128" x1="960" y1="315.833" x2="960" y2="765.338" gradientUnits="userSpaceOnUse">
<stop offset="0.1" stop-color="#121212" stop-opacity="0.05"/>
<stop offset="1" stop-color="#121212" stop-opacity="0.1"/>
</linearGradient>
<linearGradient id="paint39_linear_579_128" x1="960" y1="314.131" x2="960" y2="731.836" gradientUnits="userSpaceOnUse">
<stop offset="0.1" stop-color="#121212" stop-opacity="0.05"/>
<stop offset="1" stop-color="#121212" stop-opacity="0.1"/>
</linearGradient>
<linearGradient id="paint40_linear_579_128" x1="960" y1="312.314" x2="960" y2="698.671" gradientUnits="userSpaceOnUse">
<stop offset="0.1" stop-color="#121212" stop-opacity="0.05"/>
<stop offset="1" stop-color="#121212" stop-opacity="0.1"/>
</linearGradient>
<linearGradient id="paint41_linear_579_128" x1="960" y1="310.393" x2="960" y2="665.167" gradientUnits="userSpaceOnUse">
<stop offset="0.1" stop-color="#121212" stop-opacity="0.05"/>
<stop offset="1" stop-color="#121212" stop-opacity="0.1"/>
</linearGradient>
<linearGradient id="paint42_linear_579_128" x1="960" y1="308.375" x2="960" y2="631.919" gradientUnits="userSpaceOnUse">
<stop offset="0.1" stop-color="#121212" stop-opacity="0.05"/>
<stop offset="1" stop-color="#121212" stop-opacity="0.1"/>
</linearGradient>
<linearGradient id="paint43_linear_579_128" x1="960" y1="306.218" x2="960" y2="598.977" gradientUnits="userSpaceOnUse">
<stop offset="0.1" stop-color="#121212" stop-opacity="0.05"/>
<stop offset="1" stop-color="#121212" stop-opacity="0.1"/>
</linearGradient>
<linearGradient id="paint44_linear_579_128" x1="960" y1="303.885" x2="960" y2="565.89" gradientUnits="userSpaceOnUse">
<stop offset="0.1" stop-color="#121212" stop-opacity="0.05"/>
<stop offset="1" stop-color="#121212" stop-opacity="0.1"/>
</linearGradient>
<linearGradient id="paint45_linear_579_128" x1="960" y1="301.321" x2="960" y2="537.685" gradientUnits="userSpaceOnUse">
<stop offset="0.1" stop-color="#121212" stop-opacity="0.05"/>
<stop offset="1" stop-color="#121212" stop-opacity="0.1"/>
</linearGradient>
<linearGradient id="paint46_linear_579_128" x1="960" y1="298.406" x2="960" y2="516.083" gradientUnits="userSpaceOnUse">
<stop offset="0.1" stop-color="#121212" stop-opacity="0.05"/>
<stop offset="1" stop-color="#121212" stop-opacity="0.1"/>
</linearGradient>
<linearGradient id="paint47_linear_579_128" x1="960" y1="295.066" x2="960" y2="495.886" gradientUnits="userSpaceOnUse">
<stop offset="0.1" stop-color="#121212" stop-opacity="0.05"/>
<stop offset="1" stop-color="#121212" stop-opacity="0.1"/>
</linearGradient>
<linearGradient id="paint48_linear_579_128" x1="960.001" y1="290.968" x2="960.001" y2="477.094" gradientUnits="userSpaceOnUse">
<stop offset="0.1" stop-color="#121212" stop-opacity="0.05"/>
<stop offset="1" stop-color="#121212" stop-opacity="0.1"/>
</linearGradient>
<linearGradient id="paint49_linear_579_128" x1="960" y1="285.581" x2="960" y2="459.477" gradientUnits="userSpaceOnUse">
<stop offset="0.1" stop-color="#121212" stop-opacity="0.05"/>
<stop offset="1" stop-color="#121212" stop-opacity="0.1"/>
</linearGradient>
<linearGradient id="paint50_linear_579_128" x1="960" y1="273.153" x2="960" y2="443.056" gradientUnits="userSpaceOnUse">
<stop offset="0.1" stop-color="#121212" stop-opacity="0.05"/>
<stop offset="1" stop-color="#121212" stop-opacity="0.1"/>
</linearGradient>
<linearGradient id="paint51_linear_579_128" x1="960" y1="251.27" x2="960" y2="427.803" gradientUnits="userSpaceOnUse">
<stop offset="0.1" stop-color="#121212" stop-opacity="0.05"/>
<stop offset="1" stop-color="#121212" stop-opacity="0.1"/>
</linearGradient>
<linearGradient id="paint52_linear_579_128" x1="960.001" y1="225.945" x2="960.001" y2="413.518" gradientUnits="userSpaceOnUse">
<stop offset="0.1" stop-color="#121212" stop-opacity="0.05"/>
<stop offset="1" stop-color="#121212" stop-opacity="0.1"/>
</linearGradient>
<linearGradient id="paint53_linear_579_128" x1="959.999" y1="198.76" x2="959.999" y2="400.283" gradientUnits="userSpaceOnUse">
<stop offset="0.1" stop-color="#121212" stop-opacity="0.05"/>
<stop offset="1" stop-color="#121212" stop-opacity="0.1"/>
</linearGradient>
<linearGradient id="paint54_linear_579_128" x1="959.999" y1="170.307" x2="959.999" y2="387.889" gradientUnits="userSpaceOnUse">
<stop offset="0.1" stop-color="#121212" stop-opacity="0.05"/>
<stop offset="1" stop-color="#121212" stop-opacity="0.1"/>
</linearGradient>
<linearGradient id="paint55_linear_579_128" x1="960" y1="140.937" x2="960" y2="376.414" gradientUnits="userSpaceOnUse">
<stop offset="0.1" stop-color="#121212" stop-opacity="0.05"/>
<stop offset="1" stop-color="#121212" stop-opacity="0.1"/>
</linearGradient>
<linearGradient id="paint56_linear_579_128" x1="960" y1="110.792" x2="960" y2="365.731" gradientUnits="userSpaceOnUse">
<stop offset="0.1" stop-color="#121212" stop-opacity="0.05"/>
<stop offset="1" stop-color="#121212" stop-opacity="0.1"/>
</linearGradient>
<linearGradient id="paint57_linear_579_128" x1="960" y1="80.1049" x2="960" y2="356.167" gradientUnits="userSpaceOnUse">
<stop offset="0.1" stop-color="#121212" stop-opacity="0.05"/>
<stop offset="1" stop-color="#121212" stop-opacity="0.1"/>
</linearGradient>
<linearGradient id="paint58_linear_579_128" x1="960" y1="48.8235" x2="960" y2="348.334" gradientUnits="userSpaceOnUse">
<stop offset="0.1" stop-color="#121212" stop-opacity="0.05"/>
<stop offset="1" stop-color="#121212" stop-opacity="0.1"/>
</linearGradient>
<linearGradient id="paint59_linear_579_128" x1="960" y1="17.1421" x2="960" y2="341.818" gradientUnits="userSpaceOnUse">
<stop offset="0.1" stop-color="#121212" stop-opacity="0.05"/>
<stop offset="1" stop-color="#121212" stop-opacity="0.1"/>
</linearGradient>
<linearGradient id="paint60_linear_579_128" x1="1599.15" y1="0" x2="1599.15" y2="290.732" gradientUnits="userSpaceOnUse">
<stop offset="0.1" stop-color="#121212" stop-opacity="0.05"/>
<stop offset="1" stop-color="#121212" stop-opacity="0.1"/>
</linearGradient>
<linearGradient id="paint61_linear_579_128" x1="493.704" y1="0" x2="493.704" y2="336.276" gradientUnits="userSpaceOnUse">
<stop offset="0.1" stop-color="#121212" stop-opacity="0.05"/>
<stop offset="1" stop-color="#121212" stop-opacity="0.1"/>
</linearGradient>
</defs>
</svg>
