<svg width="175" height="50" viewBox="0 0 175 50" fill="none" xmlns="http://www.w3.org/2000/svg">
<path d="M56.28 42L47.2 13.2H52.16L59.76 37.32L67.46 13.2H72.42L63.34 42H56.28ZM75.0438 17.12V12.7H79.8638V17.12H75.0438ZM75.0438 42V20.4H79.8638V42H75.0438ZM94.1947 42.6C91.528 42.6 89.3614 42 87.6947 40.8C86.028 39.6 85.0147 37.9133 84.6547 35.74L89.5747 34.98C89.828 36.0467 90.388 36.8867 91.2547 37.5C92.1214 38.1133 93.2147 38.42 94.5347 38.42C95.6947 38.42 96.588 38.1933 97.2147 37.74C97.8547 37.2733 98.1747 36.64 98.1747 35.84C98.1747 35.3467 98.0547 34.9533 97.8147 34.66C97.588 34.3533 97.0814 34.06 96.2947 33.78C95.508 33.5 94.3014 33.1467 92.6747 32.72C90.8614 32.24 89.4214 31.7267 88.3547 31.18C87.288 30.62 86.5214 29.96 86.0547 29.2C85.588 28.44 85.3547 27.52 85.3547 26.44C85.3547 25.0933 85.708 23.92 86.4147 22.92C87.1214 21.92 88.108 21.1533 89.3747 20.62C90.6414 20.0733 92.1347 19.8 93.8547 19.8C95.5347 19.8 97.0214 20.06 98.3147 20.58C99.6214 21.1 100.675 21.84 101.475 22.8C102.275 23.76 102.768 24.8867 102.955 26.18L98.0347 27.06C97.9147 26.14 97.4947 25.4133 96.7747 24.88C96.068 24.3467 95.1214 24.0467 93.9347 23.98C92.8014 23.9133 91.888 24.0867 91.1947 24.5C90.5014 24.9 90.1547 25.4667 90.1547 26.2C90.1547 26.6133 90.2947 26.9667 90.5747 27.26C90.8547 27.5533 91.4147 27.8467 92.2547 28.14C93.108 28.4333 94.3747 28.7933 96.0547 29.22C97.7747 29.66 99.148 30.1667 100.175 30.74C101.215 31.3 101.961 31.9733 102.415 32.76C102.881 33.5467 103.115 34.5 103.115 35.62C103.115 37.7933 102.321 39.5 100.735 40.74C99.1614 41.98 96.9814 42.6 94.1947 42.6ZM113.535 42.6C111.975 42.6 110.655 42.3067 109.575 41.72C108.495 41.12 107.675 40.3267 107.115 39.34C106.569 38.3533 106.295 37.2667 106.295 36.08C106.295 35.04 106.469 34.1067 106.815 33.28C107.162 32.44 107.695 31.72 108.415 31.12C109.135 30.5067 110.069 30.0067 111.215 29.62C112.082 29.34 113.095 29.0867 114.255 28.86C115.429 28.6333 116.695 28.4267 118.055 28.24C119.429 28.04 120.862 27.8267 122.355 27.6L120.635 28.58C120.649 27.0867 120.315 25.9867 119.635 25.28C118.955 24.5733 117.809 24.22 116.195 24.22C115.222 24.22 114.282 24.4467 113.375 24.9C112.469 25.3533 111.835 26.1333 111.475 27.24L107.075 25.86C107.609 24.0333 108.622 22.5667 110.115 21.46C111.622 20.3533 113.649 19.8 116.195 19.8C118.115 19.8 119.802 20.1133 121.255 20.74C122.722 21.3667 123.809 22.3933 124.515 23.82C124.902 24.58 125.135 25.36 125.215 26.16C125.295 26.9467 125.335 27.8067 125.335 28.74V42H121.115V37.32L121.815 38.08C120.842 39.64 119.702 40.7867 118.395 41.52C117.102 42.24 115.482 42.6 113.535 42.6ZM114.495 38.76C115.589 38.76 116.522 38.5667 117.295 38.18C118.069 37.7933 118.682 37.32 119.135 36.76C119.602 36.2 119.915 35.6733 120.075 35.18C120.329 34.5667 120.469 33.8667 120.495 33.08C120.535 32.28 120.555 31.6333 120.555 31.14L122.035 31.58C120.582 31.8067 119.335 32.0067 118.295 32.18C117.255 32.3533 116.362 32.52 115.615 32.68C114.869 32.8267 114.209 32.9933 113.635 33.18C113.075 33.38 112.602 33.6133 112.215 33.88C111.829 34.1467 111.529 34.4533 111.315 34.8C111.115 35.1467 111.015 35.5533 111.015 36.02C111.015 36.5533 111.149 37.0267 111.415 37.44C111.682 37.84 112.069 38.16 112.575 38.4C113.095 38.64 113.735 38.76 114.495 38.76ZM139.922 42.6C137.696 42.6 135.796 42.1067 134.222 41.12C132.649 40.12 131.442 38.76 130.602 37.04C129.776 35.32 129.356 33.3733 129.342 31.2C129.356 28.9867 129.789 27.0267 130.642 25.32C131.509 23.6 132.736 22.2533 134.322 21.28C135.909 20.2933 137.796 19.8 139.982 19.8C142.436 19.8 144.509 20.42 146.202 21.66C147.909 22.8867 149.022 24.5667 149.542 26.7L144.742 28C144.369 26.84 143.749 25.94 142.882 25.3C142.016 24.6467 141.029 24.32 139.922 24.32C138.669 24.32 137.636 24.62 136.822 25.22C136.009 25.8067 135.409 26.62 135.022 27.66C134.636 28.7 134.442 29.88 134.442 31.2C134.442 33.2533 134.902 34.9133 135.822 36.18C136.742 37.4467 138.109 38.08 139.922 38.08C141.202 38.08 142.209 37.7867 142.942 37.2C143.689 36.6133 144.249 35.7667 144.622 34.66L149.542 35.76C148.876 37.96 147.709 39.6533 146.042 40.84C144.376 42.0133 142.336 42.6 139.922 42.6ZM162.504 42.6C160.344 42.6 158.457 42.1133 156.844 41.14C155.231 40.1667 153.977 38.8267 153.084 37.12C152.204 35.4 151.764 33.4267 151.764 31.2C151.764 28.9333 152.217 26.9467 153.124 25.24C154.031 23.5333 155.291 22.2 156.904 21.24C158.517 20.28 160.384 19.8 162.504 19.8C164.677 19.8 166.571 20.2867 168.184 21.26C169.797 22.2333 171.051 23.58 171.944 25.3C172.837 27.0067 173.284 28.9733 173.284 31.2C173.284 33.44 172.831 35.42 171.924 37.14C171.031 38.8467 169.777 40.1867 168.164 41.16C166.551 42.12 164.664 42.6 162.504 42.6ZM162.504 38.08C164.424 38.08 165.851 37.44 166.784 36.16C167.717 34.88 168.184 33.2267 168.184 31.2C168.184 29.1067 167.711 27.44 166.764 26.2C165.817 24.9467 164.397 24.32 162.504 24.32C161.211 24.32 160.144 24.6133 159.304 25.2C158.477 25.7733 157.864 26.58 157.464 27.62C157.064 28.6467 156.864 29.84 156.864 31.2C156.864 33.2933 157.337 34.9667 158.284 36.22C159.244 37.46 160.651 38.08 162.504 38.08Z" fill="white"/>
<path d="M28.0965 0.821749C28.002 1.29088 28.2167 1.82713 30.0687 2.84674C30.1303 2.8807 30.1929 2.91486 30.2561 2.94943L30.3697 4.30864L30.232 4.22384C30.1757 4.18907 30.1015 4.20575 30.066 4.26106L29.9902 4.37961C29.9547 4.43492 29.9717 4.50772 30.0281 4.5425L30.4086 4.77676L30.5233 6.14899L30.4389 6.09693C30.3825 6.06215 30.3083 6.07883 30.2729 6.13414L30.197 6.2527C30.1616 6.30801 30.1786 6.38081 30.2349 6.41558L30.5622 6.61731L30.6543 7.71806L31.4502 8.20814L32.0308 3.88607C33.0319 4.40137 34.0163 4.89043 34.7067 5.22963L34.7807 6.65981L35.3101 6.98578L35.6813 5.60949L36.1273 5.70873L35.8423 5.35774L36.9444 4.43167L36.415 4.1057L35.0702 4.66187C34.4588 4.19944 33.5818 3.542 32.6739 2.88131L36.3893 0.490081L35.5934 0L34.5429 0.397149L34.2157 0.195423C34.1593 0.16065 34.0851 0.177325 34.0496 0.232637L33.9738 0.351191C33.9383 0.406503 33.9553 0.479304 34.0117 0.514078L34.0961 0.566135L32.7865 1.0611L32.4059 0.82663C32.3496 0.791857 32.2754 0.808531 32.2399 0.863843L32.164 0.982398C32.1286 1.03771 32.1456 1.11051 32.202 1.14528L32.3394 1.22988L31.0423 1.72016C30.9832 1.67929 30.9245 1.63903 30.8667 1.59917C29.1258 0.405894 28.5403 0.449207 28.1506 0.736748C28.1226 0.75749 28.1031 0.787993 28.0965 0.821749Z" fill="white"/>
<path d="M16.7609 50C2.57342 42.8184 8.87436 33.905 23.0826 27.6759C8.04194 37.1078 11.821 45.1128 16.7609 50Z" fill="white"/>
<path d="M34.0194 18.156C33.8951 18.2611 33.7639 18.3628 33.6325 18.4677C25.3452 25.2154 14.1423 27.7777 8.35951 34.1932C3.88943 39.1548 5.38512 42.6185 6.1452 43.9436C1.7373 40.1783 1.88592 34.0678 8.76369 29.8958C15.6417 25.7272 24.5232 23.6394 34.0194 18.156Z" fill="white"/>
<path d="M37.7608 9.81199C37.7158 11.2186 37.2151 12.6961 36.1337 13.9602C33.8226 16.668 28.6271 18.9897 20.2812 21.9076C11.4067 25.0087 2.00352 28.2046 1.46813 34.7083C0.525027 32.363 0 29.8109 0 27.1403C0 15.7596 9.403 6.53455 20.9996 6.53455C21.4177 6.53455 21.8287 6.54817 22.2397 6.57176C27.4524 6.87008 32.1505 9.03558 35.6603 12.3942C36.4826 11.8522 37.3981 11.0083 37.7608 9.81199Z" fill="white"/>
<path d="M37.7608 9.81199C37.7158 11.2186 37.2151 12.6961 36.1337 13.9602C33.8226 16.668 28.6271 18.9897 20.2812 21.9076C11.4067 25.0087 2.00352 28.2046 1.46813 34.7083C0.525027 32.363 0 29.8109 0 27.1403C0 15.7596 9.403 6.53455 20.9996 6.53455C21.4177 6.53455 21.8287 6.54817 22.2397 6.57176C12.8056 6.58864 3.74109 15.3971 4.6703 24.2256C7.22662 16.6951 26.0811 17.7253 35.6603 12.3942C36.4826 11.8522 37.3981 11.0083 37.7608 9.81199Z" fill="white"/>
<path d="M40.1823 18.7543C42.1506 13.4523 40.6429 8.65456 36.7523 6.24524C44.749 15.3308 30.769 23.5951 20.3472 32.0889C14.9259 36.5074 14.0034 43.8368 19.6257 46.6513C21.3409 47.5098 23.3218 47.702 25.2086 47.3254C34.7895 45.413 42.0001 37.1036 42.0001 27.1395C42.0001 24.1525 41.3489 21.3159 40.1823 18.7543Z" fill="white"/>
</svg>
