<svg width="286" height="541" viewBox="0 0 286 541" fill="none" xmlns="http://www.w3.org/2000/svg">
<g opacity="0.3">
<path d="M162.865 48.4484V46.123C162.865 45.2288 162.14 44.5054 161.246 44.5054H134.183C133.289 44.5054 132.564 45.2308 132.564 46.123V48.4484C132.564 49.3425 131.838 50.0679 130.944 50.0679H126.305C125.411 50.0679 124.686 50.7933 124.686 51.6854V57.5058C124.686 58.3999 125.411 59.1253 126.305 59.1253H169.145C170.039 59.1253 170.762 58.3999 170.762 57.5058V51.6854C170.762 50.7913 170.039 50.0679 169.145 50.0679H164.485C163.591 50.0679 162.865 49.3425 162.865 48.4484Z" fill="white"/>
<path d="M157.393 34.5306C156.603 30.9445 154.526 27.2168 151.263 25.7951C151.119 25.7331 151.018 25.6051 150.997 25.4518L147.836 1.79973C147.69 0.701977 146.088 0.748525 146.003 1.8521L144.149 26.2393C144.138 26.3731 144.068 26.4914 143.957 26.567C140.418 28.9972 138.415 34.1931 137.637 38.0004C137.484 38.7509 137.272 44.1776 136.675 46.0066C136.576 46.3091 136.788 46.6059 137.106 46.6059C140.767 46.6059 155.587 46.6059 158.543 46.6059C158.824 46.6059 159.024 46.3731 158.987 46.0958C158.696 43.9042 157.577 35.3685 157.393 34.5306Z" fill="white"/>
<path d="M60.4971 457.503L60.5066 456.503L59.9214 456.497L59.6299 457.005L60.4971 457.503ZM107.685 433.087C107.525 433.615 107.823 434.174 108.351 434.334C108.88 434.495 109.438 434.197 109.599 433.668L107.685 433.087ZM122.904 385.606L123.861 385.896L123.861 385.896L122.904 385.606ZM144.876 364.586L144.814 363.588H144.814L144.876 364.586ZM164.331 379.39L165.275 379.058L164.331 379.39ZM177.985 434.221C178.149 434.748 178.709 435.043 179.237 434.88C179.764 434.716 180.059 434.156 179.895 433.628L177.985 434.221ZM113.397 349.981V348.981H110.934L112.7 350.698L113.397 349.981ZM175.882 349.981L176.553 350.723L178.476 348.981H175.882V349.981ZM162.059 262.811V263.811H164.308L162.801 262.141L162.059 262.811ZM3 541L2.21134 540.385L0.92359 542.037L3.01774 542L3 541ZM69.5534 539.819L69.5711 540.819L70.2388 540.807L70.4837 540.186L69.5534 539.819ZM101.847 457.899L102.777 458.265L103.31 456.913L101.856 456.899L101.847 457.899ZM227.567 457.503L228.441 457.018L228.153 456.497L227.557 456.503L227.567 457.503ZM283 541L282.982 542L285.031 542.038L283.799 540.399L283 541ZM218.832 539.819L217.897 540.174L218.137 540.806L218.814 540.819L218.832 539.819ZM187.698 457.899L187.688 456.899L186.254 456.913L186.763 458.254L187.698 457.899ZM209.701 435.22C210.004 435.681 210.624 435.81 211.086 435.507C211.548 435.205 211.677 434.585 211.374 434.123L209.701 435.22ZM161.706 59.7285L162.706 59.74C162.709 59.4728 162.605 59.2155 162.417 59.0255C162.229 58.8354 161.973 58.7285 161.706 58.7285V59.7285ZM131.774 59.7285V58.7285C131.508 58.7285 131.252 58.835 131.064 59.0244C130.876 59.2138 130.772 59.4703 130.774 59.737L131.774 59.7285ZM133.351 244.836L134.351 244.844C134.351 244.838 134.351 244.833 134.351 244.827L133.351 244.836ZM74.2145 434.148C73.9257 434.619 74.0732 435.235 74.544 435.524C75.0148 435.812 75.6305 435.665 75.9193 435.194L74.2145 434.148ZM164.485 50.0679V51.0679V50.0679ZM60.4969 434.803V433.803H59.4969V434.803H60.4969ZM228.335 434.803H229.335V433.803H228.335V434.803ZM228.335 457.501V458.501H229.335V457.501H228.335ZM60.4969 457.501H59.4969V458.501H60.4969V457.501ZM106.309 370.201L105.826 369.325L104.999 369.782L105.408 370.634L106.309 370.201ZM129.965 313.826C129.645 313.376 129.021 313.27 128.571 313.59C128.121 313.91 128.015 314.535 128.335 314.985L129.965 313.826ZM134.801 324.075C135.121 324.525 135.746 324.631 136.196 324.311C136.646 323.99 136.751 323.366 136.431 322.916L134.801 324.075ZM157.01 314.061C156.693 313.609 156.069 313.5 155.617 313.818C155.165 314.135 155.056 314.758 155.373 315.211L157.01 314.061ZM161.87 324.466C162.187 324.918 162.811 325.027 163.263 324.71C163.715 324.392 163.824 323.769 163.507 323.317L161.87 324.466ZM165.322 315.093C165.701 314.692 165.684 314.059 165.283 313.679C164.882 313.299 164.249 313.317 163.869 313.718L165.322 315.093ZM155.171 322.907C154.792 323.308 154.809 323.941 155.21 324.321C155.611 324.7 156.244 324.683 156.624 324.282L155.171 322.907ZM136.998 315.058C137.359 314.639 137.311 314.008 136.893 313.647C136.474 313.287 135.843 313.334 135.483 313.753L136.998 315.058ZM127.343 323.204C126.983 323.622 127.03 324.254 127.449 324.614C127.867 324.974 128.498 324.927 128.859 324.509L127.343 323.204ZM148.114 58.5374C148.114 57.9851 147.666 57.5375 147.114 57.5376C146.562 57.5377 146.114 57.9855 146.114 58.5378L148.114 58.5374ZM147.155 261.763L146.155 261.764C146.155 262.182 146.415 262.556 146.807 262.701C147.199 262.846 147.64 262.733 147.913 262.416L147.155 261.763ZM162.479 245.486C162.839 245.067 162.792 244.436 162.373 244.076C161.955 243.715 161.323 243.763 160.963 244.181L162.479 245.486ZM133.294 82.1957C132.917 81.7921 132.285 81.7705 131.881 82.1474C131.477 82.5244 131.456 83.1572 131.833 83.5608L133.294 82.1957ZM146.612 97.921L145.881 98.6035C146.078 98.8141 146.356 98.9296 146.643 98.9205C146.931 98.9113 147.202 98.7784 147.384 98.5558L146.612 97.921ZM162.216 80.505C162.567 80.0783 162.505 79.4481 162.079 79.0975C161.652 78.7469 161.022 78.8085 160.671 79.2353L162.216 80.505ZM133.006 110.697C132.703 110.235 132.083 110.106 131.621 110.409C131.16 110.712 131.031 111.332 131.334 111.794L133.006 110.697ZM146.166 132.578L145.33 133.126C145.51 133.401 145.814 133.57 146.143 133.578C146.472 133.585 146.784 133.43 146.976 133.164L146.166 132.578ZM161.729 112.758C162.052 112.311 161.952 111.686 161.504 111.362C161.057 111.038 160.431 111.139 160.108 111.586L161.729 112.758ZM133.546 147.393C133.256 146.924 132.64 146.778 132.17 147.069C131.7 147.359 131.555 147.975 131.845 148.445L133.546 147.393ZM147.217 168.827L146.398 169.4C146.586 169.669 146.894 169.828 147.222 169.827C147.55 169.825 147.857 169.663 148.042 169.392L147.217 168.827ZM162.05 148.962C162.362 148.506 162.246 147.884 161.791 147.572C161.335 147.259 160.713 147.375 160.4 147.831L162.05 148.962ZM133.434 182.137C133.077 181.716 132.446 181.663 132.024 182.02C131.603 182.377 131.55 183.008 131.907 183.43L133.434 182.137ZM147.859 200.718L147.096 201.364C147.286 201.589 147.565 201.718 147.859 201.718C148.153 201.718 148.432 201.589 148.622 201.364L147.859 200.718ZM162.029 185.53C162.386 185.109 162.333 184.478 161.912 184.121C161.49 183.764 160.859 183.816 160.502 184.238L162.029 185.53ZM133.821 212.728C133.579 212.231 132.981 212.025 132.484 212.267C131.988 212.509 131.781 213.107 132.023 213.604L133.821 212.728ZM147.393 232.636L146.601 233.246C146.783 233.483 147.062 233.626 147.361 233.636C147.66 233.645 147.948 233.52 148.145 233.295L147.393 232.636ZM161.68 217.859C162.044 217.444 162.002 216.812 161.587 216.448C161.172 216.084 160.54 216.125 160.176 216.54L161.68 217.859ZM131.779 93.7557C131.436 94.189 131.51 94.8179 131.944 95.1603C132.377 95.5026 133.006 95.4289 133.348 94.9955L131.779 93.7557ZM147.92 76.5509C148.262 76.1176 148.189 75.4887 147.755 75.1463C147.322 74.804 146.693 74.8777 146.351 75.3111L147.92 76.5509ZM131.55 128.941C131.192 129.361 131.243 129.992 131.663 130.35C132.084 130.708 132.715 130.658 133.073 130.237L131.55 128.941ZM147.886 111.294L148.616 110.61C148.421 110.402 148.147 110.287 147.862 110.294C147.578 110.301 147.309 110.429 147.125 110.646L147.886 111.294ZM160.802 126.535C161.179 126.938 161.812 126.959 162.215 126.581C162.618 126.204 162.638 125.571 162.261 125.168L160.802 126.535ZM147.529 149.122L148.247 148.425L147.54 147.697L146.822 148.415L147.529 149.122ZM147.923 184.568L148.63 183.861L147.952 183.182L147.246 183.832L147.923 184.568ZM146.841 215.299L147.587 214.634L146.829 213.783L146.084 214.645L146.841 215.299ZM147.135 246.269L147.878 245.599L147.182 244.828L146.438 245.552L147.135 246.269ZM146.911 271.735C146.935 271.183 146.507 270.717 145.955 270.693C145.403 270.669 144.936 271.097 144.913 271.649L146.911 271.735ZM144.046 314.801L143.047 314.758C143.035 315.039 143.142 315.313 143.342 315.511L144.046 314.801ZM151.691 323.787C152.083 324.176 152.716 324.173 153.105 323.781C153.494 323.388 153.491 322.755 153.099 322.366L151.691 323.787ZM148.467 271.181C148.449 270.629 147.988 270.196 147.436 270.213C146.884 270.231 146.45 270.693 146.468 271.245L148.467 271.181ZM148.842 314.405L149.618 315.037C149.77 314.85 149.85 314.614 149.842 314.373L148.842 314.405ZM141.514 323.399L140.738 322.767C140.621 322.911 140.546 323.086 140.522 323.27L141.514 323.399ZM137.085 349.853C137.015 350.401 137.401 350.902 137.949 350.973C138.497 351.044 138.998 350.657 139.069 350.11L137.085 349.853ZM152.2 324.138C152.137 323.59 151.641 323.196 151.093 323.259C150.544 323.321 150.15 323.817 150.213 324.366L152.2 324.138ZM153.099 349.571C153.162 350.12 153.657 350.514 154.206 350.451C154.755 350.388 155.149 349.893 155.086 349.344L153.099 349.571ZM157.393 34.5306L158.369 34.3158L158.369 34.3157L157.393 34.5306ZM151.263 25.7951L151.662 24.8783L151.659 24.8773L151.263 25.7951ZM150.997 25.4518L150.006 25.5843L150.006 25.5897L150.997 25.4518ZM147.836 1.79973L146.844 1.93108L146.845 1.9322L147.836 1.79973ZM146.003 1.8521L145.006 1.77501L145.006 1.77629L146.003 1.8521ZM144.149 26.2393L145.145 26.3259L145.146 26.3151L144.149 26.2393ZM143.957 26.567L143.392 25.7418L143.391 25.7427L143.957 26.567ZM137.637 38.0004L136.657 37.8002L136.657 37.8004L137.637 38.0004ZM136.675 46.0066L137.626 46.3173L137.626 46.317L136.675 46.0066ZM158.987 46.0958L157.996 46.2274L157.996 46.2275L158.987 46.0958ZM71.5754 535.564L34.5558 498.543L33.1415 499.958L70.1612 536.979L71.5754 535.564ZM9.81356 533.783L84.3743 503.063L83.6124 501.214L9.05168 531.933L9.81356 533.783ZM59.6816 458.082L86.3277 495.628L87.9587 494.471L61.3126 456.924L59.6816 458.082ZM101.364 457.021L37.3029 492.337L38.2684 494.089L102.33 458.772L101.364 457.021ZM187.259 458.795L244.492 486.759L245.37 484.962L188.137 456.998L187.259 458.795ZM227.578 456.849L199.017 489.931L200.531 491.238L229.092 458.156L227.578 456.849ZM201.026 494.234L276.246 532.437L277.152 530.653L201.932 492.451L201.026 494.234ZM246.767 488.399L214.079 530.538L215.66 531.764L248.347 489.625L246.767 488.399ZM109.599 433.668C112.016 425.714 114.375 417.743 116.733 409.776C119.092 401.808 121.448 393.843 123.861 385.896L121.947 385.315C119.532 393.27 117.174 401.242 114.816 409.209C112.457 417.177 110.099 425.141 107.685 433.087L109.599 433.668ZM123.861 385.896C125.559 380.299 127.779 375.412 131.084 371.834C134.36 368.288 138.752 365.971 144.939 365.584L144.814 363.588C138.127 364.006 133.249 366.542 129.615 370.477C126.011 374.379 123.681 379.6 121.947 385.316L123.861 385.896ZM144.939 365.584C154.082 365.013 160.409 371.245 163.388 379.721L165.275 379.058C162.122 370.087 155.172 362.941 144.814 363.588L144.939 365.584ZM163.388 379.721C166.5 388.576 168.746 397.665 170.918 406.822C173.086 415.965 175.182 425.184 177.985 434.221L179.895 433.628C177.117 424.672 175.04 415.533 172.864 406.361C170.692 397.203 168.425 388.022 165.275 379.058L163.388 379.721ZM113.397 350.981H175.882V348.981H113.397V350.981ZM121.275 325.252H169.581V323.252H121.275V325.252ZM123.375 315.273H168.532V313.273H123.375V315.273ZM130.727 271.687H162.757V269.687H130.727V271.687ZM132.12 263.811H162.059V261.811H132.12V263.811ZM59.6299 457.005C49.0227 475.471 34.6725 496.312 22.9625 512.55C17.1097 520.666 11.9209 527.626 8.19544 532.557C6.33279 535.022 4.83613 536.98 3.80543 538.321C3.29008 538.992 2.89124 539.508 2.62139 539.857C2.48646 540.031 2.38379 540.163 2.31493 540.252C2.28049 540.296 2.25452 540.33 2.23719 540.352C2.22852 540.363 2.22202 540.371 2.2177 540.377C2.21555 540.38 2.21393 540.382 2.21287 540.383C2.21234 540.384 2.21196 540.384 2.21169 540.385C2.21145 540.385 2.21134 540.385 3 541C3.78866 541.615 3.78883 541.615 3.78914 541.614C3.78942 541.614 3.78987 541.613 3.79044 541.613C3.79158 541.611 3.79328 541.609 3.79552 541.606C3.8 541.6 3.80666 541.592 3.81549 541.58C3.83316 541.558 3.85947 541.524 3.89424 541.479C3.96378 541.39 4.06714 541.256 4.20277 541.081C4.47402 540.731 4.87434 540.213 5.39121 539.54C6.42494 538.195 7.92494 536.233 9.79119 533.763C13.5236 528.823 18.7215 521.85 24.5847 513.72C36.3066 497.465 50.7049 476.558 61.3642 458.001L59.6299 457.005ZM3.01774 542L69.5711 540.819L69.5356 538.819L2.98226 540L3.01774 542ZM70.4837 540.186L102.777 458.265L100.917 457.532L68.623 539.452L70.4837 540.186ZM101.856 456.899L60.5066 456.503L60.4875 458.503L101.837 458.899L101.856 456.899ZM226.692 457.987C236.968 476.544 250.849 497.451 262.151 513.706C267.803 521.836 272.815 528.809 276.413 533.749C278.213 536.219 279.659 538.181 280.655 539.526C281.154 540.199 281.54 540.717 281.801 541.067C281.932 541.242 282.032 541.376 282.099 541.465C282.132 541.51 282.158 541.544 282.175 541.566C282.183 541.578 282.19 541.586 282.194 541.592C282.196 541.595 282.198 541.597 282.199 541.599C282.199 541.599 282.2 541.6 282.2 541.6C282.2 541.601 282.201 541.601 283 541C283.799 540.399 283.799 540.399 283.799 540.399C283.799 540.398 283.798 540.398 283.798 540.397C283.797 540.396 283.795 540.394 283.793 540.391C283.789 540.385 283.783 540.377 283.774 540.366C283.758 540.344 283.733 540.31 283.699 540.266C283.633 540.177 283.534 540.045 283.404 539.871C283.144 539.522 282.759 539.006 282.262 538.335C281.269 536.994 279.826 535.036 278.03 532.571C274.438 527.64 269.435 520.68 263.793 512.564C252.503 496.326 238.668 475.485 228.441 457.018L226.692 457.987ZM283.018 540L218.85 538.819L218.814 540.819L282.982 542L283.018 540ZM219.767 539.464L188.633 457.543L186.763 458.254L217.897 540.174L219.767 539.464ZM187.708 458.898L227.577 458.503L227.557 456.503L187.688 456.899L187.708 458.898ZM210.538 434.671C211.374 434.123 211.374 434.123 211.374 434.123C211.373 434.122 211.373 434.122 211.372 434.121C211.371 434.119 211.369 434.116 211.367 434.112C211.361 434.104 211.353 434.091 211.342 434.074C211.32 434.04 211.287 433.988 211.242 433.919C211.153 433.78 211.021 433.57 210.847 433.291C210.499 432.733 209.986 431.896 209.333 430.788C208.026 428.572 206.155 425.27 203.906 420.942C199.406 412.286 193.394 399.524 187.355 383.125C175.278 350.326 163.098 302.982 162.706 244.829L160.706 244.842C161.1 303.268 173.337 350.842 185.479 383.816C191.549 400.303 197.597 413.142 202.131 421.865C204.398 426.226 206.286 429.558 207.61 431.804C208.272 432.926 208.793 433.777 209.149 434.349C209.327 434.635 209.464 434.851 209.557 434.996C209.604 435.069 209.639 435.124 209.663 435.161C209.676 435.18 209.685 435.194 209.691 435.204C209.694 435.209 209.697 435.212 209.698 435.215C209.699 435.216 209.7 435.218 209.7 435.218C209.701 435.219 209.701 435.22 210.538 434.671ZM162.706 244.829C162.312 186.543 162.312 140.269 162.41 108.568C162.46 92.7173 162.533 80.5097 162.595 72.265C162.626 68.1427 162.653 65.0111 162.673 62.9103C162.683 61.8599 162.691 61.0671 162.697 60.5371C162.7 60.272 162.702 60.0727 162.703 59.9396C162.704 59.8731 162.705 59.8232 162.705 59.7899C162.705 59.7732 162.705 59.7607 162.705 59.7524C162.706 59.7482 162.706 59.7451 162.706 59.7431C162.706 59.742 162.706 59.7413 162.706 59.7407C162.706 59.7402 162.706 59.74 161.706 59.7285C160.706 59.717 160.706 59.7173 160.706 59.7178C160.706 59.7183 160.706 59.7192 160.706 59.7202C160.706 59.7223 160.706 59.7255 160.706 59.7297C160.706 59.7381 160.705 59.7506 160.705 59.7674C160.705 59.8008 160.704 59.8509 160.704 59.9176C160.702 60.051 160.7 60.2507 160.697 60.5161C160.692 61.0468 160.683 61.8402 160.673 62.8912C160.653 64.9934 160.626 68.1264 160.595 72.2501C160.533 80.4976 160.46 92.7081 160.41 108.562C160.312 140.269 160.312 186.549 160.706 244.842L162.706 244.829ZM161.706 58.7285H131.774V60.7285H161.706V58.7285ZM130.774 59.737L132.351 244.844L134.351 244.827L132.774 59.72L130.774 59.737ZM132.351 244.827C131.959 292.698 117.438 340.022 102.988 375.413C95.7659 393.101 88.5685 407.792 83.1777 418.059C80.4825 423.192 78.2393 427.218 76.671 429.959C75.8869 431.33 75.2715 432.379 74.8528 433.085C74.6435 433.438 74.4833 433.704 74.3757 433.883C74.3219 433.972 74.2813 434.039 74.2543 434.083C74.2408 434.105 74.2307 434.122 74.224 434.133C74.2207 434.138 74.2182 434.142 74.2166 434.145C74.2158 434.146 74.2153 434.147 74.2149 434.148C74.2146 434.148 74.2145 434.148 75.0669 434.671C75.9193 435.194 75.9196 435.194 75.9202 435.193C75.9207 435.192 75.9214 435.191 75.9224 435.189C75.9243 435.186 75.9271 435.181 75.9307 435.175C75.938 435.164 75.9487 435.146 75.9628 435.123C75.9911 435.076 76.033 435.007 76.088 434.916C76.1981 434.734 76.3608 434.463 76.5728 434.105C76.9967 433.391 77.6174 432.333 78.407 430.952C79.9862 428.192 82.2411 424.145 84.9484 418.988C90.3629 408.676 97.5889 393.927 104.84 376.169C119.335 340.667 133.956 293.073 134.351 244.844L132.351 244.827ZM163.865 48.4484V46.123H161.865V48.4484H163.865ZM163.865 46.123C163.865 44.6751 162.691 43.5054 161.246 43.5054V45.5054C161.589 45.5054 161.865 45.7826 161.865 46.123H163.865ZM161.246 43.5054H134.183V45.5054H161.246V43.5054ZM134.183 43.5054C132.737 43.5054 131.564 44.6779 131.564 46.123H133.564C133.564 45.7837 133.84 45.5054 134.183 45.5054V43.5054ZM131.564 46.123V48.4484H133.564V46.123H131.564ZM131.564 48.4484C131.564 48.7903 131.286 49.0679 130.944 49.0679V51.0679C132.391 51.0679 133.564 49.8947 133.564 48.4484H131.564ZM130.944 49.0679H126.305V51.0679H130.944V49.0679ZM126.305 49.0679C124.86 49.0679 123.686 50.2402 123.686 51.6854H125.686C125.686 51.3463 125.963 51.0679 126.305 51.0679V49.0679ZM123.686 51.6854V57.5058H125.686V51.6854H123.686ZM123.686 57.5058C123.686 58.9522 124.859 60.1253 126.305 60.1253V58.1253C125.964 58.1253 125.686 57.8477 125.686 57.5058H123.686ZM126.305 60.1253H169.145V58.1253H126.305V60.1253ZM169.145 60.1253C170.593 60.1253 171.762 58.9506 171.762 57.5058H169.762C169.762 57.8493 169.485 58.1253 169.145 58.1253V60.1253ZM171.762 57.5058V51.6854H169.762V57.5058H171.762ZM171.762 51.6854C171.762 50.2391 170.591 49.0679 169.145 49.0679V51.0679C169.486 51.0679 169.762 51.3435 169.762 51.6854H171.762ZM169.145 49.0679H164.485V51.0679H169.145V49.0679ZM164.485 49.0679C164.143 49.0679 163.865 48.7904 163.865 48.4484H161.865C161.865 49.8946 163.038 51.0679 164.485 51.0679V49.0679ZM67.8979 435.579V456.322H69.8979V435.579H67.8979ZM77.333 435.843V456.584H79.333V435.843H77.333ZM86.7695 435.843V456.584H88.7695V435.843H86.7695ZM96.2046 435.579V456.322H98.2046V435.579H96.2046ZM105.639 435.843V456.584H107.639V435.843H105.639ZM115.072 435.843V456.584H117.072V435.843H115.072ZM124.51 434.792V456.847H126.51V434.792H124.51ZM133.943 435.843V457.897H135.943V435.843H133.943ZM143.378 435.579V457.635H145.378V435.579H143.378ZM152.813 435.579V457.635H154.813V435.579H152.813ZM162.25 435.315V457.371H164.25V435.315H162.25ZM171.684 435.579V457.635H173.684V435.579H171.684ZM181.119 434.792V456.847H183.119V434.792H181.119ZM190.554 435.053V457.107H192.554V435.053H190.554ZM199.989 435.315V457.371H201.989V435.315H199.989ZM209.423 435.843V457.897H211.423V435.843H209.423ZM218.858 435.053V457.107H220.858V435.053H218.858ZM60.4969 435.803H228.335V433.803H60.4969V435.803ZM227.335 434.803V457.501H229.335V434.803H227.335ZM228.335 456.501H60.4969V458.501H228.335V456.501ZM61.4969 457.501V434.803H59.4969V457.501H61.4969ZM80.0333 428.042L117.576 406.25L116.572 404.52L79.0292 426.312L80.0333 428.042ZM92.8191 398.229L109.098 429.737L110.875 428.818L94.5959 397.311L92.8191 398.229ZM120.076 396.55L107.21 369.768L105.408 370.634L118.273 397.416L120.076 396.55ZM106.793 371.076L141.974 351.644L141.007 349.893L105.826 369.325L106.793 371.076ZM97.6 392.083L128.842 375.015L127.883 373.26L96.6412 390.328L97.6 392.083ZM132.999 367.645L114.095 349.264L112.7 350.698L131.605 369.079L132.999 367.645ZM157.127 368.314L176.553 350.723L175.211 349.24L155.785 366.831L157.127 368.314ZM149.638 351.624L180.88 370.529L181.915 368.817L150.673 349.913L149.638 351.624ZM181.602 371.766L167.951 393.296L169.64 394.367L183.291 372.836L181.602 371.766ZM163.277 377.086L189.268 393.366L190.33 391.671L164.339 375.391L163.277 377.086ZM192.926 400.859L175.6 424.751L177.219 425.925L194.545 402.033L192.926 400.859ZM171.166 404.665L203.462 424.095L204.493 422.381L172.197 402.951L171.166 404.665ZM128.335 314.985L134.801 324.075L136.431 322.916L129.965 313.826L128.335 314.985ZM155.373 315.211L161.87 324.466L163.507 323.317L157.01 314.061L155.373 315.211ZM163.869 313.718L155.171 322.907L156.624 324.282L165.322 315.093L163.869 313.718ZM135.483 313.753L127.343 323.204L128.859 324.509L136.998 315.058L135.483 313.753ZM147.913 262.416L162.479 245.486L160.963 244.181L146.397 261.111L147.913 262.416ZM146.803 77.3396L160.585 91.913L162.039 90.5387L148.256 75.9654L146.803 77.3396ZM131.833 83.5608L145.881 98.6035L147.343 97.2384L133.294 82.1957L131.833 83.5608ZM147.384 98.5558L162.216 80.505L160.671 79.2353L145.839 97.2861L147.384 98.5558ZM131.334 111.794L145.33 133.126L147.002 132.029L133.006 110.697L131.334 111.794ZM146.976 133.164L161.729 112.758L160.108 111.586L145.356 131.992L146.976 133.164ZM131.845 148.445C132.282 149.152 135.94 154.417 139.45 159.452C141.213 161.981 142.95 164.468 144.246 166.323C144.894 167.25 145.432 168.02 145.808 168.557C145.996 168.826 146.144 169.037 146.244 169.18C146.294 169.252 146.333 169.307 146.359 169.344C146.372 169.363 146.382 169.377 146.388 169.386C146.391 169.391 146.394 169.394 146.396 169.397C146.396 169.398 146.397 169.399 146.397 169.399C146.398 169.4 146.398 169.4 146.398 169.4C146.398 169.4 146.398 169.4 147.217 168.827C148.037 168.254 148.037 168.253 148.036 168.253C148.036 168.253 148.036 168.253 148.036 168.253C148.036 168.252 148.035 168.251 148.034 168.25C148.032 168.248 148.03 168.244 148.027 168.239C148.02 168.23 148.01 168.216 147.997 168.197C147.971 168.16 147.933 168.105 147.883 168.034C147.782 167.89 147.635 167.679 147.447 167.411C147.071 166.874 146.534 166.104 145.886 165.177C144.59 163.323 142.853 160.837 141.09 158.308C137.548 153.227 133.945 148.038 133.546 147.393L131.845 148.445ZM148.042 169.392L162.05 148.962L160.4 147.831L146.393 168.261L148.042 169.392ZM131.907 183.43L147.096 201.364L148.622 200.072L133.434 182.137L131.907 183.43ZM148.622 201.364L162.029 185.53L160.502 184.238L147.096 200.072L148.622 201.364ZM132.023 213.604C132.172 213.908 132.53 214.447 132.97 215.079C133.43 215.741 134.038 216.584 134.738 217.541C136.14 219.455 137.925 221.838 139.681 224.163C141.438 226.489 143.168 228.76 144.458 230.448C145.104 231.293 145.639 231.992 146.013 232.48C146.2 232.724 146.347 232.915 146.447 233.046C146.497 233.111 146.536 233.161 146.561 233.195C146.574 233.211 146.584 233.224 146.591 233.233C146.594 233.237 146.596 233.24 146.598 233.242C146.599 233.243 146.6 233.244 146.6 233.245C146.6 233.245 146.6 233.245 146.6 233.245C146.601 233.246 146.601 233.246 147.393 232.636C148.186 232.027 148.186 232.027 148.186 232.027C148.186 232.026 148.186 232.026 148.186 232.026C148.185 232.025 148.185 232.025 148.184 232.024C148.182 232.021 148.18 232.018 148.177 232.014C148.17 232.006 148.16 231.993 148.147 231.976C148.122 231.943 148.083 231.893 148.034 231.828C147.934 231.698 147.787 231.507 147.6 231.263C147.227 230.776 146.692 230.078 146.048 229.234C144.758 227.547 143.031 225.28 141.277 222.958C139.523 220.635 137.744 218.261 136.352 216.359C135.655 215.408 135.059 214.579 134.611 213.936C134.142 213.263 133.887 212.863 133.821 212.728L132.023 213.604ZM148.145 233.295L161.68 217.859L160.176 216.54L146.642 231.977L148.145 233.295ZM132.578 245.467L146.36 262.393L147.911 261.13L134.128 244.204L132.578 245.467ZM133.348 94.9955L147.92 76.5509L146.351 75.3111L131.779 93.7557L133.348 94.9955ZM133.073 130.237L148.648 111.942L147.125 110.646L131.55 128.941L133.073 130.237ZM147.157 111.978L160.802 126.535L162.261 125.168L148.616 110.61L147.157 111.978ZM133.665 164.4L148.237 149.829L146.822 148.415L132.25 162.986L133.665 164.4ZM146.812 149.818L160.201 163.602L161.636 162.209L148.247 148.425L146.812 149.818ZM133.635 199.087L148.601 185.303L147.246 183.832L132.28 197.616L133.635 199.087ZM147.216 185.275L160.605 198.665L162.019 197.251L148.63 183.861L147.216 185.275ZM134.336 231.308L147.597 215.953L146.084 214.645L132.823 230L134.336 231.308ZM146.094 215.964L160.852 232.529L162.345 231.199L147.587 214.634L146.094 215.964ZM133.261 261.165L147.833 246.986L146.438 245.552L131.866 259.732L133.261 261.165ZM146.393 246.939L161.316 263.481L162.801 262.141L147.878 245.599L146.393 246.939ZM144.913 271.649L143.047 314.758L145.045 314.844L146.911 271.735L144.913 271.649ZM143.342 315.511L151.691 323.787L153.099 322.366L144.75 314.091L143.342 315.511ZM146.468 271.245L147.843 314.437L149.842 314.373L148.467 271.181L146.468 271.245ZM148.067 313.773L140.738 322.767L142.289 324.03L149.618 315.037L148.067 313.773ZM140.522 323.27L137.085 349.853L139.069 350.11L142.505 323.527L140.522 323.27ZM150.213 324.366L153.099 349.571L155.086 349.344L152.2 324.138L150.213 324.366ZM158.369 34.3157C157.549 30.5873 155.35 26.4846 151.662 24.8783L150.863 26.7119C153.703 27.949 155.658 31.3016 156.416 34.7456L158.369 34.3157ZM151.659 24.8773C151.822 24.9475 151.958 25.1059 151.987 25.3139L150.006 25.5897C150.078 26.1042 150.416 26.5187 150.866 26.713L151.659 24.8773ZM151.988 25.3194L148.827 1.66726L146.845 1.9322L150.006 25.5843L151.988 25.3194ZM148.827 1.66838C148.521 -0.638994 145.183 -0.506585 145.006 1.77501L147 1.92919C147.001 1.91265 147.004 1.91752 146.995 1.93437C146.987 1.95099 146.974 1.96728 146.96 1.97994C146.933 2.00293 146.918 2.00021 146.926 2C146.933 1.99979 146.918 2.00335 146.889 1.98115C146.873 1.96898 146.859 1.95301 146.85 1.93648C146.84 1.91976 146.842 1.91456 146.844 1.93108L148.827 1.66838ZM145.006 1.77629L143.152 26.1635L145.146 26.3151L147 1.9279L145.006 1.77629ZM143.153 26.1527C143.168 25.985 143.258 25.8336 143.392 25.7418L144.522 27.3923C144.877 27.1492 145.108 26.7612 145.145 26.3259L143.153 26.1527ZM143.391 25.7427C141.43 27.0893 139.949 29.1585 138.867 31.3197C137.781 33.4904 137.06 35.8271 136.657 37.8002L138.617 38.2005C138.991 36.3664 139.661 34.2015 140.656 32.2149C141.655 30.2189 142.945 28.475 144.523 27.3914L143.391 25.7427ZM136.657 37.8004C136.603 38.0649 136.557 38.6276 136.509 39.2322C136.458 39.8816 136.399 40.6781 136.326 41.5121C136.176 43.2281 135.98 44.9139 135.724 45.6961L137.626 46.317C137.967 45.2703 138.175 43.3283 138.319 41.6861C138.393 40.841 138.453 40.0257 138.503 39.3894C138.557 38.7083 138.594 38.3111 138.617 38.2004L136.657 37.8004ZM135.725 45.6959C135.418 46.6323 136.094 47.6059 137.106 47.6059V45.6059C137.272 45.6059 137.441 45.69 137.547 45.8374C137.652 45.9835 137.675 46.1652 137.626 46.3173L135.725 45.6959ZM137.106 47.6059C137.113 47.6059 137.12 47.6059 137.127 47.6059C137.134 47.6059 137.142 47.6059 137.149 47.6059C137.156 47.6059 137.164 47.6059 137.171 47.6059C137.178 47.6059 137.186 47.6059 137.193 47.6059C137.201 47.6059 137.208 47.6059 137.216 47.6059C137.224 47.6059 137.231 47.6059 137.239 47.6059C137.247 47.6059 137.254 47.6059 137.262 47.6059C137.27 47.6059 137.277 47.6059 137.285 47.6059C137.293 47.6059 137.301 47.6059 137.309 47.6059C137.317 47.6059 137.325 47.6059 137.333 47.6059C137.341 47.6059 137.349 47.6059 137.357 47.6059C137.365 47.6059 137.373 47.6059 137.381 47.6059C137.389 47.6059 137.397 47.6059 137.406 47.6059C137.414 47.6059 137.422 47.6059 137.43 47.6059C137.439 47.6059 137.447 47.6059 137.456 47.6059C137.464 47.6059 137.472 47.6059 137.481 47.6059C137.489 47.6059 137.498 47.6059 137.506 47.6059C137.515 47.6059 137.523 47.6059 137.532 47.6059C137.541 47.6059 137.549 47.6059 137.558 47.6059C137.567 47.6059 137.576 47.6059 137.584 47.6059C137.593 47.6059 137.602 47.6059 137.611 47.6059C137.62 47.6059 137.629 47.6059 137.638 47.6059C137.646 47.6059 137.655 47.6059 137.664 47.6059C137.673 47.6059 137.683 47.6059 137.692 47.6059C137.701 47.6059 137.71 47.6059 137.719 47.6059C137.728 47.6059 137.737 47.6059 137.747 47.6059C137.756 47.6059 137.765 47.6059 137.775 47.6059C137.784 47.6059 137.793 47.6059 137.803 47.6059C137.812 47.6059 137.821 47.6059 137.831 47.6059C137.84 47.6059 137.85 47.6059 137.859 47.6059C137.869 47.6059 137.879 47.6059 137.888 47.6059C137.898 47.6059 137.908 47.6059 137.917 47.6059C137.927 47.6059 137.937 47.6059 137.946 47.6059C137.956 47.6059 137.966 47.6059 137.976 47.6059C137.986 47.6059 137.996 47.6059 138.006 47.6059C138.015 47.6059 138.025 47.6059 138.035 47.6059C138.045 47.6059 138.055 47.6059 138.065 47.6059C138.076 47.6059 138.086 47.6059 138.096 47.6059C138.106 47.6059 138.116 47.6059 138.126 47.6059C138.137 47.6059 138.147 47.6059 138.157 47.6059C138.167 47.6059 138.178 47.6059 138.188 47.6059C138.198 47.6059 138.209 47.6059 138.219 47.6059C138.23 47.6059 138.24 47.6059 138.251 47.6059C138.261 47.6059 138.272 47.6059 138.282 47.6059C138.293 47.6059 138.303 47.6059 138.314 47.6059C138.325 47.6059 138.335 47.6059 138.346 47.6059C138.357 47.6059 138.367 47.6059 138.378 47.6059C138.389 47.6059 138.4 47.6059 138.411 47.6059C138.421 47.6059 138.432 47.6059 138.443 47.6059C138.454 47.6059 138.465 47.6059 138.476 47.6059C138.487 47.6059 138.498 47.6059 138.509 47.6059C138.52 47.6059 138.531 47.6059 138.542 47.6059C138.553 47.6059 138.565 47.6059 138.576 47.6059C138.587 47.6059 138.598 47.6059 138.609 47.6059C138.621 47.6059 138.632 47.6059 138.643 47.6059C138.655 47.6059 138.666 47.6059 138.677 47.6059C138.689 47.6059 138.7 47.6059 138.712 47.6059C138.723 47.6059 138.734 47.6059 138.746 47.6059C138.758 47.6059 138.769 47.6059 138.781 47.6059C138.792 47.6059 138.804 47.6059 138.815 47.6059C138.827 47.6059 138.839 47.6059 138.85 47.6059C138.862 47.6059 138.874 47.6059 138.886 47.6059C138.897 47.6059 138.909 47.6059 138.921 47.6059C138.933 47.6059 138.945 47.6059 138.957 47.6059C138.969 47.6059 138.981 47.6059 138.992 47.6059C139.004 47.6059 139.016 47.6059 139.028 47.6059C139.04 47.6059 139.053 47.6059 139.065 47.6059C139.077 47.6059 139.089 47.6059 139.101 47.6059C139.113 47.6059 139.125 47.6059 139.137 47.6059C139.15 47.6059 139.162 47.6059 139.174 47.6059C139.186 47.6059 139.199 47.6059 139.211 47.6059C139.223 47.6059 139.236 47.6059 139.248 47.6059C139.261 47.6059 139.273 47.6059 139.285 47.6059C139.298 47.6059 139.31 47.6059 139.323 47.6059C139.335 47.6059 139.348 47.6059 139.361 47.6059C139.373 47.6059 139.386 47.6059 139.398 47.6059C139.411 47.6059 139.424 47.6059 139.436 47.6059C139.449 47.6059 139.462 47.6059 139.474 47.6059C139.487 47.6059 139.5 47.6059 139.513 47.6059C139.526 47.6059 139.538 47.6059 139.551 47.6059C139.564 47.6059 139.577 47.6059 139.59 47.6059C139.603 47.6059 139.616 47.6059 139.629 47.6059C139.642 47.6059 139.655 47.6059 139.668 47.6059C139.681 47.6059 139.694 47.6059 139.707 47.6059C139.72 47.6059 139.733 47.6059 139.746 47.6059C139.76 47.6059 139.773 47.6059 139.786 47.6059C139.799 47.6059 139.812 47.6059 139.826 47.6059C139.839 47.6059 139.852 47.6059 139.866 47.6059C139.879 47.6059 139.892 47.6059 139.906 47.6059C139.919 47.6059 139.932 47.6059 139.946 47.6059C139.959 47.6059 139.973 47.6059 139.986 47.6059C140 47.6059 140.013 47.6059 140.027 47.6059C140.04 47.6059 140.054 47.6059 140.067 47.6059C140.081 47.6059 140.094 47.6059 140.108 47.6059C140.122 47.6059 140.135 47.6059 140.149 47.6059C140.163 47.6059 140.177 47.6059 140.19 47.6059C140.204 47.6059 140.218 47.6059 140.232 47.6059C140.245 47.6059 140.259 47.6059 140.273 47.6059C140.287 47.6059 140.301 47.6059 140.315 47.6059C140.329 47.6059 140.342 47.6059 140.356 47.6059C140.37 47.6059 140.384 47.6059 140.398 47.6059C140.412 47.6059 140.426 47.6059 140.44 47.6059C140.454 47.6059 140.469 47.6059 140.483 47.6059C140.497 47.6059 140.511 47.6059 140.525 47.6059C140.539 47.6059 140.553 47.6059 140.568 47.6059C140.582 47.6059 140.596 47.6059 140.61 47.6059C140.624 47.6059 140.639 47.6059 140.653 47.6059C140.667 47.6059 140.682 47.6059 140.696 47.6059C140.71 47.6059 140.725 47.6059 140.739 47.6059C140.753 47.6059 140.768 47.6059 140.782 47.6059C140.797 47.6059 140.811 47.6059 140.826 47.6059C140.84 47.6059 140.855 47.6059 140.869 47.6059C140.884 47.6059 140.898 47.6059 140.913 47.6059C140.928 47.6059 140.942 47.6059 140.957 47.6059C140.971 47.6059 140.986 47.6059 141.001 47.6059C141.015 47.6059 141.03 47.6059 141.045 47.6059C141.06 47.6059 141.074 47.6059 141.089 47.6059C141.104 47.6059 141.119 47.6059 141.133 47.6059C141.148 47.6059 141.163 47.6059 141.178 47.6059C141.193 47.6059 141.208 47.6059 141.223 47.6059C141.237 47.6059 141.252 47.6059 141.267 47.6059C141.282 47.6059 141.297 47.6059 141.312 47.6059C141.327 47.6059 141.342 47.6059 141.357 47.6059C141.372 47.6059 141.387 47.6059 141.402 47.6059C141.417 47.6059 141.432 47.6059 141.448 47.6059C141.463 47.6059 141.478 47.6059 141.493 47.6059C141.508 47.6059 141.523 47.6059 141.539 47.6059C141.554 47.6059 141.569 47.6059 141.584 47.6059C141.599 47.6059 141.615 47.6059 141.63 47.6059C141.645 47.6059 141.661 47.6059 141.676 47.6059C141.691 47.6059 141.706 47.6059 141.722 47.6059C141.737 47.6059 141.753 47.6059 141.768 47.6059C141.783 47.6059 141.799 47.6059 141.814 47.6059C141.83 47.6059 141.845 47.6059 141.861 47.6059C141.876 47.6059 141.892 47.6059 141.907 47.6059C141.923 47.6059 141.938 47.6059 141.954 47.6059C141.969 47.6059 141.985 47.6059 142 47.6059C142.016 47.6059 142.032 47.6059 142.047 47.6059C142.063 47.6059 142.079 47.6059 142.094 47.6059C142.11 47.6059 142.126 47.6059 142.141 47.6059C142.157 47.6059 142.173 47.6059 142.189 47.6059C142.204 47.6059 142.22 47.6059 142.236 47.6059C142.252 47.6059 142.267 47.6059 142.283 47.6059C142.299 47.6059 142.315 47.6059 142.331 47.6059C142.347 47.6059 142.362 47.6059 142.378 47.6059C142.394 47.6059 142.41 47.6059 142.426 47.6059C142.442 47.6059 142.458 47.6059 142.474 47.6059C142.49 47.6059 142.506 47.6059 142.522 47.6059C142.538 47.6059 142.554 47.6059 142.57 47.6059C142.586 47.6059 142.602 47.6059 142.618 47.6059C142.634 47.6059 142.65 47.6059 142.666 47.6059C142.682 47.6059 142.698 47.6059 142.715 47.6059C142.731 47.6059 142.747 47.6059 142.763 47.6059C142.779 47.6059 142.795 47.6059 142.812 47.6059C142.828 47.6059 142.844 47.6059 142.86 47.6059C142.876 47.6059 142.893 47.6059 142.909 47.6059C142.925 47.6059 142.941 47.6059 142.958 47.6059C142.974 47.6059 142.99 47.6059 143.007 47.6059C143.023 47.6059 143.039 47.6059 143.056 47.6059C143.072 47.6059 143.088 47.6059 143.105 47.6059C143.121 47.6059 143.137 47.6059 143.154 47.6059C143.17 47.6059 143.187 47.6059 143.203 47.6059C143.22 47.6059 143.236 47.6059 143.253 47.6059C143.269 47.6059 143.286 47.6059 143.302 47.6059C143.318 47.6059 143.335 47.6059 143.352 47.6059C143.368 47.6059 143.385 47.6059 143.401 47.6059C143.418 47.6059 143.434 47.6059 143.451 47.6059C143.467 47.6059 143.484 47.6059 143.501 47.6059C143.517 47.6059 143.534 47.6059 143.551 47.6059C143.567 47.6059 143.584 47.6059 143.601 47.6059C143.617 47.6059 143.634 47.6059 143.651 47.6059C143.667 47.6059 143.684 47.6059 143.701 47.6059C143.717 47.6059 143.734 47.6059 143.751 47.6059C143.768 47.6059 143.784 47.6059 143.801 47.6059C143.818 47.6059 143.835 47.6059 143.852 47.6059C143.868 47.6059 143.885 47.6059 143.902 47.6059C143.919 47.6059 143.936 47.6059 143.952 47.6059C143.969 47.6059 143.986 47.6059 144.003 47.6059C144.02 47.6059 144.037 47.6059 144.054 47.6059C144.071 47.6059 144.087 47.6059 144.104 47.6059C144.121 47.6059 144.138 47.6059 144.155 47.6059C144.172 47.6059 144.189 47.6059 144.206 47.6059C144.223 47.6059 144.24 47.6059 144.257 47.6059C144.274 47.6059 144.291 47.6059 144.308 47.6059C144.325 47.6059 144.342 47.6059 144.359 47.6059C144.376 47.6059 144.393 47.6059 144.41 47.6059C144.427 47.6059 144.444 47.6059 144.461 47.6059C144.478 47.6059 144.495 47.6059 144.513 47.6059C144.53 47.6059 144.547 47.6059 144.564 47.6059C144.581 47.6059 144.598 47.6059 144.615 47.6059C144.632 47.6059 144.65 47.6059 144.667 47.6059C144.684 47.6059 144.701 47.6059 144.718 47.6059C144.735 47.6059 144.753 47.6059 144.77 47.6059C144.787 47.6059 144.804 47.6059 144.821 47.6059C144.839 47.6059 144.856 47.6059 144.873 47.6059C144.89 47.6059 144.907 47.6059 144.925 47.6059C144.942 47.6059 144.959 47.6059 144.976 47.6059C144.994 47.6059 145.011 47.6059 145.028 47.6059C145.046 47.6059 145.063 47.6059 145.08 47.6059C145.097 47.6059 145.115 47.6059 145.132 47.6059C145.149 47.6059 145.167 47.6059 145.184 47.6059C145.201 47.6059 145.219 47.6059 145.236 47.6059C145.253 47.6059 145.271 47.6059 145.288 47.6059C145.306 47.6059 145.323 47.6059 145.34 47.6059C145.358 47.6059 145.375 47.6059 145.392 47.6059C145.41 47.6059 145.427 47.6059 145.445 47.6059C145.462 47.6059 145.479 47.6059 145.497 47.6059C145.514 47.6059 145.532 47.6059 145.549 47.6059C145.567 47.6059 145.584 47.6059 145.602 47.6059C145.619 47.6059 145.636 47.6059 145.654 47.6059C145.671 47.6059 145.689 47.6059 145.706 47.6059C145.724 47.6059 145.741 47.6059 145.759 47.6059C145.776 47.6059 145.794 47.6059 145.811 47.6059C145.829 47.6059 145.846 47.6059 145.864 47.6059C145.881 47.6059 145.899 47.6059 145.916 47.6059C145.934 47.6059 145.951 47.6059 145.969 47.6059C145.986 47.6059 146.004 47.6059 146.022 47.6059C146.039 47.6059 146.057 47.6059 146.074 47.6059C146.092 47.6059 146.109 47.6059 146.127 47.6059C146.144 47.6059 146.162 47.6059 146.18 47.6059C146.197 47.6059 146.215 47.6059 146.232 47.6059C146.25 47.6059 146.268 47.6059 146.285 47.6059C146.303 47.6059 146.32 47.6059 146.338 47.6059C146.356 47.6059 146.373 47.6059 146.391 47.6059C146.408 47.6059 146.426 47.6059 146.444 47.6059C146.461 47.6059 146.479 47.6059 146.497 47.6059C146.514 47.6059 146.532 47.6059 146.549 47.6059C146.567 47.6059 146.585 47.6059 146.602 47.6059C146.62 47.6059 146.638 47.6059 146.655 47.6059C146.673 47.6059 146.691 47.6059 146.708 47.6059C146.726 47.6059 146.744 47.6059 146.761 47.6059C146.779 47.6059 146.797 47.6059 146.814 47.6059C146.832 47.6059 146.85 47.6059 146.867 47.6059C146.885 47.6059 146.903 47.6059 146.92 47.6059C146.938 47.6059 146.956 47.6059 146.973 47.6059C146.991 47.6059 147.009 47.6059 147.026 47.6059C147.044 47.6059 147.062 47.6059 147.079 47.6059C147.097 47.6059 147.115 47.6059 147.133 47.6059C147.15 47.6059 147.168 47.6059 147.186 47.6059C147.203 47.6059 147.221 47.6059 147.239 47.6059C147.256 47.6059 147.274 47.6059 147.292 47.6059C147.31 47.6059 147.327 47.6059 147.345 47.6059C147.363 47.6059 147.38 47.6059 147.398 47.6059C147.416 47.6059 147.434 47.6059 147.451 47.6059C147.469 47.6059 147.487 47.6059 147.504 47.6059C147.522 47.6059 147.54 47.6059 147.558 47.6059C147.575 47.6059 147.593 47.6059 147.611 47.6059C147.628 47.6059 147.646 47.6059 147.664 47.6059C147.682 47.6059 147.699 47.6059 147.717 47.6059C147.735 47.6059 147.752 47.6059 147.77 47.6059C147.788 47.6059 147.806 47.6059 147.823 47.6059C147.841 47.6059 147.859 47.6059 147.876 47.6059C147.894 47.6059 147.912 47.6059 147.93 47.6059C147.947 47.6059 147.965 47.6059 147.983 47.6059C148 47.6059 148.018 47.6059 148.036 47.6059C148.053 47.6059 148.071 47.6059 148.089 47.6059C148.107 47.6059 148.124 47.6059 148.142 47.6059C148.16 47.6059 148.177 47.6059 148.195 47.6059C148.213 47.6059 148.23 47.6059 148.248 47.6059C148.266 47.6059 148.284 47.6059 148.301 47.6059C148.319 47.6059 148.337 47.6059 148.354 47.6059C148.372 47.6059 148.39 47.6059 148.407 47.6059C148.425 47.6059 148.443 47.6059 148.46 47.6059C148.478 47.6059 148.496 47.6059 148.513 47.6059C148.531 47.6059 148.549 47.6059 148.566 47.6059C148.584 47.6059 148.602 47.6059 148.619 47.6059C148.637 47.6059 148.655 47.6059 148.672 47.6059C148.69 47.6059 148.708 47.6059 148.725 47.6059C148.743 47.6059 148.761 47.6059 148.778 47.6059C148.796 47.6059 148.814 47.6059 148.831 47.6059C148.849 47.6059 148.866 47.6059 148.884 47.6059C148.902 47.6059 148.919 47.6059 148.937 47.6059C148.955 47.6059 148.972 47.6059 148.99 47.6059C149.007 47.6059 149.025 47.6059 149.043 47.6059C149.06 47.6059 149.078 47.6059 149.095 47.6059C149.113 47.6059 149.131 47.6059 149.148 47.6059C149.166 47.6059 149.183 47.6059 149.201 47.6059C149.218 47.6059 149.236 47.6059 149.254 47.6059C149.271 47.6059 149.289 47.6059 149.306 47.6059C149.324 47.6059 149.341 47.6059 149.359 47.6059C149.376 47.6059 149.394 47.6059 149.411 47.6059C149.429 47.6059 149.447 47.6059 149.464 47.6059C149.482 47.6059 149.499 47.6059 149.517 47.6059C149.534 47.6059 149.552 47.6059 149.569 47.6059C149.587 47.6059 149.604 47.6059 149.622 47.6059C149.639 47.6059 149.656 47.6059 149.674 47.6059C149.691 47.6059 149.709 47.6059 149.726 47.6059C149.744 47.6059 149.761 47.6059 149.779 47.6059C149.796 47.6059 149.814 47.6059 149.831 47.6059C149.848 47.6059 149.866 47.6059 149.883 47.6059C149.901 47.6059 149.918 47.6059 149.935 47.6059C149.953 47.6059 149.97 47.6059 149.988 47.6059C150.005 47.6059 150.022 47.6059 150.04 47.6059C150.057 47.6059 150.075 47.6059 150.092 47.6059C150.109 47.6059 150.127 47.6059 150.144 47.6059C150.161 47.6059 150.179 47.6059 150.196 47.6059C150.213 47.6059 150.231 47.6059 150.248 47.6059C150.265 47.6059 150.282 47.6059 150.3 47.6059C150.317 47.6059 150.334 47.6059 150.352 47.6059C150.369 47.6059 150.386 47.6059 150.403 47.6059C150.421 47.6059 150.438 47.6059 150.455 47.6059C150.472 47.6059 150.49 47.6059 150.507 47.6059C150.524 47.6059 150.541 47.6059 150.558 47.6059C150.576 47.6059 150.593 47.6059 150.61 47.6059C150.627 47.6059 150.644 47.6059 150.661 47.6059C150.679 47.6059 150.696 47.6059 150.713 47.6059C150.73 47.6059 150.747 47.6059 150.764 47.6059C150.781 47.6059 150.799 47.6059 150.816 47.6059C150.833 47.6059 150.85 47.6059 150.867 47.6059C150.884 47.6059 150.901 47.6059 150.918 47.6059C150.935 47.6059 150.952 47.6059 150.969 47.6059C150.986 47.6059 151.003 47.6059 151.02 47.6059C151.037 47.6059 151.054 47.6059 151.071 47.6059C151.088 47.6059 151.105 47.6059 151.122 47.6059C151.139 47.6059 151.156 47.6059 151.173 47.6059C151.19 47.6059 151.207 47.6059 151.224 47.6059C151.241 47.6059 151.258 47.6059 151.275 47.6059C151.292 47.6059 151.309 47.6059 151.325 47.6059C151.342 47.6059 151.359 47.6059 151.376 47.6059C151.393 47.6059 151.41 47.6059 151.426 47.6059C151.443 47.6059 151.46 47.6059 151.477 47.6059C151.494 47.6059 151.511 47.6059 151.527 47.6059C151.544 47.6059 151.561 47.6059 151.578 47.6059C151.594 47.6059 151.611 47.6059 151.628 47.6059C151.645 47.6059 151.661 47.6059 151.678 47.6059C151.695 47.6059 151.711 47.6059 151.728 47.6059C151.745 47.6059 151.761 47.6059 151.778 47.6059C151.795 47.6059 151.811 47.6059 151.828 47.6059C151.845 47.6059 151.861 47.6059 151.878 47.6059C151.894 47.6059 151.911 47.6059 151.927 47.6059C151.944 47.6059 151.961 47.6059 151.977 47.6059C151.994 47.6059 152.01 47.6059 152.027 47.6059C152.043 47.6059 152.06 47.6059 152.076 47.6059C152.093 47.6059 152.109 47.6059 152.126 47.6059C152.142 47.6059 152.158 47.6059 152.175 47.6059C152.191 47.6059 152.208 47.6059 152.224 47.6059C152.241 47.6059 152.257 47.6059 152.273 47.6059C152.29 47.6059 152.306 47.6059 152.322 47.6059C152.339 47.6059 152.355 47.6059 152.371 47.6059C152.388 47.6059 152.404 47.6059 152.42 47.6059C152.436 47.6059 152.453 47.6059 152.469 47.6059C152.485 47.6059 152.501 47.6059 152.517 47.6059C152.534 47.6059 152.55 47.6059 152.566 47.6059C152.582 47.6059 152.598 47.6059 152.615 47.6059C152.631 47.6059 152.647 47.6059 152.663 47.6059C152.679 47.6059 152.695 47.6059 152.711 47.6059C152.727 47.6059 152.743 47.6059 152.759 47.6059C152.775 47.6059 152.791 47.6059 152.807 47.6059C152.823 47.6059 152.839 47.6059 152.855 47.6059C152.871 47.6059 152.887 47.6059 152.903 47.6059C152.919 47.6059 152.935 47.6059 152.951 47.6059C152.967 47.6059 152.983 47.6059 152.999 47.6059C153.014 47.6059 153.03 47.6059 153.046 47.6059C153.062 47.6059 153.078 47.6059 153.094 47.6059C153.109 47.6059 153.125 47.6059 153.141 47.6059C153.157 47.6059 153.172 47.6059 153.188 47.6059C153.204 47.6059 153.22 47.6059 153.235 47.6059C153.251 47.6059 153.267 47.6059 153.282 47.6059C153.298 47.6059 153.313 47.6059 153.329 47.6059C153.345 47.6059 153.36 47.6059 153.376 47.6059C153.391 47.6059 153.407 47.6059 153.422 47.6059C153.438 47.6059 153.454 47.6059 153.469 47.6059C153.484 47.6059 153.5 47.6059 153.515 47.6059C153.531 47.6059 153.546 47.6059 153.562 47.6059C153.577 47.6059 153.593 47.6059 153.608 47.6059C153.623 47.6059 153.639 47.6059 153.654 47.6059C153.669 47.6059 153.685 47.6059 153.7 47.6059C153.715 47.6059 153.73 47.6059 153.746 47.6059C153.761 47.6059 153.776 47.6059 153.791 47.6059C153.807 47.6059 153.822 47.6059 153.837 47.6059C153.852 47.6059 153.867 47.6059 153.882 47.6059C153.898 47.6059 153.913 47.6059 153.928 47.6059C153.943 47.6059 153.958 47.6059 153.973 47.6059C153.988 47.6059 154.003 47.6059 154.018 47.6059C154.033 47.6059 154.048 47.6059 154.063 47.6059C154.078 47.6059 154.093 47.6059 154.108 47.6059C154.123 47.6059 154.137 47.6059 154.152 47.6059C154.167 47.6059 154.182 47.6059 154.197 47.6059C154.212 47.6059 154.226 47.6059 154.241 47.6059C154.256 47.6059 154.271 47.6059 154.286 47.6059C154.3 47.6059 154.315 47.6059 154.33 47.6059C154.344 47.6059 154.359 47.6059 154.374 47.6059C154.388 47.6059 154.403 47.6059 154.418 47.6059C154.432 47.6059 154.447 47.6059 154.461 47.6059C154.476 47.6059 154.49 47.6059 154.505 47.6059C154.519 47.6059 154.534 47.6059 154.548 47.6059C154.563 47.6059 154.577 47.6059 154.592 47.6059C154.606 47.6059 154.62 47.6059 154.635 47.6059C154.649 47.6059 154.663 47.6059 154.678 47.6059C154.692 47.6059 154.706 47.6059 154.721 47.6059C154.735 47.6059 154.749 47.6059 154.763 47.6059C154.777 47.6059 154.792 47.6059 154.806 47.6059C154.82 47.6059 154.834 47.6059 154.848 47.6059C154.862 47.6059 154.876 47.6059 154.891 47.6059C154.905 47.6059 154.919 47.6059 154.933 47.6059C154.947 47.6059 154.961 47.6059 154.975 47.6059C154.989 47.6059 155.003 47.6059 155.016 47.6059C155.03 47.6059 155.044 47.6059 155.058 47.6059C155.072 47.6059 155.086 47.6059 155.1 47.6059C155.113 47.6059 155.127 47.6059 155.141 47.6059C155.155 47.6059 155.168 47.6059 155.182 47.6059C155.196 47.6059 155.21 47.6059 155.223 47.6059C155.237 47.6059 155.25 47.6059 155.264 47.6059C155.278 47.6059 155.291 47.6059 155.305 47.6059C155.318 47.6059 155.332 47.6059 155.345 47.6059C155.359 47.6059 155.372 47.6059 155.386 47.6059C155.399 47.6059 155.413 47.6059 155.426 47.6059C155.439 47.6059 155.453 47.6059 155.466 47.6059C155.479 47.6059 155.493 47.6059 155.506 47.6059C155.519 47.6059 155.533 47.6059 155.546 47.6059C155.559 47.6059 155.572 47.6059 155.585 47.6059C155.598 47.6059 155.612 47.6059 155.625 47.6059C155.638 47.6059 155.651 47.6059 155.664 47.6059C155.677 47.6059 155.69 47.6059 155.703 47.6059C155.716 47.6059 155.729 47.6059 155.742 47.6059C155.755 47.6059 155.768 47.6059 155.781 47.6059C155.794 47.6059 155.806 47.6059 155.819 47.6059C155.832 47.6059 155.845 47.6059 155.858 47.6059C155.87 47.6059 155.883 47.6059 155.896 47.6059C155.909 47.6059 155.921 47.6059 155.934 47.6059C155.947 47.6059 155.959 47.6059 155.972 47.6059C155.984 47.6059 155.997 47.6059 156.009 47.6059C156.022 47.6059 156.034 47.6059 156.047 47.6059C156.059 47.6059 156.072 47.6059 156.084 47.6059C156.097 47.6059 156.109 47.6059 156.121 47.6059C156.134 47.6059 156.146 47.6059 156.158 47.6059C156.171 47.6059 156.183 47.6059 156.195 47.6059C156.207 47.6059 156.22 47.6059 156.232 47.6059C156.244 47.6059 156.256 47.6059 156.268 47.6059C156.28 47.6059 156.292 47.6059 156.304 47.6059C156.316 47.6059 156.328 47.6059 156.34 47.6059C156.352 47.6059 156.364 47.6059 156.376 47.6059C156.388 47.6059 156.4 47.6059 156.412 47.6059C156.424 47.6059 156.436 47.6059 156.447 47.6059C156.459 47.6059 156.471 47.6059 156.483 47.6059C156.494 47.6059 156.506 47.6059 156.518 47.6059C156.529 47.6059 156.541 47.6059 156.553 47.6059C156.564 47.6059 156.576 47.6059 156.587 47.6059C156.599 47.6059 156.61 47.6059 156.622 47.6059C156.633 47.6059 156.645 47.6059 156.656 47.6059C156.667 47.6059 156.679 47.6059 156.69 47.6059C156.701 47.6059 156.713 47.6059 156.724 47.6059C156.735 47.6059 156.747 47.6059 156.758 47.6059C156.769 47.6059 156.78 47.6059 156.791 47.6059C156.802 47.6059 156.813 47.6059 156.825 47.6059C156.836 47.6059 156.847 47.6059 156.858 47.6059C156.869 47.6059 156.88 47.6059 156.891 47.6059C156.901 47.6059 156.912 47.6059 156.923 47.6059C156.934 47.6059 156.945 47.6059 156.956 47.6059C156.967 47.6059 156.977 47.6059 156.988 47.6059C156.999 47.6059 157.009 47.6059 157.02 47.6059C157.031 47.6059 157.041 47.6059 157.052 47.6059C157.063 47.6059 157.073 47.6059 157.084 47.6059C157.094 47.6059 157.105 47.6059 157.115 47.6059C157.125 47.6059 157.136 47.6059 157.146 47.6059C157.157 47.6059 157.167 47.6059 157.177 47.6059C157.188 47.6059 157.198 47.6059 157.208 47.6059C157.218 47.6059 157.229 47.6059 157.239 47.6059C157.249 47.6059 157.259 47.6059 157.269 47.6059C157.279 47.6059 157.289 47.6059 157.299 47.6059C157.309 47.6059 157.319 47.6059 157.329 47.6059C157.339 47.6059 157.349 47.6059 157.359 47.6059C157.369 47.6059 157.379 47.6059 157.388 47.6059C157.398 47.6059 157.408 47.6059 157.418 47.6059C157.427 47.6059 157.437 47.6059 157.447 47.6059C157.456 47.6059 157.466 47.6059 157.476 47.6059C157.485 47.6059 157.495 47.6059 157.504 47.6059C157.514 47.6059 157.523 47.6059 157.533 47.6059C157.542 47.6059 157.551 47.6059 157.561 47.6059C157.57 47.6059 157.579 47.6059 157.589 47.6059C157.598 47.6059 157.607 47.6059 157.616 47.6059C157.626 47.6059 157.635 47.6059 157.644 47.6059C157.653 47.6059 157.662 47.6059 157.671 47.6059C157.68 47.6059 157.689 47.6059 157.698 47.6059C157.707 47.6059 157.716 47.6059 157.725 47.6059C157.734 47.6059 157.743 47.6059 157.751 47.6059C157.76 47.6059 157.769 47.6059 157.778 47.6059C157.786 47.6059 157.795 47.6059 157.804 47.6059C157.812 47.6059 157.821 47.6059 157.83 47.6059C157.838 47.6059 157.847 47.6059 157.855 47.6059C157.864 47.6059 157.872 47.6059 157.881 47.6059C157.889 47.6059 157.897 47.6059 157.906 47.6059C157.914 47.6059 157.922 47.6059 157.931 47.6059C157.939 47.6059 157.947 47.6059 157.955 47.6059C157.963 47.6059 157.971 47.6059 157.98 47.6059C157.988 47.6059 157.996 47.6059 158.004 47.6059C158.012 47.6059 158.02 47.6059 158.028 47.6059C158.036 47.6059 158.043 47.6059 158.051 47.6059C158.059 47.6059 158.067 47.6059 158.075 47.6059C158.082 47.6059 158.09 47.6059 158.098 47.6059C158.106 47.6059 158.113 47.6059 158.121 47.6059C158.128 47.6059 158.136 47.6059 158.143 47.6059C158.151 47.6059 158.158 47.6059 158.166 47.6059C158.173 47.6059 158.181 47.6059 158.188 47.6059C158.195 47.6059 158.203 47.6059 158.21 47.6059C158.217 47.6059 158.224 47.6059 158.232 47.6059C158.239 47.6059 158.246 47.6059 158.253 47.6059C158.26 47.6059 158.267 47.6059 158.274 47.6059C158.281 47.6059 158.288 47.6059 158.295 47.6059C158.302 47.6059 158.309 47.6059 158.316 47.6059C158.323 47.6059 158.329 47.6059 158.336 47.6059C158.343 47.6059 158.35 47.6059 158.356 47.6059C158.363 47.6059 158.369 47.6059 158.376 47.6059C158.383 47.6059 158.389 47.6059 158.396 47.6059C158.402 47.6059 158.409 47.6059 158.415 47.6059C158.421 47.6059 158.428 47.6059 158.434 47.6059C158.44 47.6059 158.447 47.6059 158.453 47.6059C158.459 47.6059 158.465 47.6059 158.471 47.6059C158.477 47.6059 158.484 47.6059 158.49 47.6059C158.496 47.6059 158.502 47.6059 158.508 47.6059C158.514 47.6059 158.519 47.6059 158.525 47.6059C158.531 47.6059 158.537 47.6059 158.543 47.6059V45.6059C158.537 45.6059 158.531 45.6059 158.525 45.6059C158.519 45.6059 158.514 45.6059 158.508 45.6059C158.502 45.6059 158.496 45.6059 158.49 45.6059C158.484 45.6059 158.477 45.6059 158.471 45.6059C158.465 45.6059 158.459 45.6059 158.453 45.6059C158.447 45.6059 158.44 45.6059 158.434 45.6059C158.428 45.6059 158.421 45.6059 158.415 45.6059C158.409 45.6059 158.402 45.6059 158.396 45.6059C158.389 45.6059 158.383 45.6059 158.376 45.6059C158.369 45.6059 158.363 45.6059 158.356 45.6059C158.35 45.6059 158.343 45.6059 158.336 45.6059C158.329 45.6059 158.323 45.6059 158.316 45.6059C158.309 45.6059 158.302 45.6059 158.295 45.6059C158.288 45.6059 158.281 45.6059 158.274 45.6059C158.267 45.6059 158.26 45.6059 158.253 45.6059C158.246 45.6059 158.239 45.6059 158.232 45.6059C158.224 45.6059 158.217 45.6059 158.21 45.6059C158.203 45.6059 158.195 45.6059 158.188 45.6059C158.181 45.6059 158.173 45.6059 158.166 45.6059C158.158 45.6059 158.151 45.6059 158.143 45.6059C158.136 45.6059 158.128 45.6059 158.121 45.6059C158.113 45.6059 158.106 45.6059 158.098 45.6059C158.09 45.6059 158.082 45.6059 158.075 45.6059C158.067 45.6059 158.059 45.6059 158.051 45.6059C158.043 45.6059 158.036 45.6059 158.028 45.6059C158.02 45.6059 158.012 45.6059 158.004 45.6059C157.996 45.6059 157.988 45.6059 157.98 45.6059C157.971 45.6059 157.963 45.6059 157.955 45.6059C157.947 45.6059 157.939 45.6059 157.931 45.6059C157.922 45.6059 157.914 45.6059 157.906 45.6059C157.897 45.6059 157.889 45.6059 157.881 45.6059C157.872 45.6059 157.864 45.6059 157.855 45.6059C157.847 45.6059 157.838 45.6059 157.83 45.6059C157.821 45.6059 157.812 45.6059 157.804 45.6059C157.795 45.6059 157.786 45.6059 157.778 45.6059C157.769 45.6059 157.76 45.6059 157.751 45.6059C157.743 45.6059 157.734 45.6059 157.725 45.6059C157.716 45.6059 157.707 45.6059 157.698 45.6059C157.689 45.6059 157.68 45.6059 157.671 45.6059C157.662 45.6059 157.653 45.6059 157.644 45.6059C157.635 45.6059 157.626 45.6059 157.616 45.6059C157.607 45.6059 157.598 45.6059 157.589 45.6059C157.579 45.6059 157.57 45.6059 157.561 45.6059C157.551 45.6059 157.542 45.6059 157.533 45.6059C157.523 45.6059 157.514 45.6059 157.504 45.6059C157.495 45.6059 157.485 45.6059 157.476 45.6059C157.466 45.6059 157.456 45.6059 157.447 45.6059C157.437 45.6059 157.427 45.6059 157.418 45.6059C157.408 45.6059 157.398 45.6059 157.388 45.6059C157.379 45.6059 157.369 45.6059 157.359 45.6059C157.349 45.6059 157.339 45.6059 157.329 45.6059C157.319 45.6059 157.309 45.6059 157.299 45.6059C157.289 45.6059 157.279 45.6059 157.269 45.6059C157.259 45.6059 157.249 45.6059 157.239 45.6059C157.229 45.6059 157.218 45.6059 157.208 45.6059C157.198 45.6059 157.188 45.6059 157.177 45.6059C157.167 45.6059 157.157 45.6059 157.146 45.6059C157.136 45.6059 157.125 45.6059 157.115 45.6059C157.105 45.6059 157.094 45.6059 157.084 45.6059C157.073 45.6059 157.063 45.6059 157.052 45.6059C157.041 45.6059 157.031 45.6059 157.02 45.6059C157.009 45.6059 156.999 45.6059 156.988 45.6059C156.977 45.6059 156.967 45.6059 156.956 45.6059C156.945 45.6059 156.934 45.6059 156.923 45.6059C156.912 45.6059 156.901 45.6059 156.891 45.6059C156.88 45.6059 156.869 45.6059 156.858 45.6059C156.847 45.6059 156.836 45.6059 156.825 45.6059C156.813 45.6059 156.802 45.6059 156.791 45.6059C156.78 45.6059 156.769 45.6059 156.758 45.6059C156.747 45.6059 156.735 45.6059 156.724 45.6059C156.713 45.6059 156.701 45.6059 156.69 45.6059C156.679 45.6059 156.667 45.6059 156.656 45.6059C156.645 45.6059 156.633 45.6059 156.622 45.6059C156.61 45.6059 156.599 45.6059 156.587 45.6059C156.576 45.6059 156.564 45.6059 156.553 45.6059C156.541 45.6059 156.529 45.6059 156.518 45.6059C156.506 45.6059 156.494 45.6059 156.483 45.6059C156.471 45.6059 156.459 45.6059 156.447 45.6059C156.436 45.6059 156.424 45.6059 156.412 45.6059C156.4 45.6059 156.388 45.6059 156.376 45.6059C156.364 45.6059 156.352 45.6059 156.34 45.6059C156.328 45.6059 156.316 45.6059 156.304 45.6059C156.292 45.6059 156.28 45.6059 156.268 45.6059C156.256 45.6059 156.244 45.6059 156.232 45.6059C156.22 45.6059 156.207 45.6059 156.195 45.6059C156.183 45.6059 156.171 45.6059 156.158 45.6059C156.146 45.6059 156.134 45.6059 156.121 45.6059C156.109 45.6059 156.097 45.6059 156.084 45.6059C156.072 45.6059 156.059 45.6059 156.047 45.6059C156.034 45.6059 156.022 45.6059 156.009 45.6059C155.997 45.6059 155.984 45.6059 155.972 45.6059C155.959 45.6059 155.947 45.6059 155.934 45.6059C155.921 45.6059 155.909 45.6059 155.896 45.6059C155.883 45.6059 155.87 45.6059 155.858 45.6059C155.845 45.6059 155.832 45.6059 155.819 45.6059C155.806 45.6059 155.794 45.6059 155.781 45.6059C155.768 45.6059 155.755 45.6059 155.742 45.6059C155.729 45.6059 155.716 45.6059 155.703 45.6059C155.69 45.6059 155.677 45.6059 155.664 45.6059C155.651 45.6059 155.638 45.6059 155.625 45.6059C155.612 45.6059 155.598 45.6059 155.585 45.6059C155.572 45.6059 155.559 45.6059 155.546 45.6059C155.533 45.6059 155.519 45.6059 155.506 45.6059C155.493 45.6059 155.479 45.6059 155.466 45.6059C155.453 45.6059 155.439 45.6059 155.426 45.6059C155.413 45.6059 155.399 45.6059 155.386 45.6059C155.372 45.6059 155.359 45.6059 155.345 45.6059C155.332 45.6059 155.318 45.6059 155.305 45.6059C155.291 45.6059 155.278 45.6059 155.264 45.6059C155.25 45.6059 155.237 45.6059 155.223 45.6059C155.21 45.6059 155.196 45.6059 155.182 45.6059C155.168 45.6059 155.155 45.6059 155.141 45.6059C155.127 45.6059 155.113 45.6059 155.1 45.6059C155.086 45.6059 155.072 45.6059 155.058 45.6059C155.044 45.6059 155.03 45.6059 155.016 45.6059C155.003 45.6059 154.989 45.6059 154.975 45.6059C154.961 45.6059 154.947 45.6059 154.933 45.6059C154.919 45.6059 154.905 45.6059 154.891 45.6059C154.876 45.6059 154.862 45.6059 154.848 45.6059C154.834 45.6059 154.82 45.6059 154.806 45.6059C154.792 45.6059 154.777 45.6059 154.763 45.6059C154.749 45.6059 154.735 45.6059 154.721 45.6059C154.706 45.6059 154.692 45.6059 154.678 45.6059C154.663 45.6059 154.649 45.6059 154.635 45.6059C154.62 45.6059 154.606 45.6059 154.592 45.6059C154.577 45.6059 154.563 45.6059 154.548 45.6059C154.534 45.6059 154.519 45.6059 154.505 45.6059C154.49 45.6059 154.476 45.6059 154.461 45.6059C154.447 45.6059 154.432 45.6059 154.418 45.6059C154.403 45.6059 154.388 45.6059 154.374 45.6059C154.359 45.6059 154.344 45.6059 154.33 45.6059C154.315 45.6059 154.3 45.6059 154.286 45.6059C154.271 45.6059 154.256 45.6059 154.241 45.6059C154.226 45.6059 154.212 45.6059 154.197 45.6059C154.182 45.6059 154.167 45.6059 154.152 45.6059C154.137 45.6059 154.123 45.6059 154.108 45.6059C154.093 45.6059 154.078 45.6059 154.063 45.6059C154.048 45.6059 154.033 45.6059 154.018 45.6059C154.003 45.6059 153.988 45.6059 153.973 45.6059C153.958 45.6059 153.943 45.6059 153.928 45.6059C153.913 45.6059 153.898 45.6059 153.882 45.6059C153.867 45.6059 153.852 45.6059 153.837 45.6059C153.822 45.6059 153.807 45.6059 153.791 45.6059C153.776 45.6059 153.761 45.6059 153.746 45.6059C153.73 45.6059 153.715 45.6059 153.7 45.6059C153.685 45.6059 153.669 45.6059 153.654 45.6059C153.639 45.6059 153.623 45.6059 153.608 45.6059C153.593 45.6059 153.577 45.6059 153.562 45.6059C153.546 45.6059 153.531 45.6059 153.515 45.6059C153.5 45.6059 153.484 45.6059 153.469 45.6059C153.454 45.6059 153.438 45.6059 153.422 45.6059C153.407 45.6059 153.391 45.6059 153.376 45.6059C153.36 45.6059 153.345 45.6059 153.329 45.6059C153.313 45.6059 153.298 45.6059 153.282 45.6059C153.267 45.6059 153.251 45.6059 153.235 45.6059C153.22 45.6059 153.204 45.6059 153.188 45.6059C153.172 45.6059 153.157 45.6059 153.141 45.6059C153.125 45.6059 153.109 45.6059 153.094 45.6059C153.078 45.6059 153.062 45.6059 153.046 45.6059C153.03 45.6059 153.014 45.6059 152.999 45.6059C152.983 45.6059 152.967 45.6059 152.951 45.6059C152.935 45.6059 152.919 45.6059 152.903 45.6059C152.887 45.6059 152.871 45.6059 152.855 45.6059C152.839 45.6059 152.823 45.6059 152.807 45.6059C152.791 45.6059 152.775 45.6059 152.759 45.6059C152.743 45.6059 152.727 45.6059 152.711 45.6059C152.695 45.6059 152.679 45.6059 152.663 45.6059C152.647 45.6059 152.631 45.6059 152.615 45.6059C152.598 45.6059 152.582 45.6059 152.566 45.6059C152.55 45.6059 152.534 45.6059 152.517 45.6059C152.501 45.6059 152.485 45.6059 152.469 45.6059C152.453 45.6059 152.436 45.6059 152.42 45.6059C152.404 45.6059 152.388 45.6059 152.371 45.6059C152.355 45.6059 152.339 45.6059 152.322 45.6059C152.306 45.6059 152.29 45.6059 152.273 45.6059C152.257 45.6059 152.241 45.6059 152.224 45.6059C152.208 45.6059 152.191 45.6059 152.175 45.6059C152.158 45.6059 152.142 45.6059 152.126 45.6059C152.109 45.6059 152.093 45.6059 152.076 45.6059C152.06 45.6059 152.043 45.6059 152.027 45.6059C152.01 45.6059 151.994 45.6059 151.977 45.6059C151.961 45.6059 151.944 45.6059 151.927 45.6059C151.911 45.6059 151.894 45.6059 151.878 45.6059C151.861 45.6059 151.845 45.6059 151.828 45.6059C151.811 45.6059 151.795 45.6059 151.778 45.6059C151.761 45.6059 151.745 45.6059 151.728 45.6059C151.711 45.6059 151.695 45.6059 151.678 45.6059C151.661 45.6059 151.645 45.6059 151.628 45.6059C151.611 45.6059 151.594 45.6059 151.578 45.6059C151.561 45.6059 151.544 45.6059 151.527 45.6059C151.511 45.6059 151.494 45.6059 151.477 45.6059C151.46 45.6059 151.443 45.6059 151.426 45.6059C151.41 45.6059 151.393 45.6059 151.376 45.6059C151.359 45.6059 151.342 45.6059 151.325 45.6059C151.309 45.6059 151.292 45.6059 151.275 45.6059C151.258 45.6059 151.241 45.6059 151.224 45.6059C151.207 45.6059 151.19 45.6059 151.173 45.6059C151.156 45.6059 151.139 45.6059 151.122 45.6059C151.105 45.6059 151.088 45.6059 151.071 45.6059C151.054 45.6059 151.037 45.6059 151.02 45.6059C151.003 45.6059 150.986 45.6059 150.969 45.6059C150.952 45.6059 150.935 45.6059 150.918 45.6059C150.901 45.6059 150.884 45.6059 150.867 45.6059C150.85 45.6059 150.833 45.6059 150.816 45.6059C150.799 45.6059 150.781 45.6059 150.764 45.6059C150.747 45.6059 150.73 45.6059 150.713 45.6059C150.696 45.6059 150.679 45.6059 150.661 45.6059C150.644 45.6059 150.627 45.6059 150.61 45.6059C150.593 45.6059 150.576 45.6059 150.558 45.6059C150.541 45.6059 150.524 45.6059 150.507 45.6059C150.49 45.6059 150.472 45.6059 150.455 45.6059C150.438 45.6059 150.421 45.6059 150.403 45.6059C150.386 45.6059 150.369 45.6059 150.352 45.6059C150.334 45.6059 150.317 45.6059 150.3 45.6059C150.282 45.6059 150.265 45.6059 150.248 45.6059C150.231 45.6059 150.213 45.6059 150.196 45.6059C150.179 45.6059 150.161 45.6059 150.144 45.6059C150.127 45.6059 150.109 45.6059 150.092 45.6059C150.075 45.6059 150.057 45.6059 150.04 45.6059C150.022 45.6059 150.005 45.6059 149.988 45.6059C149.97 45.6059 149.953 45.6059 149.935 45.6059C149.918 45.6059 149.901 45.6059 149.883 45.6059C149.866 45.6059 149.848 45.6059 149.831 45.6059C149.814 45.6059 149.796 45.6059 149.779 45.6059C149.761 45.6059 149.744 45.6059 149.726 45.6059C149.709 45.6059 149.691 45.6059 149.674 45.6059C149.656 45.6059 149.639 45.6059 149.622 45.6059C149.604 45.6059 149.587 45.6059 149.569 45.6059C149.552 45.6059 149.534 45.6059 149.517 45.6059C149.499 45.6059 149.482 45.6059 149.464 45.6059C149.447 45.6059 149.429 45.6059 149.411 45.6059C149.394 45.6059 149.376 45.6059 149.359 45.6059C149.341 45.6059 149.324 45.6059 149.306 45.6059C149.289 45.6059 149.271 45.6059 149.254 45.6059C149.236 45.6059 149.218 45.6059 149.201 45.6059C149.183 45.6059 149.166 45.6059 149.148 45.6059C149.131 45.6059 149.113 45.6059 149.095 45.6059C149.078 45.6059 149.06 45.6059 149.043 45.6059C149.025 45.6059 149.007 45.6059 148.99 45.6059C148.972 45.6059 148.955 45.6059 148.937 45.6059C148.919 45.6059 148.902 45.6059 148.884 45.6059C148.866 45.6059 148.849 45.6059 148.831 45.6059C148.814 45.6059 148.796 45.6059 148.778 45.6059C148.761 45.6059 148.743 45.6059 148.725 45.6059C148.708 45.6059 148.69 45.6059 148.672 45.6059C148.655 45.6059 148.637 45.6059 148.619 45.6059C148.602 45.6059 148.584 45.6059 148.566 45.6059C148.549 45.6059 148.531 45.6059 148.513 45.6059C148.496 45.6059 148.478 45.6059 148.46 45.6059C148.443 45.6059 148.425 45.6059 148.407 45.6059C148.39 45.6059 148.372 45.6059 148.354 45.6059C148.337 45.6059 148.319 45.6059 148.301 45.6059C148.284 45.6059 148.266 45.6059 148.248 45.6059C148.23 45.6059 148.213 45.6059 148.195 45.6059C148.177 45.6059 148.16 45.6059 148.142 45.6059C148.124 45.6059 148.107 45.6059 148.089 45.6059C148.071 45.6059 148.053 45.6059 148.036 45.6059C148.018 45.6059 148 45.6059 147.983 45.6059C147.965 45.6059 147.947 45.6059 147.93 45.6059C147.912 45.6059 147.894 45.6059 147.876 45.6059C147.859 45.6059 147.841 45.6059 147.823 45.6059C147.806 45.6059 147.788 45.6059 147.77 45.6059C147.752 45.6059 147.735 45.6059 147.717 45.6059C147.699 45.6059 147.682 45.6059 147.664 45.6059C147.646 45.6059 147.628 45.6059 147.611 45.6059C147.593 45.6059 147.575 45.6059 147.558 45.6059C147.54 45.6059 147.522 45.6059 147.504 45.6059C147.487 45.6059 147.469 45.6059 147.451 45.6059C147.434 45.6059 147.416 45.6059 147.398 45.6059C147.38 45.6059 147.363 45.6059 147.345 45.6059C147.327 45.6059 147.31 45.6059 147.292 45.6059C147.274 45.6059 147.256 45.6059 147.239 45.6059C147.221 45.6059 147.203 45.6059 147.186 45.6059C147.168 45.6059 147.15 45.6059 147.133 45.6059C147.115 45.6059 147.097 45.6059 147.079 45.6059C147.062 45.6059 147.044 45.6059 147.026 45.6059C147.009 45.6059 146.991 45.6059 146.973 45.6059C146.956 45.6059 146.938 45.6059 146.92 45.6059C146.903 45.6059 146.885 45.6059 146.867 45.6059C146.85 45.6059 146.832 45.6059 146.814 45.6059C146.797 45.6059 146.779 45.6059 146.761 45.6059C146.744 45.6059 146.726 45.6059 146.708 45.6059C146.691 45.6059 146.673 45.6059 146.655 45.6059C146.638 45.6059 146.62 45.6059 146.602 45.6059C146.585 45.6059 146.567 45.6059 146.549 45.6059C146.532 45.6059 146.514 45.6059 146.497 45.6059C146.479 45.6059 146.461 45.6059 146.444 45.6059C146.426 45.6059 146.408 45.6059 146.391 45.6059C146.373 45.6059 146.356 45.6059 146.338 45.6059C146.32 45.6059 146.303 45.6059 146.285 45.6059C146.268 45.6059 146.25 45.6059 146.232 45.6059C146.215 45.6059 146.197 45.6059 146.18 45.6059C146.162 45.6059 146.144 45.6059 146.127 45.6059C146.109 45.6059 146.092 45.6059 146.074 45.6059C146.057 45.6059 146.039 45.6059 146.022 45.6059C146.004 45.6059 145.986 45.6059 145.969 45.6059C145.951 45.6059 145.934 45.6059 145.916 45.6059C145.899 45.6059 145.881 45.6059 145.864 45.6059C145.846 45.6059 145.829 45.6059 145.811 45.6059C145.794 45.6059 145.776 45.6059 145.759 45.6059C145.741 45.6059 145.724 45.6059 145.706 45.6059C145.689 45.6059 145.671 45.6059 145.654 45.6059C145.636 45.6059 145.619 45.6059 145.602 45.6059C145.584 45.6059 145.567 45.6059 145.549 45.6059C145.532 45.6059 145.514 45.6059 145.497 45.6059C145.479 45.6059 145.462 45.6059 145.445 45.6059C145.427 45.6059 145.41 45.6059 145.392 45.6059C145.375 45.6059 145.358 45.6059 145.34 45.6059C145.323 45.6059 145.306 45.6059 145.288 45.6059C145.271 45.6059 145.253 45.6059 145.236 45.6059C145.219 45.6059 145.201 45.6059 145.184 45.6059C145.167 45.6059 145.149 45.6059 145.132 45.6059C145.115 45.6059 145.097 45.6059 145.08 45.6059C145.063 45.6059 145.046 45.6059 145.028 45.6059C145.011 45.6059 144.994 45.6059 144.976 45.6059C144.959 45.6059 144.942 45.6059 144.925 45.6059C144.907 45.6059 144.89 45.6059 144.873 45.6059C144.856 45.6059 144.839 45.6059 144.821 45.6059C144.804 45.6059 144.787 45.6059 144.77 45.6059C144.753 45.6059 144.735 45.6059 144.718 45.6059C144.701 45.6059 144.684 45.6059 144.667 45.6059C144.65 45.6059 144.632 45.6059 144.615 45.6059C144.598 45.6059 144.581 45.6059 144.564 45.6059C144.547 45.6059 144.53 45.6059 144.513 45.6059C144.495 45.6059 144.478 45.6059 144.461 45.6059C144.444 45.6059 144.427 45.6059 144.41 45.6059C144.393 45.6059 144.376 45.6059 144.359 45.6059C144.342 45.6059 144.325 45.6059 144.308 45.6059C144.291 45.6059 144.274 45.6059 144.257 45.6059C144.24 45.6059 144.223 45.6059 144.206 45.6059C144.189 45.6059 144.172 45.6059 144.155 45.6059C144.138 45.6059 144.121 45.6059 144.104 45.6059C144.087 45.6059 144.071 45.6059 144.054 45.6059C144.037 45.6059 144.02 45.6059 144.003 45.6059C143.986 45.6059 143.969 45.6059 143.952 45.6059C143.936 45.6059 143.919 45.6059 143.902 45.6059C143.885 45.6059 143.868 45.6059 143.852 45.6059C143.835 45.6059 143.818 45.6059 143.801 45.6059C143.784 45.6059 143.768 45.6059 143.751 45.6059C143.734 45.6059 143.717 45.6059 143.701 45.6059C143.684 45.6059 143.667 45.6059 143.651 45.6059C143.634 45.6059 143.617 45.6059 143.601 45.6059C143.584 45.6059 143.567 45.6059 143.551 45.6059C143.534 45.6059 143.517 45.6059 143.501 45.6059C143.484 45.6059 143.467 45.6059 143.451 45.6059C143.434 45.6059 143.418 45.6059 143.401 45.6059C143.385 45.6059 143.368 45.6059 143.352 45.6059C143.335 45.6059 143.318 45.6059 143.302 45.6059C143.286 45.6059 143.269 45.6059 143.253 45.6059C143.236 45.6059 143.22 45.6059 143.203 45.6059C143.187 45.6059 143.17 45.6059 143.154 45.6059C143.137 45.6059 143.121 45.6059 143.105 45.6059C143.088 45.6059 143.072 45.6059 143.056 45.6059C143.039 45.6059 143.023 45.6059 143.007 45.6059C142.99 45.6059 142.974 45.6059 142.958 45.6059C142.941 45.6059 142.925 45.6059 142.909 45.6059C142.893 45.6059 142.876 45.6059 142.86 45.6059C142.844 45.6059 142.828 45.6059 142.812 45.6059C142.795 45.6059 142.779 45.6059 142.763 45.6059C142.747 45.6059 142.731 45.6059 142.715 45.6059C142.698 45.6059 142.682 45.6059 142.666 45.6059C142.65 45.6059 142.634 45.6059 142.618 45.6059C142.602 45.6059 142.586 45.6059 142.57 45.6059C142.554 45.6059 142.538 45.6059 142.522 45.6059C142.506 45.6059 142.49 45.6059 142.474 45.6059C142.458 45.6059 142.442 45.6059 142.426 45.6059C142.41 45.6059 142.394 45.6059 142.378 45.6059C142.362 45.6059 142.347 45.6059 142.331 45.6059C142.315 45.6059 142.299 45.6059 142.283 45.6059C142.267 45.6059 142.252 45.6059 142.236 45.6059C142.22 45.6059 142.204 45.6059 142.189 45.6059C142.173 45.6059 142.157 45.6059 142.141 45.6059C142.126 45.6059 142.11 45.6059 142.094 45.6059C142.079 45.6059 142.063 45.6059 142.047 45.6059C142.032 45.6059 142.016 45.6059 142 45.6059C141.985 45.6059 141.969 45.6059 141.954 45.6059C141.938 45.6059 141.923 45.6059 141.907 45.6059C141.892 45.6059 141.876 45.6059 141.861 45.6059C141.845 45.6059 141.83 45.6059 141.814 45.6059C141.799 45.6059 141.783 45.6059 141.768 45.6059C141.753 45.6059 141.737 45.6059 141.722 45.6059C141.706 45.6059 141.691 45.6059 141.676 45.6059C141.661 45.6059 141.645 45.6059 141.63 45.6059C141.615 45.6059 141.599 45.6059 141.584 45.6059C141.569 45.6059 141.554 45.6059 141.539 45.6059C141.523 45.6059 141.508 45.6059 141.493 45.6059C141.478 45.6059 141.463 45.6059 141.448 45.6059C141.432 45.6059 141.417 45.6059 141.402 45.6059C141.387 45.6059 141.372 45.6059 141.357 45.6059C141.342 45.6059 141.327 45.6059 141.312 45.6059C141.297 45.6059 141.282 45.6059 141.267 45.6059C141.252 45.6059 141.237 45.6059 141.223 45.6059C141.208 45.6059 141.193 45.6059 141.178 45.6059C141.163 45.6059 141.148 45.6059 141.133 45.6059C141.119 45.6059 141.104 45.6059 141.089 45.6059C141.074 45.6059 141.06 45.6059 141.045 45.6059C141.03 45.6059 141.015 45.6059 141.001 45.6059C140.986 45.6059 140.971 45.6059 140.957 45.6059C140.942 45.6059 140.928 45.6059 140.913 45.6059C140.898 45.6059 140.884 45.6059 140.869 45.6059C140.855 45.6059 140.84 45.6059 140.826 45.6059C140.811 45.6059 140.797 45.6059 140.782 45.6059C140.768 45.6059 140.753 45.6059 140.739 45.6059C140.725 45.6059 140.71 45.6059 140.696 45.6059C140.682 45.6059 140.667 45.6059 140.653 45.6059C140.639 45.6059 140.624 45.6059 140.61 45.6059C140.596 45.6059 140.582 45.6059 140.568 45.6059C140.553 45.6059 140.539 45.6059 140.525 45.6059C140.511 45.6059 140.497 45.6059 140.483 45.6059C140.469 45.6059 140.454 45.6059 140.44 45.6059C140.426 45.6059 140.412 45.6059 140.398 45.6059C140.384 45.6059 140.37 45.6059 140.356 45.6059C140.342 45.6059 140.329 45.6059 140.315 45.6059C140.301 45.6059 140.287 45.6059 140.273 45.6059C140.259 45.6059 140.245 45.6059 140.232 45.6059C140.218 45.6059 140.204 45.6059 140.19 45.6059C140.177 45.6059 140.163 45.6059 140.149 45.6059C140.135 45.6059 140.122 45.6059 140.108 45.6059C140.094 45.6059 140.081 45.6059 140.067 45.6059C140.054 45.6059 140.04 45.6059 140.027 45.6059C140.013 45.6059 140 45.6059 139.986 45.6059C139.973 45.6059 139.959 45.6059 139.946 45.6059C139.932 45.6059 139.919 45.6059 139.906 45.6059C139.892 45.6059 139.879 45.6059 139.866 45.6059C139.852 45.6059 139.839 45.6059 139.826 45.6059C139.812 45.6059 139.799 45.6059 139.786 45.6059C139.773 45.6059 139.76 45.6059 139.746 45.6059C139.733 45.6059 139.72 45.6059 139.707 45.6059C139.694 45.6059 139.681 45.6059 139.668 45.6059C139.655 45.6059 139.642 45.6059 139.629 45.6059C139.616 45.6059 139.603 45.6059 139.59 45.6059C139.577 45.6059 139.564 45.6059 139.551 45.6059C139.538 45.6059 139.526 45.6059 139.513 45.6059C139.5 45.6059 139.487 45.6059 139.474 45.6059C139.462 45.6059 139.449 45.6059 139.436 45.6059C139.424 45.6059 139.411 45.6059 139.398 45.6059C139.386 45.6059 139.373 45.6059 139.361 45.6059C139.348 45.6059 139.335 45.6059 139.323 45.6059C139.31 45.6059 139.298 45.6059 139.285 45.6059C139.273 45.6059 139.261 45.6059 139.248 45.6059C139.236 45.6059 139.223 45.6059 139.211 45.6059C139.199 45.6059 139.186 45.6059 139.174 45.6059C139.162 45.6059 139.15 45.6059 139.137 45.6059C139.125 45.6059 139.113 45.6059 139.101 45.6059C139.089 45.6059 139.077 45.6059 139.065 45.6059C139.053 45.6059 139.04 45.6059 139.028 45.6059C139.016 45.6059 139.004 45.6059 138.992 45.6059C138.981 45.6059 138.969 45.6059 138.957 45.6059C138.945 45.6059 138.933 45.6059 138.921 45.6059C138.909 45.6059 138.897 45.6059 138.886 45.6059C138.874 45.6059 138.862 45.6059 138.85 45.6059C138.839 45.6059 138.827 45.6059 138.815 45.6059C138.804 45.6059 138.792 45.6059 138.781 45.6059C138.769 45.6059 138.758 45.6059 138.746 45.6059C138.734 45.6059 138.723 45.6059 138.712 45.6059C138.7 45.6059 138.689 45.6059 138.677 45.6059C138.666 45.6059 138.655 45.6059 138.643 45.6059C138.632 45.6059 138.621 45.6059 138.609 45.6059C138.598 45.6059 138.587 45.6059 138.576 45.6059C138.565 45.6059 138.553 45.6059 138.542 45.6059C138.531 45.6059 138.52 45.6059 138.509 45.6059C138.498 45.6059 138.487 45.6059 138.476 45.6059C138.465 45.6059 138.454 45.6059 138.443 45.6059C138.432 45.6059 138.421 45.6059 138.411 45.6059C138.4 45.6059 138.389 45.6059 138.378 45.6059C138.367 45.6059 138.357 45.6059 138.346 45.6059C138.335 45.6059 138.325 45.6059 138.314 45.6059C138.303 45.6059 138.293 45.6059 138.282 45.6059C138.272 45.6059 138.261 45.6059 138.251 45.6059C138.24 45.6059 138.23 45.6059 138.219 45.6059C138.209 45.6059 138.198 45.6059 138.188 45.6059C138.178 45.6059 138.167 45.6059 138.157 45.6059C138.147 45.6059 138.137 45.6059 138.126 45.6059C138.116 45.6059 138.106 45.6059 138.096 45.6059C138.086 45.6059 138.076 45.6059 138.065 45.6059C138.055 45.6059 138.045 45.6059 138.035 45.6059C138.025 45.6059 138.015 45.6059 138.006 45.6059C137.996 45.6059 137.986 45.6059 137.976 45.6059C137.966 45.6059 137.956 45.6059 137.946 45.6059C137.937 45.6059 137.927 45.6059 137.917 45.6059C137.908 45.6059 137.898 45.6059 137.888 45.6059C137.879 45.6059 137.869 45.6059 137.859 45.6059C137.85 45.6059 137.84 45.6059 137.831 45.6059C137.821 45.6059 137.812 45.6059 137.803 45.6059C137.793 45.6059 137.784 45.6059 137.775 45.6059C137.765 45.6059 137.756 45.6059 137.747 45.6059C137.737 45.6059 137.728 45.6059 137.719 45.6059C137.71 45.6059 137.701 45.6059 137.692 45.6059C137.683 45.6059 137.673 45.6059 137.664 45.6059C137.655 45.6059 137.646 45.6059 137.638 45.6059C137.629 45.6059 137.62 45.6059 137.611 45.6059C137.602 45.6059 137.593 45.6059 137.584 45.6059C137.576 45.6059 137.567 45.6059 137.558 45.6059C137.549 45.6059 137.541 45.6059 137.532 45.6059C137.523 45.6059 137.515 45.6059 137.506 45.6059C137.498 45.6059 137.489 45.6059 137.481 45.6059C137.472 45.6059 137.464 45.6059 137.456 45.6059C137.447 45.6059 137.439 45.6059 137.43 45.6059C137.422 45.6059 137.414 45.6059 137.406 45.6059C137.397 45.6059 137.389 45.6059 137.381 45.6059C137.373 45.6059 137.365 45.6059 137.357 45.6059C137.349 45.6059 137.341 45.6059 137.333 45.6059C137.325 45.6059 137.317 45.6059 137.309 45.6059C137.301 45.6059 137.293 45.6059 137.285 45.6059C137.277 45.6059 137.27 45.6059 137.262 45.6059C137.254 45.6059 137.247 45.6059 137.239 45.6059C137.231 45.6059 137.224 45.6059 137.216 45.6059C137.208 45.6059 137.201 45.6059 137.193 45.6059C137.186 45.6059 137.178 45.6059 137.171 45.6059C137.164 45.6059 137.156 45.6059 137.149 45.6059C137.142 45.6059 137.134 45.6059 137.127 45.6059C137.12 45.6059 137.113 45.6059 137.106 45.6059V47.6059ZM158.543 47.6059C159.439 47.6059 160.093 46.8303 159.978 45.9641L157.996 46.2275C157.977 46.0884 158.017 45.9281 158.128 45.7999C158.24 45.6706 158.397 45.6059 158.543 45.6059V47.6059ZM159.978 45.9642C159.833 44.8703 159.48 42.1858 159.141 39.6718C158.807 37.1958 158.473 34.7876 158.369 34.3158L156.416 34.7454C156.497 35.1115 156.815 37.3901 157.159 39.9393C157.498 42.4505 157.85 45.1297 157.996 46.2274L159.978 45.9642ZM146.114 58.5378L146.155 261.764L148.155 261.763L148.114 58.5374L146.114 58.5378Z" fill="white"/>
</g>
</svg>
