<svg width="306" height="318" viewBox="0 0 306 318" fill="none" xmlns="http://www.w3.org/2000/svg">
<path d="M300.5 153C300.5 154.381 301.619 155.5 303 155.5C304.381 155.5 305.5 154.381 305.5 153H300.5ZM176.758 301.129L150.647 288.817L153.04 317.586L176.758 301.129ZM153 300.5C71.538 300.5 5.5 234.462 5.5 153H0.5C0.5 237.223 68.7766 305.5 153 305.5V300.5ZM5.5 153C5.5 71.538 71.538 5.5 153 5.5V0.5C68.7766 0.5 0.5 68.7766 0.5 153H5.5ZM153 5.5C234.462 5.5 300.5 71.538 300.5 153H305.5C305.5 68.7766 237.223 0.5 153 0.5V5.5ZM154.314 300.494C153.876 300.498 153.438 300.5 153 300.5V305.5C153.453 305.5 153.905 305.498 154.357 305.494L154.314 300.494Z" fill="#FF5C01"/>
</svg>
