<svg width="1101" height="901" viewBox="0 0 1101 901" fill="none" xmlns="http://www.w3.org/2000/svg">
<path opacity="0.3" d="M0 457.285C105.202 742.286 792.245 777.066 1100.27 748.234M0.00244141 435.51C124.313 712.123 748.157 786.722 1085.64 755.176M0.00244141 413.735C143.424 681.96 704.071 796.378 1071.02 762.121M0.00244141 391.96C162.533 651.795 659.983 806.032 1056.38 769.067M0.00244141 370.185C181.644 621.635 615.898 815.691 1041.76 776.011M0.00244141 348.407C200.753 591.469 571.81 825.345 1027.13 782.954M0.00244141 326.632C219.862 561.306 527.724 835.002 1012.5 789.898M0.00244141 304.857C238.97 531.142 483.636 844.658 997.872 796.844M0.00244141 283.082C258.082 500.98 439.55 854.315 983.246 803.79M0.00244141 261.306C277.19 470.817 395.462 863.969 968.616 810.734M0.00244141 239.53C296.302 440.653 351.374 873.626 953.988 817.678M0.00244141 217.755C315.41 410.491 307.289 883.282 939.36 824.622M0.00244141 195.98C334.519 380.327 263.203 892.939 924.732 831.567M0.00244141 174.205C353.63 350.165 219.115 902.594 910.104 838.514M0.00244141 152.429C372.742 320.001 175.027 912.252 895.474 845.456M0.00244141 130.654C391.85 289.838 130.942 921.906 880.848 852.4M0.00244141 108.879C410.959 259.675 86.8536 931.563 866.22 859.345M0.00244141 87.1025C430.068 229.512 42.7656 941.219 851.59 866.289M0.00244141 65.3261C449.179 199.347 -1.31995 950.876 836.959 873.235M0.00244141 43.5513C468.288 169.183 -45.4079 960.53 822.336 880.178M0.00244141 21.7764C487.399 139.023 -89.4936 970.189 807.706 887.125M0 0C506.508 108.857 -133.579 979.843 793.075 894.068" stroke="url(#paint0_linear_488_1389)" stroke-width="1.0001" stroke-miterlimit="22.9256"/>
<defs>
<linearGradient id="paint0_linear_488_1389" x1="1920" y1="450" x2="0" y2="450" gradientUnits="userSpaceOnUse">
<stop offset="0.288639" stop-color="#002866" stop-opacity="0"/>
<stop offset="1" stop-color="white"/>
</linearGradient>
</defs>
</svg>
